%TF.GenerationSoftware,KiCad,Pcbnew,8.0.5-8.0.5-0~ubuntu24.04.1*%
%TF.CreationDate,2024-09-17T16:47:33-05:00*%
%TF.ProjectId,Airboat,41697262-6f61-4742-9e6b-696361645f70,rev?*%
%TF.SameCoordinates,Original*%
%TF.FileFunction,Legend,Top*%
%TF.FilePolarity,Positive*%
%FSLAX46Y46*%
G04 Gerber Fmt 4.6, Leading zero omitted, Abs format (unit mm)*
G04 Created by KiCad (PCBNEW 8.0.5-8.0.5-0~ubuntu24.04.1) date 2024-09-17 16:47:33*
%MOMM*%
%LPD*%
G01*
G04 APERTURE LIST*
%ADD10C,0.150000*%
%ADD11C,0.120000*%
G04 APERTURE END LIST*
D10*
X152552495Y-118453819D02*
X152552495Y-119263342D01*
X152552495Y-119263342D02*
X152600114Y-119358580D01*
X152600114Y-119358580D02*
X152647733Y-119406200D01*
X152647733Y-119406200D02*
X152742971Y-119453819D01*
X152742971Y-119453819D02*
X152933447Y-119453819D01*
X152933447Y-119453819D02*
X153028685Y-119406200D01*
X153028685Y-119406200D02*
X153076304Y-119358580D01*
X153076304Y-119358580D02*
X153123923Y-119263342D01*
X153123923Y-119263342D02*
X153123923Y-118453819D01*
X154028685Y-118453819D02*
X153838209Y-118453819D01*
X153838209Y-118453819D02*
X153742971Y-118501438D01*
X153742971Y-118501438D02*
X153695352Y-118549057D01*
X153695352Y-118549057D02*
X153600114Y-118691914D01*
X153600114Y-118691914D02*
X153552495Y-118882390D01*
X153552495Y-118882390D02*
X153552495Y-119263342D01*
X153552495Y-119263342D02*
X153600114Y-119358580D01*
X153600114Y-119358580D02*
X153647733Y-119406200D01*
X153647733Y-119406200D02*
X153742971Y-119453819D01*
X153742971Y-119453819D02*
X153933447Y-119453819D01*
X153933447Y-119453819D02*
X154028685Y-119406200D01*
X154028685Y-119406200D02*
X154076304Y-119358580D01*
X154076304Y-119358580D02*
X154123923Y-119263342D01*
X154123923Y-119263342D02*
X154123923Y-119025247D01*
X154123923Y-119025247D02*
X154076304Y-118930009D01*
X154076304Y-118930009D02*
X154028685Y-118882390D01*
X154028685Y-118882390D02*
X153933447Y-118834771D01*
X153933447Y-118834771D02*
X153742971Y-118834771D01*
X153742971Y-118834771D02*
X153647733Y-118882390D01*
X153647733Y-118882390D02*
X153600114Y-118930009D01*
X153600114Y-118930009D02*
X153552495Y-119025247D01*
X140291866Y-124324819D02*
X140291866Y-125039104D01*
X140291866Y-125039104D02*
X140244247Y-125181961D01*
X140244247Y-125181961D02*
X140149009Y-125277200D01*
X140149009Y-125277200D02*
X140006152Y-125324819D01*
X140006152Y-125324819D02*
X139910914Y-125324819D01*
X141291866Y-125324819D02*
X140720438Y-125324819D01*
X141006152Y-125324819D02*
X141006152Y-124324819D01*
X141006152Y-124324819D02*
X140910914Y-124467676D01*
X140910914Y-124467676D02*
X140815676Y-124562914D01*
X140815676Y-124562914D02*
X140720438Y-124610533D01*
X149032933Y-122228780D02*
X148985314Y-122276400D01*
X148985314Y-122276400D02*
X148842457Y-122324019D01*
X148842457Y-122324019D02*
X148747219Y-122324019D01*
X148747219Y-122324019D02*
X148604362Y-122276400D01*
X148604362Y-122276400D02*
X148509124Y-122181161D01*
X148509124Y-122181161D02*
X148461505Y-122085923D01*
X148461505Y-122085923D02*
X148413886Y-121895447D01*
X148413886Y-121895447D02*
X148413886Y-121752590D01*
X148413886Y-121752590D02*
X148461505Y-121562114D01*
X148461505Y-121562114D02*
X148509124Y-121466876D01*
X148509124Y-121466876D02*
X148604362Y-121371638D01*
X148604362Y-121371638D02*
X148747219Y-121324019D01*
X148747219Y-121324019D02*
X148842457Y-121324019D01*
X148842457Y-121324019D02*
X148985314Y-121371638D01*
X148985314Y-121371638D02*
X149032933Y-121419257D01*
X149890076Y-121324019D02*
X149699600Y-121324019D01*
X149699600Y-121324019D02*
X149604362Y-121371638D01*
X149604362Y-121371638D02*
X149556743Y-121419257D01*
X149556743Y-121419257D02*
X149461505Y-121562114D01*
X149461505Y-121562114D02*
X149413886Y-121752590D01*
X149413886Y-121752590D02*
X149413886Y-122133542D01*
X149413886Y-122133542D02*
X149461505Y-122228780D01*
X149461505Y-122228780D02*
X149509124Y-122276400D01*
X149509124Y-122276400D02*
X149604362Y-122324019D01*
X149604362Y-122324019D02*
X149794838Y-122324019D01*
X149794838Y-122324019D02*
X149890076Y-122276400D01*
X149890076Y-122276400D02*
X149937695Y-122228780D01*
X149937695Y-122228780D02*
X149985314Y-122133542D01*
X149985314Y-122133542D02*
X149985314Y-121895447D01*
X149985314Y-121895447D02*
X149937695Y-121800209D01*
X149937695Y-121800209D02*
X149890076Y-121752590D01*
X149890076Y-121752590D02*
X149794838Y-121704971D01*
X149794838Y-121704971D02*
X149604362Y-121704971D01*
X149604362Y-121704971D02*
X149509124Y-121752590D01*
X149509124Y-121752590D02*
X149461505Y-121800209D01*
X149461505Y-121800209D02*
X149413886Y-121895447D01*
X148956733Y-120806380D02*
X148909114Y-120854000D01*
X148909114Y-120854000D02*
X148766257Y-120901619D01*
X148766257Y-120901619D02*
X148671019Y-120901619D01*
X148671019Y-120901619D02*
X148528162Y-120854000D01*
X148528162Y-120854000D02*
X148432924Y-120758761D01*
X148432924Y-120758761D02*
X148385305Y-120663523D01*
X148385305Y-120663523D02*
X148337686Y-120473047D01*
X148337686Y-120473047D02*
X148337686Y-120330190D01*
X148337686Y-120330190D02*
X148385305Y-120139714D01*
X148385305Y-120139714D02*
X148432924Y-120044476D01*
X148432924Y-120044476D02*
X148528162Y-119949238D01*
X148528162Y-119949238D02*
X148671019Y-119901619D01*
X148671019Y-119901619D02*
X148766257Y-119901619D01*
X148766257Y-119901619D02*
X148909114Y-119949238D01*
X148909114Y-119949238D02*
X148956733Y-119996857D01*
X149861495Y-119901619D02*
X149385305Y-119901619D01*
X149385305Y-119901619D02*
X149337686Y-120377809D01*
X149337686Y-120377809D02*
X149385305Y-120330190D01*
X149385305Y-120330190D02*
X149480543Y-120282571D01*
X149480543Y-120282571D02*
X149718638Y-120282571D01*
X149718638Y-120282571D02*
X149813876Y-120330190D01*
X149813876Y-120330190D02*
X149861495Y-120377809D01*
X149861495Y-120377809D02*
X149909114Y-120473047D01*
X149909114Y-120473047D02*
X149909114Y-120711142D01*
X149909114Y-120711142D02*
X149861495Y-120806380D01*
X149861495Y-120806380D02*
X149813876Y-120854000D01*
X149813876Y-120854000D02*
X149718638Y-120901619D01*
X149718638Y-120901619D02*
X149480543Y-120901619D01*
X149480543Y-120901619D02*
X149385305Y-120854000D01*
X149385305Y-120854000D02*
X149337686Y-120806380D01*
X109594926Y-107237198D02*
X109118736Y-107237198D01*
X109118736Y-107237198D02*
X109071117Y-107713388D01*
X109071117Y-107713388D02*
X109118736Y-107665769D01*
X109118736Y-107665769D02*
X109213974Y-107618150D01*
X109213974Y-107618150D02*
X109452069Y-107618150D01*
X109452069Y-107618150D02*
X109547307Y-107665769D01*
X109547307Y-107665769D02*
X109594926Y-107713388D01*
X109594926Y-107713388D02*
X109642545Y-107808626D01*
X109642545Y-107808626D02*
X109642545Y-108046721D01*
X109642545Y-108046721D02*
X109594926Y-108141959D01*
X109594926Y-108141959D02*
X109547307Y-108189579D01*
X109547307Y-108189579D02*
X109452069Y-108237198D01*
X109452069Y-108237198D02*
X109213974Y-108237198D01*
X109213974Y-108237198D02*
X109118736Y-108189579D01*
X109118736Y-108189579D02*
X109071117Y-108141959D01*
X109928260Y-107237198D02*
X110261593Y-108237198D01*
X110261593Y-108237198D02*
X110594926Y-107237198D01*
X110690165Y-108332436D02*
X111452069Y-108332436D01*
X111690165Y-107237198D02*
X111690165Y-108046721D01*
X111690165Y-108046721D02*
X111737784Y-108141959D01*
X111737784Y-108141959D02*
X111785403Y-108189579D01*
X111785403Y-108189579D02*
X111880641Y-108237198D01*
X111880641Y-108237198D02*
X112071117Y-108237198D01*
X112071117Y-108237198D02*
X112166355Y-108189579D01*
X112166355Y-108189579D02*
X112213974Y-108141959D01*
X112213974Y-108141959D02*
X112261593Y-108046721D01*
X112261593Y-108046721D02*
X112261593Y-107237198D01*
X112690165Y-108189579D02*
X112833022Y-108237198D01*
X112833022Y-108237198D02*
X113071117Y-108237198D01*
X113071117Y-108237198D02*
X113166355Y-108189579D01*
X113166355Y-108189579D02*
X113213974Y-108141959D01*
X113213974Y-108141959D02*
X113261593Y-108046721D01*
X113261593Y-108046721D02*
X113261593Y-107951483D01*
X113261593Y-107951483D02*
X113213974Y-107856245D01*
X113213974Y-107856245D02*
X113166355Y-107808626D01*
X113166355Y-107808626D02*
X113071117Y-107761007D01*
X113071117Y-107761007D02*
X112880641Y-107713388D01*
X112880641Y-107713388D02*
X112785403Y-107665769D01*
X112785403Y-107665769D02*
X112737784Y-107618150D01*
X112737784Y-107618150D02*
X112690165Y-107522912D01*
X112690165Y-107522912D02*
X112690165Y-107427674D01*
X112690165Y-107427674D02*
X112737784Y-107332436D01*
X112737784Y-107332436D02*
X112785403Y-107284817D01*
X112785403Y-107284817D02*
X112880641Y-107237198D01*
X112880641Y-107237198D02*
X113118736Y-107237198D01*
X113118736Y-107237198D02*
X113261593Y-107284817D01*
X114023498Y-107713388D02*
X114166355Y-107761007D01*
X114166355Y-107761007D02*
X114213974Y-107808626D01*
X114213974Y-107808626D02*
X114261593Y-107903864D01*
X114261593Y-107903864D02*
X114261593Y-108046721D01*
X114261593Y-108046721D02*
X114213974Y-108141959D01*
X114213974Y-108141959D02*
X114166355Y-108189579D01*
X114166355Y-108189579D02*
X114071117Y-108237198D01*
X114071117Y-108237198D02*
X113690165Y-108237198D01*
X113690165Y-108237198D02*
X113690165Y-107237198D01*
X113690165Y-107237198D02*
X114023498Y-107237198D01*
X114023498Y-107237198D02*
X114118736Y-107284817D01*
X114118736Y-107284817D02*
X114166355Y-107332436D01*
X114166355Y-107332436D02*
X114213974Y-107427674D01*
X114213974Y-107427674D02*
X114213974Y-107522912D01*
X114213974Y-107522912D02*
X114166355Y-107618150D01*
X114166355Y-107618150D02*
X114118736Y-107665769D01*
X114118736Y-107665769D02*
X114023498Y-107713388D01*
X114023498Y-107713388D02*
X113690165Y-107713388D01*
X115213974Y-108237198D02*
X114642546Y-108237198D01*
X114928260Y-108237198D02*
X114928260Y-107237198D01*
X114928260Y-107237198D02*
X114833022Y-107380055D01*
X114833022Y-107380055D02*
X114737784Y-107475293D01*
X114737784Y-107475293D02*
X114642546Y-107522912D01*
X123729786Y-96538324D02*
X123396453Y-96062133D01*
X123158358Y-96538324D02*
X123158358Y-95538324D01*
X123158358Y-95538324D02*
X123539310Y-95538324D01*
X123539310Y-95538324D02*
X123634548Y-95585943D01*
X123634548Y-95585943D02*
X123682167Y-95633562D01*
X123682167Y-95633562D02*
X123729786Y-95728800D01*
X123729786Y-95728800D02*
X123729786Y-95871657D01*
X123729786Y-95871657D02*
X123682167Y-95966895D01*
X123682167Y-95966895D02*
X123634548Y-96014514D01*
X123634548Y-96014514D02*
X123539310Y-96062133D01*
X123539310Y-96062133D02*
X123158358Y-96062133D01*
X124682167Y-96538324D02*
X124110739Y-96538324D01*
X124396453Y-96538324D02*
X124396453Y-95538324D01*
X124396453Y-95538324D02*
X124301215Y-95681181D01*
X124301215Y-95681181D02*
X124205977Y-95776419D01*
X124205977Y-95776419D02*
X124110739Y-95824038D01*
X158044213Y-93769061D02*
X157710880Y-93292870D01*
X157472785Y-93769061D02*
X157472785Y-92769061D01*
X157472785Y-92769061D02*
X157853737Y-92769061D01*
X157853737Y-92769061D02*
X157948975Y-92816680D01*
X157948975Y-92816680D02*
X157996594Y-92864299D01*
X157996594Y-92864299D02*
X158044213Y-92959537D01*
X158044213Y-92959537D02*
X158044213Y-93102394D01*
X158044213Y-93102394D02*
X157996594Y-93197632D01*
X157996594Y-93197632D02*
X157948975Y-93245251D01*
X157948975Y-93245251D02*
X157853737Y-93292870D01*
X157853737Y-93292870D02*
X157472785Y-93292870D01*
X158901356Y-92769061D02*
X158710880Y-92769061D01*
X158710880Y-92769061D02*
X158615642Y-92816680D01*
X158615642Y-92816680D02*
X158568023Y-92864299D01*
X158568023Y-92864299D02*
X158472785Y-93007156D01*
X158472785Y-93007156D02*
X158425166Y-93197632D01*
X158425166Y-93197632D02*
X158425166Y-93578584D01*
X158425166Y-93578584D02*
X158472785Y-93673822D01*
X158472785Y-93673822D02*
X158520404Y-93721442D01*
X158520404Y-93721442D02*
X158615642Y-93769061D01*
X158615642Y-93769061D02*
X158806118Y-93769061D01*
X158806118Y-93769061D02*
X158901356Y-93721442D01*
X158901356Y-93721442D02*
X158948975Y-93673822D01*
X158948975Y-93673822D02*
X158996594Y-93578584D01*
X158996594Y-93578584D02*
X158996594Y-93340489D01*
X158996594Y-93340489D02*
X158948975Y-93245251D01*
X158948975Y-93245251D02*
X158901356Y-93197632D01*
X158901356Y-93197632D02*
X158806118Y-93150013D01*
X158806118Y-93150013D02*
X158615642Y-93150013D01*
X158615642Y-93150013D02*
X158520404Y-93197632D01*
X158520404Y-93197632D02*
X158472785Y-93245251D01*
X158472785Y-93245251D02*
X158425166Y-93340489D01*
X147667933Y-90269219D02*
X147334600Y-89793028D01*
X147096505Y-90269219D02*
X147096505Y-89269219D01*
X147096505Y-89269219D02*
X147477457Y-89269219D01*
X147477457Y-89269219D02*
X147572695Y-89316838D01*
X147572695Y-89316838D02*
X147620314Y-89364457D01*
X147620314Y-89364457D02*
X147667933Y-89459695D01*
X147667933Y-89459695D02*
X147667933Y-89602552D01*
X147667933Y-89602552D02*
X147620314Y-89697790D01*
X147620314Y-89697790D02*
X147572695Y-89745409D01*
X147572695Y-89745409D02*
X147477457Y-89793028D01*
X147477457Y-89793028D02*
X147096505Y-89793028D01*
X148572695Y-89269219D02*
X148096505Y-89269219D01*
X148096505Y-89269219D02*
X148048886Y-89745409D01*
X148048886Y-89745409D02*
X148096505Y-89697790D01*
X148096505Y-89697790D02*
X148191743Y-89650171D01*
X148191743Y-89650171D02*
X148429838Y-89650171D01*
X148429838Y-89650171D02*
X148525076Y-89697790D01*
X148525076Y-89697790D02*
X148572695Y-89745409D01*
X148572695Y-89745409D02*
X148620314Y-89840647D01*
X148620314Y-89840647D02*
X148620314Y-90078742D01*
X148620314Y-90078742D02*
X148572695Y-90173980D01*
X148572695Y-90173980D02*
X148525076Y-90221600D01*
X148525076Y-90221600D02*
X148429838Y-90269219D01*
X148429838Y-90269219D02*
X148191743Y-90269219D01*
X148191743Y-90269219D02*
X148096505Y-90221600D01*
X148096505Y-90221600D02*
X148048886Y-90173980D01*
X119880641Y-119235198D02*
X119880641Y-120044721D01*
X119880641Y-120044721D02*
X119928260Y-120139959D01*
X119928260Y-120139959D02*
X119975879Y-120187579D01*
X119975879Y-120187579D02*
X120071117Y-120235198D01*
X120071117Y-120235198D02*
X120261593Y-120235198D01*
X120261593Y-120235198D02*
X120356831Y-120187579D01*
X120356831Y-120187579D02*
X120404450Y-120139959D01*
X120404450Y-120139959D02*
X120452069Y-120044721D01*
X120452069Y-120044721D02*
X120452069Y-119235198D01*
X121404450Y-119235198D02*
X120928260Y-119235198D01*
X120928260Y-119235198D02*
X120880641Y-119711388D01*
X120880641Y-119711388D02*
X120928260Y-119663769D01*
X120928260Y-119663769D02*
X121023498Y-119616150D01*
X121023498Y-119616150D02*
X121261593Y-119616150D01*
X121261593Y-119616150D02*
X121356831Y-119663769D01*
X121356831Y-119663769D02*
X121404450Y-119711388D01*
X121404450Y-119711388D02*
X121452069Y-119806626D01*
X121452069Y-119806626D02*
X121452069Y-120044721D01*
X121452069Y-120044721D02*
X121404450Y-120139959D01*
X121404450Y-120139959D02*
X121356831Y-120187579D01*
X121356831Y-120187579D02*
X121261593Y-120235198D01*
X121261593Y-120235198D02*
X121023498Y-120235198D01*
X121023498Y-120235198D02*
X120928260Y-120187579D01*
X120928260Y-120187579D02*
X120880641Y-120139959D01*
X154599292Y-104937919D02*
X154599292Y-103937919D01*
X154599292Y-103937919D02*
X154837387Y-103937919D01*
X154837387Y-103937919D02*
X154980244Y-103985538D01*
X154980244Y-103985538D02*
X155075482Y-104080776D01*
X155075482Y-104080776D02*
X155123101Y-104176014D01*
X155123101Y-104176014D02*
X155170720Y-104366490D01*
X155170720Y-104366490D02*
X155170720Y-104509347D01*
X155170720Y-104509347D02*
X155123101Y-104699823D01*
X155123101Y-104699823D02*
X155075482Y-104795061D01*
X155075482Y-104795061D02*
X154980244Y-104890300D01*
X154980244Y-104890300D02*
X154837387Y-104937919D01*
X154837387Y-104937919D02*
X154599292Y-104937919D01*
X156123101Y-104937919D02*
X155551673Y-104937919D01*
X155837387Y-104937919D02*
X155837387Y-103937919D01*
X155837387Y-103937919D02*
X155742149Y-104080776D01*
X155742149Y-104080776D02*
X155646911Y-104176014D01*
X155646911Y-104176014D02*
X155551673Y-104223633D01*
X164825111Y-108667892D02*
X164967968Y-108715511D01*
X164967968Y-108715511D02*
X165206063Y-108715511D01*
X165206063Y-108715511D02*
X165301301Y-108667892D01*
X165301301Y-108667892D02*
X165348920Y-108620272D01*
X165348920Y-108620272D02*
X165396539Y-108525034D01*
X165396539Y-108525034D02*
X165396539Y-108429796D01*
X165396539Y-108429796D02*
X165348920Y-108334558D01*
X165348920Y-108334558D02*
X165301301Y-108286939D01*
X165301301Y-108286939D02*
X165206063Y-108239320D01*
X165206063Y-108239320D02*
X165015587Y-108191701D01*
X165015587Y-108191701D02*
X164920349Y-108144082D01*
X164920349Y-108144082D02*
X164872730Y-108096463D01*
X164872730Y-108096463D02*
X164825111Y-108001225D01*
X164825111Y-108001225D02*
X164825111Y-107905987D01*
X164825111Y-107905987D02*
X164872730Y-107810749D01*
X164872730Y-107810749D02*
X164920349Y-107763130D01*
X164920349Y-107763130D02*
X165015587Y-107715511D01*
X165015587Y-107715511D02*
X165253682Y-107715511D01*
X165253682Y-107715511D02*
X165396539Y-107763130D01*
X165729873Y-107715511D02*
X165967968Y-108715511D01*
X165967968Y-108715511D02*
X166158444Y-108001225D01*
X166158444Y-108001225D02*
X166348920Y-108715511D01*
X166348920Y-108715511D02*
X166587016Y-107715511D01*
X167491777Y-108715511D02*
X166920349Y-108715511D01*
X167206063Y-108715511D02*
X167206063Y-107715511D01*
X167206063Y-107715511D02*
X167110825Y-107858368D01*
X167110825Y-107858368D02*
X167015587Y-107953606D01*
X167015587Y-107953606D02*
X166920349Y-108001225D01*
X149685804Y-107837257D02*
X149352471Y-107361066D01*
X149114376Y-107837257D02*
X149114376Y-106837257D01*
X149114376Y-106837257D02*
X149495328Y-106837257D01*
X149495328Y-106837257D02*
X149590566Y-106884876D01*
X149590566Y-106884876D02*
X149638185Y-106932495D01*
X149638185Y-106932495D02*
X149685804Y-107027733D01*
X149685804Y-107027733D02*
X149685804Y-107170590D01*
X149685804Y-107170590D02*
X149638185Y-107265828D01*
X149638185Y-107265828D02*
X149590566Y-107313447D01*
X149590566Y-107313447D02*
X149495328Y-107361066D01*
X149495328Y-107361066D02*
X149114376Y-107361066D01*
X150019138Y-106837257D02*
X150638185Y-106837257D01*
X150638185Y-106837257D02*
X150304852Y-107218209D01*
X150304852Y-107218209D02*
X150447709Y-107218209D01*
X150447709Y-107218209D02*
X150542947Y-107265828D01*
X150542947Y-107265828D02*
X150590566Y-107313447D01*
X150590566Y-107313447D02*
X150638185Y-107408685D01*
X150638185Y-107408685D02*
X150638185Y-107646780D01*
X150638185Y-107646780D02*
X150590566Y-107742018D01*
X150590566Y-107742018D02*
X150542947Y-107789638D01*
X150542947Y-107789638D02*
X150447709Y-107837257D01*
X150447709Y-107837257D02*
X150161995Y-107837257D01*
X150161995Y-107837257D02*
X150066757Y-107789638D01*
X150066757Y-107789638D02*
X150019138Y-107742018D01*
X160286376Y-101517518D02*
X160286376Y-100517518D01*
X160286376Y-100517518D02*
X160524471Y-100517518D01*
X160524471Y-100517518D02*
X160667328Y-100565137D01*
X160667328Y-100565137D02*
X160762566Y-100660375D01*
X160762566Y-100660375D02*
X160810185Y-100755613D01*
X160810185Y-100755613D02*
X160857804Y-100946089D01*
X160857804Y-100946089D02*
X160857804Y-101088946D01*
X160857804Y-101088946D02*
X160810185Y-101279422D01*
X160810185Y-101279422D02*
X160762566Y-101374660D01*
X160762566Y-101374660D02*
X160667328Y-101469899D01*
X160667328Y-101469899D02*
X160524471Y-101517518D01*
X160524471Y-101517518D02*
X160286376Y-101517518D01*
X161714947Y-100850851D02*
X161714947Y-101517518D01*
X161476852Y-100469899D02*
X161238757Y-101184184D01*
X161238757Y-101184184D02*
X161857804Y-101184184D01*
X162809212Y-94235198D02*
X162809212Y-94949483D01*
X162809212Y-94949483D02*
X162761593Y-95092340D01*
X162761593Y-95092340D02*
X162666355Y-95187579D01*
X162666355Y-95187579D02*
X162523498Y-95235198D01*
X162523498Y-95235198D02*
X162428260Y-95235198D01*
X163713974Y-94568531D02*
X163713974Y-95235198D01*
X163475879Y-94187579D02*
X163237784Y-94901864D01*
X163237784Y-94901864D02*
X163856831Y-94901864D01*
X149591743Y-106238301D02*
X149258410Y-105762110D01*
X149020315Y-106238301D02*
X149020315Y-105238301D01*
X149020315Y-105238301D02*
X149401267Y-105238301D01*
X149401267Y-105238301D02*
X149496505Y-105285920D01*
X149496505Y-105285920D02*
X149544124Y-105333539D01*
X149544124Y-105333539D02*
X149591743Y-105428777D01*
X149591743Y-105428777D02*
X149591743Y-105571634D01*
X149591743Y-105571634D02*
X149544124Y-105666872D01*
X149544124Y-105666872D02*
X149496505Y-105714491D01*
X149496505Y-105714491D02*
X149401267Y-105762110D01*
X149401267Y-105762110D02*
X149020315Y-105762110D01*
X150448886Y-105571634D02*
X150448886Y-106238301D01*
X150210791Y-105190682D02*
X149972696Y-105904967D01*
X149972696Y-105904967D02*
X150591743Y-105904967D01*
X144459811Y-114916139D02*
X145269334Y-114916139D01*
X145269334Y-114916139D02*
X145364572Y-114868520D01*
X145364572Y-114868520D02*
X145412192Y-114820901D01*
X145412192Y-114820901D02*
X145459811Y-114725663D01*
X145459811Y-114725663D02*
X145459811Y-114535187D01*
X145459811Y-114535187D02*
X145412192Y-114439949D01*
X145412192Y-114439949D02*
X145364572Y-114392330D01*
X145364572Y-114392330D02*
X145269334Y-114344711D01*
X145269334Y-114344711D02*
X144459811Y-114344711D01*
X144459811Y-113963758D02*
X144459811Y-113344711D01*
X144459811Y-113344711D02*
X144840763Y-113678044D01*
X144840763Y-113678044D02*
X144840763Y-113535187D01*
X144840763Y-113535187D02*
X144888382Y-113439949D01*
X144888382Y-113439949D02*
X144936001Y-113392330D01*
X144936001Y-113392330D02*
X145031239Y-113344711D01*
X145031239Y-113344711D02*
X145269334Y-113344711D01*
X145269334Y-113344711D02*
X145364572Y-113392330D01*
X145364572Y-113392330D02*
X145412192Y-113439949D01*
X145412192Y-113439949D02*
X145459811Y-113535187D01*
X145459811Y-113535187D02*
X145459811Y-113820901D01*
X145459811Y-113820901D02*
X145412192Y-113916139D01*
X145412192Y-113916139D02*
X145364572Y-113963758D01*
X110952070Y-102737198D02*
X111571117Y-102737198D01*
X111571117Y-102737198D02*
X111237784Y-103118150D01*
X111237784Y-103118150D02*
X111380641Y-103118150D01*
X111380641Y-103118150D02*
X111475879Y-103165769D01*
X111475879Y-103165769D02*
X111523498Y-103213388D01*
X111523498Y-103213388D02*
X111571117Y-103308626D01*
X111571117Y-103308626D02*
X111571117Y-103546721D01*
X111571117Y-103546721D02*
X111523498Y-103641959D01*
X111523498Y-103641959D02*
X111475879Y-103689579D01*
X111475879Y-103689579D02*
X111380641Y-103737198D01*
X111380641Y-103737198D02*
X111094927Y-103737198D01*
X111094927Y-103737198D02*
X110999689Y-103689579D01*
X110999689Y-103689579D02*
X110952070Y-103641959D01*
X111904451Y-103070531D02*
X112142546Y-103737198D01*
X112142546Y-103737198D02*
X112380641Y-103070531D01*
X112666356Y-102737198D02*
X113285403Y-102737198D01*
X113285403Y-102737198D02*
X112952070Y-103118150D01*
X112952070Y-103118150D02*
X113094927Y-103118150D01*
X113094927Y-103118150D02*
X113190165Y-103165769D01*
X113190165Y-103165769D02*
X113237784Y-103213388D01*
X113237784Y-103213388D02*
X113285403Y-103308626D01*
X113285403Y-103308626D02*
X113285403Y-103546721D01*
X113285403Y-103546721D02*
X113237784Y-103641959D01*
X113237784Y-103641959D02*
X113190165Y-103689579D01*
X113190165Y-103689579D02*
X113094927Y-103737198D01*
X113094927Y-103737198D02*
X112809213Y-103737198D01*
X112809213Y-103737198D02*
X112713975Y-103689579D01*
X112713975Y-103689579D02*
X112666356Y-103641959D01*
X110309213Y-91187579D02*
X110452070Y-91235198D01*
X110452070Y-91235198D02*
X110690165Y-91235198D01*
X110690165Y-91235198D02*
X110785403Y-91187579D01*
X110785403Y-91187579D02*
X110833022Y-91139959D01*
X110833022Y-91139959D02*
X110880641Y-91044721D01*
X110880641Y-91044721D02*
X110880641Y-90949483D01*
X110880641Y-90949483D02*
X110833022Y-90854245D01*
X110833022Y-90854245D02*
X110785403Y-90806626D01*
X110785403Y-90806626D02*
X110690165Y-90759007D01*
X110690165Y-90759007D02*
X110499689Y-90711388D01*
X110499689Y-90711388D02*
X110404451Y-90663769D01*
X110404451Y-90663769D02*
X110356832Y-90616150D01*
X110356832Y-90616150D02*
X110309213Y-90520912D01*
X110309213Y-90520912D02*
X110309213Y-90425674D01*
X110309213Y-90425674D02*
X110356832Y-90330436D01*
X110356832Y-90330436D02*
X110404451Y-90282817D01*
X110404451Y-90282817D02*
X110499689Y-90235198D01*
X110499689Y-90235198D02*
X110737784Y-90235198D01*
X110737784Y-90235198D02*
X110880641Y-90282817D01*
X111213975Y-90235198D02*
X111452070Y-91235198D01*
X111452070Y-91235198D02*
X111642546Y-90520912D01*
X111642546Y-90520912D02*
X111833022Y-91235198D01*
X111833022Y-91235198D02*
X112071118Y-90235198D01*
X112356832Y-90235198D02*
X112975879Y-90235198D01*
X112975879Y-90235198D02*
X112642546Y-90616150D01*
X112642546Y-90616150D02*
X112785403Y-90616150D01*
X112785403Y-90616150D02*
X112880641Y-90663769D01*
X112880641Y-90663769D02*
X112928260Y-90711388D01*
X112928260Y-90711388D02*
X112975879Y-90806626D01*
X112975879Y-90806626D02*
X112975879Y-91044721D01*
X112975879Y-91044721D02*
X112928260Y-91139959D01*
X112928260Y-91139959D02*
X112880641Y-91187579D01*
X112880641Y-91187579D02*
X112785403Y-91235198D01*
X112785403Y-91235198D02*
X112499689Y-91235198D01*
X112499689Y-91235198D02*
X112404451Y-91187579D01*
X112404451Y-91187579D02*
X112356832Y-91139959D01*
X118009149Y-91667549D02*
X117961530Y-91715169D01*
X117961530Y-91715169D02*
X117818673Y-91762788D01*
X117818673Y-91762788D02*
X117723435Y-91762788D01*
X117723435Y-91762788D02*
X117580578Y-91715169D01*
X117580578Y-91715169D02*
X117485340Y-91619930D01*
X117485340Y-91619930D02*
X117437721Y-91524692D01*
X117437721Y-91524692D02*
X117390102Y-91334216D01*
X117390102Y-91334216D02*
X117390102Y-91191359D01*
X117390102Y-91191359D02*
X117437721Y-91000883D01*
X117437721Y-91000883D02*
X117485340Y-90905645D01*
X117485340Y-90905645D02*
X117580578Y-90810407D01*
X117580578Y-90810407D02*
X117723435Y-90762788D01*
X117723435Y-90762788D02*
X117818673Y-90762788D01*
X117818673Y-90762788D02*
X117961530Y-90810407D01*
X117961530Y-90810407D02*
X118009149Y-90858026D01*
X118961530Y-91762788D02*
X118390102Y-91762788D01*
X118675816Y-91762788D02*
X118675816Y-90762788D01*
X118675816Y-90762788D02*
X118580578Y-90905645D01*
X118580578Y-90905645D02*
X118485340Y-91000883D01*
X118485340Y-91000883D02*
X118390102Y-91048502D01*
X119913911Y-91762788D02*
X119342483Y-91762788D01*
X119628197Y-91762788D02*
X119628197Y-90762788D01*
X119628197Y-90762788D02*
X119532959Y-90905645D01*
X119532959Y-90905645D02*
X119437721Y-91000883D01*
X119437721Y-91000883D02*
X119342483Y-91048502D01*
X125487365Y-107217283D02*
X126296888Y-107217283D01*
X126296888Y-107217283D02*
X126392126Y-107169664D01*
X126392126Y-107169664D02*
X126439746Y-107122045D01*
X126439746Y-107122045D02*
X126487365Y-107026807D01*
X126487365Y-107026807D02*
X126487365Y-106836331D01*
X126487365Y-106836331D02*
X126439746Y-106741093D01*
X126439746Y-106741093D02*
X126392126Y-106693474D01*
X126392126Y-106693474D02*
X126296888Y-106645855D01*
X126296888Y-106645855D02*
X125487365Y-106645855D01*
X126487365Y-105645855D02*
X126487365Y-106217283D01*
X126487365Y-105931569D02*
X125487365Y-105931569D01*
X125487365Y-105931569D02*
X125630222Y-106026807D01*
X125630222Y-106026807D02*
X125725460Y-106122045D01*
X125725460Y-106122045D02*
X125773079Y-106217283D01*
X154263234Y-110734843D02*
X154263234Y-109734843D01*
X154263234Y-109734843D02*
X154501329Y-109734843D01*
X154501329Y-109734843D02*
X154644186Y-109782462D01*
X154644186Y-109782462D02*
X154739424Y-109877700D01*
X154739424Y-109877700D02*
X154787043Y-109972938D01*
X154787043Y-109972938D02*
X154834662Y-110163414D01*
X154834662Y-110163414D02*
X154834662Y-110306271D01*
X154834662Y-110306271D02*
X154787043Y-110496747D01*
X154787043Y-110496747D02*
X154739424Y-110591985D01*
X154739424Y-110591985D02*
X154644186Y-110687224D01*
X154644186Y-110687224D02*
X154501329Y-110734843D01*
X154501329Y-110734843D02*
X154263234Y-110734843D01*
X155215615Y-109830081D02*
X155263234Y-109782462D01*
X155263234Y-109782462D02*
X155358472Y-109734843D01*
X155358472Y-109734843D02*
X155596567Y-109734843D01*
X155596567Y-109734843D02*
X155691805Y-109782462D01*
X155691805Y-109782462D02*
X155739424Y-109830081D01*
X155739424Y-109830081D02*
X155787043Y-109925319D01*
X155787043Y-109925319D02*
X155787043Y-110020557D01*
X155787043Y-110020557D02*
X155739424Y-110163414D01*
X155739424Y-110163414D02*
X155167996Y-110734843D01*
X155167996Y-110734843D02*
X155787043Y-110734843D01*
X153877856Y-113580897D02*
X153830237Y-113628517D01*
X153830237Y-113628517D02*
X153687380Y-113676136D01*
X153687380Y-113676136D02*
X153592142Y-113676136D01*
X153592142Y-113676136D02*
X153449285Y-113628517D01*
X153449285Y-113628517D02*
X153354047Y-113533278D01*
X153354047Y-113533278D02*
X153306428Y-113438040D01*
X153306428Y-113438040D02*
X153258809Y-113247564D01*
X153258809Y-113247564D02*
X153258809Y-113104707D01*
X153258809Y-113104707D02*
X153306428Y-112914231D01*
X153306428Y-112914231D02*
X153354047Y-112818993D01*
X153354047Y-112818993D02*
X153449285Y-112723755D01*
X153449285Y-112723755D02*
X153592142Y-112676136D01*
X153592142Y-112676136D02*
X153687380Y-112676136D01*
X153687380Y-112676136D02*
X153830237Y-112723755D01*
X153830237Y-112723755D02*
X153877856Y-112771374D01*
X154211190Y-112676136D02*
X154877856Y-112676136D01*
X154877856Y-112676136D02*
X154449285Y-113676136D01*
X149852680Y-110765481D02*
X149852680Y-109765481D01*
X149852680Y-109765481D02*
X150090775Y-109765481D01*
X150090775Y-109765481D02*
X150233632Y-109813100D01*
X150233632Y-109813100D02*
X150328870Y-109908338D01*
X150328870Y-109908338D02*
X150376489Y-110003576D01*
X150376489Y-110003576D02*
X150424108Y-110194052D01*
X150424108Y-110194052D02*
X150424108Y-110336909D01*
X150424108Y-110336909D02*
X150376489Y-110527385D01*
X150376489Y-110527385D02*
X150328870Y-110622623D01*
X150328870Y-110622623D02*
X150233632Y-110717862D01*
X150233632Y-110717862D02*
X150090775Y-110765481D01*
X150090775Y-110765481D02*
X149852680Y-110765481D01*
X151281251Y-109765481D02*
X151090775Y-109765481D01*
X151090775Y-109765481D02*
X150995537Y-109813100D01*
X150995537Y-109813100D02*
X150947918Y-109860719D01*
X150947918Y-109860719D02*
X150852680Y-110003576D01*
X150852680Y-110003576D02*
X150805061Y-110194052D01*
X150805061Y-110194052D02*
X150805061Y-110575004D01*
X150805061Y-110575004D02*
X150852680Y-110670242D01*
X150852680Y-110670242D02*
X150900299Y-110717862D01*
X150900299Y-110717862D02*
X150995537Y-110765481D01*
X150995537Y-110765481D02*
X151186013Y-110765481D01*
X151186013Y-110765481D02*
X151281251Y-110717862D01*
X151281251Y-110717862D02*
X151328870Y-110670242D01*
X151328870Y-110670242D02*
X151376489Y-110575004D01*
X151376489Y-110575004D02*
X151376489Y-110336909D01*
X151376489Y-110336909D02*
X151328870Y-110241671D01*
X151328870Y-110241671D02*
X151281251Y-110194052D01*
X151281251Y-110194052D02*
X151186013Y-110146433D01*
X151186013Y-110146433D02*
X150995537Y-110146433D01*
X150995537Y-110146433D02*
X150900299Y-110194052D01*
X150900299Y-110194052D02*
X150852680Y-110241671D01*
X150852680Y-110241671D02*
X150805061Y-110336909D01*
X121978691Y-121398801D02*
X121978691Y-122113086D01*
X121978691Y-122113086D02*
X121931072Y-122255943D01*
X121931072Y-122255943D02*
X121835834Y-122351182D01*
X121835834Y-122351182D02*
X121692977Y-122398801D01*
X121692977Y-122398801D02*
X121597739Y-122398801D01*
X122407263Y-121494039D02*
X122454882Y-121446420D01*
X122454882Y-121446420D02*
X122550120Y-121398801D01*
X122550120Y-121398801D02*
X122788215Y-121398801D01*
X122788215Y-121398801D02*
X122883453Y-121446420D01*
X122883453Y-121446420D02*
X122931072Y-121494039D01*
X122931072Y-121494039D02*
X122978691Y-121589277D01*
X122978691Y-121589277D02*
X122978691Y-121684515D01*
X122978691Y-121684515D02*
X122931072Y-121827372D01*
X122931072Y-121827372D02*
X122359644Y-122398801D01*
X122359644Y-122398801D02*
X122978691Y-122398801D01*
X117475879Y-102737198D02*
X116999689Y-102737198D01*
X116999689Y-102737198D02*
X116952070Y-103213388D01*
X116952070Y-103213388D02*
X116999689Y-103165769D01*
X116999689Y-103165769D02*
X117094927Y-103118150D01*
X117094927Y-103118150D02*
X117333022Y-103118150D01*
X117333022Y-103118150D02*
X117428260Y-103165769D01*
X117428260Y-103165769D02*
X117475879Y-103213388D01*
X117475879Y-103213388D02*
X117523498Y-103308626D01*
X117523498Y-103308626D02*
X117523498Y-103546721D01*
X117523498Y-103546721D02*
X117475879Y-103641959D01*
X117475879Y-103641959D02*
X117428260Y-103689579D01*
X117428260Y-103689579D02*
X117333022Y-103737198D01*
X117333022Y-103737198D02*
X117094927Y-103737198D01*
X117094927Y-103737198D02*
X116999689Y-103689579D01*
X116999689Y-103689579D02*
X116952070Y-103641959D01*
X117809213Y-102737198D02*
X118142546Y-103737198D01*
X118142546Y-103737198D02*
X118475879Y-102737198D01*
X119333022Y-103737198D02*
X118761594Y-103737198D01*
X119047308Y-103737198D02*
X119047308Y-102737198D01*
X119047308Y-102737198D02*
X118952070Y-102880055D01*
X118952070Y-102880055D02*
X118856832Y-102975293D01*
X118856832Y-102975293D02*
X118761594Y-103022912D01*
X122975879Y-90139959D02*
X122928260Y-90187579D01*
X122928260Y-90187579D02*
X122785403Y-90235198D01*
X122785403Y-90235198D02*
X122690165Y-90235198D01*
X122690165Y-90235198D02*
X122547308Y-90187579D01*
X122547308Y-90187579D02*
X122452070Y-90092340D01*
X122452070Y-90092340D02*
X122404451Y-89997102D01*
X122404451Y-89997102D02*
X122356832Y-89806626D01*
X122356832Y-89806626D02*
X122356832Y-89663769D01*
X122356832Y-89663769D02*
X122404451Y-89473293D01*
X122404451Y-89473293D02*
X122452070Y-89378055D01*
X122452070Y-89378055D02*
X122547308Y-89282817D01*
X122547308Y-89282817D02*
X122690165Y-89235198D01*
X122690165Y-89235198D02*
X122785403Y-89235198D01*
X122785403Y-89235198D02*
X122928260Y-89282817D01*
X122928260Y-89282817D02*
X122975879Y-89330436D01*
X123356832Y-89330436D02*
X123404451Y-89282817D01*
X123404451Y-89282817D02*
X123499689Y-89235198D01*
X123499689Y-89235198D02*
X123737784Y-89235198D01*
X123737784Y-89235198D02*
X123833022Y-89282817D01*
X123833022Y-89282817D02*
X123880641Y-89330436D01*
X123880641Y-89330436D02*
X123928260Y-89425674D01*
X123928260Y-89425674D02*
X123928260Y-89520912D01*
X123928260Y-89520912D02*
X123880641Y-89663769D01*
X123880641Y-89663769D02*
X123309213Y-90235198D01*
X123309213Y-90235198D02*
X123928260Y-90235198D01*
X124974563Y-90039450D02*
X124926944Y-90087070D01*
X124926944Y-90087070D02*
X124784087Y-90134689D01*
X124784087Y-90134689D02*
X124688849Y-90134689D01*
X124688849Y-90134689D02*
X124545992Y-90087070D01*
X124545992Y-90087070D02*
X124450754Y-89991831D01*
X124450754Y-89991831D02*
X124403135Y-89896593D01*
X124403135Y-89896593D02*
X124355516Y-89706117D01*
X124355516Y-89706117D02*
X124355516Y-89563260D01*
X124355516Y-89563260D02*
X124403135Y-89372784D01*
X124403135Y-89372784D02*
X124450754Y-89277546D01*
X124450754Y-89277546D02*
X124545992Y-89182308D01*
X124545992Y-89182308D02*
X124688849Y-89134689D01*
X124688849Y-89134689D02*
X124784087Y-89134689D01*
X124784087Y-89134689D02*
X124926944Y-89182308D01*
X124926944Y-89182308D02*
X124974563Y-89229927D01*
X125307897Y-89134689D02*
X125926944Y-89134689D01*
X125926944Y-89134689D02*
X125593611Y-89515641D01*
X125593611Y-89515641D02*
X125736468Y-89515641D01*
X125736468Y-89515641D02*
X125831706Y-89563260D01*
X125831706Y-89563260D02*
X125879325Y-89610879D01*
X125879325Y-89610879D02*
X125926944Y-89706117D01*
X125926944Y-89706117D02*
X125926944Y-89944212D01*
X125926944Y-89944212D02*
X125879325Y-90039450D01*
X125879325Y-90039450D02*
X125831706Y-90087070D01*
X125831706Y-90087070D02*
X125736468Y-90134689D01*
X125736468Y-90134689D02*
X125450754Y-90134689D01*
X125450754Y-90134689D02*
X125355516Y-90087070D01*
X125355516Y-90087070D02*
X125307897Y-90039450D01*
X160286376Y-100048573D02*
X160286376Y-99048573D01*
X160286376Y-99048573D02*
X160524471Y-99048573D01*
X160524471Y-99048573D02*
X160667328Y-99096192D01*
X160667328Y-99096192D02*
X160762566Y-99191430D01*
X160762566Y-99191430D02*
X160810185Y-99286668D01*
X160810185Y-99286668D02*
X160857804Y-99477144D01*
X160857804Y-99477144D02*
X160857804Y-99620001D01*
X160857804Y-99620001D02*
X160810185Y-99810477D01*
X160810185Y-99810477D02*
X160762566Y-99905715D01*
X160762566Y-99905715D02*
X160667328Y-100000954D01*
X160667328Y-100000954D02*
X160524471Y-100048573D01*
X160524471Y-100048573D02*
X160286376Y-100048573D01*
X161191138Y-99048573D02*
X161810185Y-99048573D01*
X161810185Y-99048573D02*
X161476852Y-99429525D01*
X161476852Y-99429525D02*
X161619709Y-99429525D01*
X161619709Y-99429525D02*
X161714947Y-99477144D01*
X161714947Y-99477144D02*
X161762566Y-99524763D01*
X161762566Y-99524763D02*
X161810185Y-99620001D01*
X161810185Y-99620001D02*
X161810185Y-99858096D01*
X161810185Y-99858096D02*
X161762566Y-99953334D01*
X161762566Y-99953334D02*
X161714947Y-100000954D01*
X161714947Y-100000954D02*
X161619709Y-100048573D01*
X161619709Y-100048573D02*
X161333995Y-100048573D01*
X161333995Y-100048573D02*
X161238757Y-100000954D01*
X161238757Y-100000954D02*
X161191138Y-99953334D01*
X143649586Y-111837736D02*
X143649586Y-110837736D01*
X143649586Y-110837736D02*
X143887681Y-110837736D01*
X143887681Y-110837736D02*
X144030538Y-110885355D01*
X144030538Y-110885355D02*
X144125776Y-110980593D01*
X144125776Y-110980593D02*
X144173395Y-111075831D01*
X144173395Y-111075831D02*
X144221014Y-111266307D01*
X144221014Y-111266307D02*
X144221014Y-111409164D01*
X144221014Y-111409164D02*
X144173395Y-111599640D01*
X144173395Y-111599640D02*
X144125776Y-111694878D01*
X144125776Y-111694878D02*
X144030538Y-111790117D01*
X144030538Y-111790117D02*
X143887681Y-111837736D01*
X143887681Y-111837736D02*
X143649586Y-111837736D01*
X145125776Y-110837736D02*
X144649586Y-110837736D01*
X144649586Y-110837736D02*
X144601967Y-111313926D01*
X144601967Y-111313926D02*
X144649586Y-111266307D01*
X144649586Y-111266307D02*
X144744824Y-111218688D01*
X144744824Y-111218688D02*
X144982919Y-111218688D01*
X144982919Y-111218688D02*
X145078157Y-111266307D01*
X145078157Y-111266307D02*
X145125776Y-111313926D01*
X145125776Y-111313926D02*
X145173395Y-111409164D01*
X145173395Y-111409164D02*
X145173395Y-111647259D01*
X145173395Y-111647259D02*
X145125776Y-111742497D01*
X145125776Y-111742497D02*
X145078157Y-111790117D01*
X145078157Y-111790117D02*
X144982919Y-111837736D01*
X144982919Y-111837736D02*
X144744824Y-111837736D01*
X144744824Y-111837736D02*
X144649586Y-111790117D01*
X144649586Y-111790117D02*
X144601967Y-111742497D01*
X149475879Y-104639959D02*
X149428260Y-104687579D01*
X149428260Y-104687579D02*
X149285403Y-104735198D01*
X149285403Y-104735198D02*
X149190165Y-104735198D01*
X149190165Y-104735198D02*
X149047308Y-104687579D01*
X149047308Y-104687579D02*
X148952070Y-104592340D01*
X148952070Y-104592340D02*
X148904451Y-104497102D01*
X148904451Y-104497102D02*
X148856832Y-104306626D01*
X148856832Y-104306626D02*
X148856832Y-104163769D01*
X148856832Y-104163769D02*
X148904451Y-103973293D01*
X148904451Y-103973293D02*
X148952070Y-103878055D01*
X148952070Y-103878055D02*
X149047308Y-103782817D01*
X149047308Y-103782817D02*
X149190165Y-103735198D01*
X149190165Y-103735198D02*
X149285403Y-103735198D01*
X149285403Y-103735198D02*
X149428260Y-103782817D01*
X149428260Y-103782817D02*
X149475879Y-103830436D01*
X150333022Y-104068531D02*
X150333022Y-104735198D01*
X150094927Y-103687579D02*
X149856832Y-104401864D01*
X149856832Y-104401864D02*
X150475879Y-104401864D01*
X153637811Y-117738780D02*
X153637811Y-116738780D01*
X153637811Y-116738780D02*
X153875906Y-116738780D01*
X153875906Y-116738780D02*
X154018763Y-116786399D01*
X154018763Y-116786399D02*
X154114001Y-116881637D01*
X154114001Y-116881637D02*
X154161620Y-116976875D01*
X154161620Y-116976875D02*
X154209239Y-117167351D01*
X154209239Y-117167351D02*
X154209239Y-117310208D01*
X154209239Y-117310208D02*
X154161620Y-117500684D01*
X154161620Y-117500684D02*
X154114001Y-117595922D01*
X154114001Y-117595922D02*
X154018763Y-117691161D01*
X154018763Y-117691161D02*
X153875906Y-117738780D01*
X153875906Y-117738780D02*
X153637811Y-117738780D01*
X154780668Y-117167351D02*
X154685430Y-117119732D01*
X154685430Y-117119732D02*
X154637811Y-117072113D01*
X154637811Y-117072113D02*
X154590192Y-116976875D01*
X154590192Y-116976875D02*
X154590192Y-116929256D01*
X154590192Y-116929256D02*
X154637811Y-116834018D01*
X154637811Y-116834018D02*
X154685430Y-116786399D01*
X154685430Y-116786399D02*
X154780668Y-116738780D01*
X154780668Y-116738780D02*
X154971144Y-116738780D01*
X154971144Y-116738780D02*
X155066382Y-116786399D01*
X155066382Y-116786399D02*
X155114001Y-116834018D01*
X155114001Y-116834018D02*
X155161620Y-116929256D01*
X155161620Y-116929256D02*
X155161620Y-116976875D01*
X155161620Y-116976875D02*
X155114001Y-117072113D01*
X155114001Y-117072113D02*
X155066382Y-117119732D01*
X155066382Y-117119732D02*
X154971144Y-117167351D01*
X154971144Y-117167351D02*
X154780668Y-117167351D01*
X154780668Y-117167351D02*
X154685430Y-117214970D01*
X154685430Y-117214970D02*
X154637811Y-117262589D01*
X154637811Y-117262589D02*
X154590192Y-117357827D01*
X154590192Y-117357827D02*
X154590192Y-117548303D01*
X154590192Y-117548303D02*
X154637811Y-117643541D01*
X154637811Y-117643541D02*
X154685430Y-117691161D01*
X154685430Y-117691161D02*
X154780668Y-117738780D01*
X154780668Y-117738780D02*
X154971144Y-117738780D01*
X154971144Y-117738780D02*
X155066382Y-117691161D01*
X155066382Y-117691161D02*
X155114001Y-117643541D01*
X155114001Y-117643541D02*
X155161620Y-117548303D01*
X155161620Y-117548303D02*
X155161620Y-117357827D01*
X155161620Y-117357827D02*
X155114001Y-117262589D01*
X155114001Y-117262589D02*
X155066382Y-117214970D01*
X155066382Y-117214970D02*
X154971144Y-117167351D01*
X120920146Y-91675040D02*
X120872527Y-91722660D01*
X120872527Y-91722660D02*
X120729670Y-91770279D01*
X120729670Y-91770279D02*
X120634432Y-91770279D01*
X120634432Y-91770279D02*
X120491575Y-91722660D01*
X120491575Y-91722660D02*
X120396337Y-91627421D01*
X120396337Y-91627421D02*
X120348718Y-91532183D01*
X120348718Y-91532183D02*
X120301099Y-91341707D01*
X120301099Y-91341707D02*
X120301099Y-91198850D01*
X120301099Y-91198850D02*
X120348718Y-91008374D01*
X120348718Y-91008374D02*
X120396337Y-90913136D01*
X120396337Y-90913136D02*
X120491575Y-90817898D01*
X120491575Y-90817898D02*
X120634432Y-90770279D01*
X120634432Y-90770279D02*
X120729670Y-90770279D01*
X120729670Y-90770279D02*
X120872527Y-90817898D01*
X120872527Y-90817898D02*
X120920146Y-90865517D01*
X121872527Y-91770279D02*
X121301099Y-91770279D01*
X121586813Y-91770279D02*
X121586813Y-90770279D01*
X121586813Y-90770279D02*
X121491575Y-90913136D01*
X121491575Y-90913136D02*
X121396337Y-91008374D01*
X121396337Y-91008374D02*
X121301099Y-91055993D01*
X153663635Y-115591952D02*
X153663635Y-114591952D01*
X153663635Y-114591952D02*
X153901730Y-114591952D01*
X153901730Y-114591952D02*
X154044587Y-114639571D01*
X154044587Y-114639571D02*
X154139825Y-114734809D01*
X154139825Y-114734809D02*
X154187444Y-114830047D01*
X154187444Y-114830047D02*
X154235063Y-115020523D01*
X154235063Y-115020523D02*
X154235063Y-115163380D01*
X154235063Y-115163380D02*
X154187444Y-115353856D01*
X154187444Y-115353856D02*
X154139825Y-115449094D01*
X154139825Y-115449094D02*
X154044587Y-115544333D01*
X154044587Y-115544333D02*
X153901730Y-115591952D01*
X153901730Y-115591952D02*
X153663635Y-115591952D01*
X154568397Y-114591952D02*
X155235063Y-114591952D01*
X155235063Y-114591952D02*
X154806492Y-115591952D01*
X147733192Y-92951591D02*
X147637954Y-92903972D01*
X147637954Y-92903972D02*
X147542716Y-92808734D01*
X147542716Y-92808734D02*
X147399859Y-92665876D01*
X147399859Y-92665876D02*
X147304621Y-92618257D01*
X147304621Y-92618257D02*
X147209383Y-92618257D01*
X147257002Y-92856353D02*
X147161764Y-92808734D01*
X147161764Y-92808734D02*
X147066526Y-92713495D01*
X147066526Y-92713495D02*
X147018907Y-92523019D01*
X147018907Y-92523019D02*
X147018907Y-92189686D01*
X147018907Y-92189686D02*
X147066526Y-91999210D01*
X147066526Y-91999210D02*
X147161764Y-91903972D01*
X147161764Y-91903972D02*
X147257002Y-91856353D01*
X147257002Y-91856353D02*
X147447478Y-91856353D01*
X147447478Y-91856353D02*
X147542716Y-91903972D01*
X147542716Y-91903972D02*
X147637954Y-91999210D01*
X147637954Y-91999210D02*
X147685573Y-92189686D01*
X147685573Y-92189686D02*
X147685573Y-92523019D01*
X147685573Y-92523019D02*
X147637954Y-92713495D01*
X147637954Y-92713495D02*
X147542716Y-92808734D01*
X147542716Y-92808734D02*
X147447478Y-92856353D01*
X147447478Y-92856353D02*
X147257002Y-92856353D01*
X148066526Y-91951591D02*
X148114145Y-91903972D01*
X148114145Y-91903972D02*
X148209383Y-91856353D01*
X148209383Y-91856353D02*
X148447478Y-91856353D01*
X148447478Y-91856353D02*
X148542716Y-91903972D01*
X148542716Y-91903972D02*
X148590335Y-91951591D01*
X148590335Y-91951591D02*
X148637954Y-92046829D01*
X148637954Y-92046829D02*
X148637954Y-92142067D01*
X148637954Y-92142067D02*
X148590335Y-92284924D01*
X148590335Y-92284924D02*
X148018907Y-92856353D01*
X148018907Y-92856353D02*
X148637954Y-92856353D01*
X159065933Y-119174419D02*
X158732600Y-118698228D01*
X158494505Y-119174419D02*
X158494505Y-118174419D01*
X158494505Y-118174419D02*
X158875457Y-118174419D01*
X158875457Y-118174419D02*
X158970695Y-118222038D01*
X158970695Y-118222038D02*
X159018314Y-118269657D01*
X159018314Y-118269657D02*
X159065933Y-118364895D01*
X159065933Y-118364895D02*
X159065933Y-118507752D01*
X159065933Y-118507752D02*
X159018314Y-118602990D01*
X159018314Y-118602990D02*
X158970695Y-118650609D01*
X158970695Y-118650609D02*
X158875457Y-118698228D01*
X158875457Y-118698228D02*
X158494505Y-118698228D01*
X159637362Y-118602990D02*
X159542124Y-118555371D01*
X159542124Y-118555371D02*
X159494505Y-118507752D01*
X159494505Y-118507752D02*
X159446886Y-118412514D01*
X159446886Y-118412514D02*
X159446886Y-118364895D01*
X159446886Y-118364895D02*
X159494505Y-118269657D01*
X159494505Y-118269657D02*
X159542124Y-118222038D01*
X159542124Y-118222038D02*
X159637362Y-118174419D01*
X159637362Y-118174419D02*
X159827838Y-118174419D01*
X159827838Y-118174419D02*
X159923076Y-118222038D01*
X159923076Y-118222038D02*
X159970695Y-118269657D01*
X159970695Y-118269657D02*
X160018314Y-118364895D01*
X160018314Y-118364895D02*
X160018314Y-118412514D01*
X160018314Y-118412514D02*
X159970695Y-118507752D01*
X159970695Y-118507752D02*
X159923076Y-118555371D01*
X159923076Y-118555371D02*
X159827838Y-118602990D01*
X159827838Y-118602990D02*
X159637362Y-118602990D01*
X159637362Y-118602990D02*
X159542124Y-118650609D01*
X159542124Y-118650609D02*
X159494505Y-118698228D01*
X159494505Y-118698228D02*
X159446886Y-118793466D01*
X159446886Y-118793466D02*
X159446886Y-118983942D01*
X159446886Y-118983942D02*
X159494505Y-119079180D01*
X159494505Y-119079180D02*
X159542124Y-119126800D01*
X159542124Y-119126800D02*
X159637362Y-119174419D01*
X159637362Y-119174419D02*
X159827838Y-119174419D01*
X159827838Y-119174419D02*
X159923076Y-119126800D01*
X159923076Y-119126800D02*
X159970695Y-119079180D01*
X159970695Y-119079180D02*
X160018314Y-118983942D01*
X160018314Y-118983942D02*
X160018314Y-118793466D01*
X160018314Y-118793466D02*
X159970695Y-118698228D01*
X159970695Y-118698228D02*
X159923076Y-118650609D01*
X159923076Y-118650609D02*
X159827838Y-118602990D01*
X146406160Y-117500137D02*
X146358541Y-117547757D01*
X146358541Y-117547757D02*
X146215684Y-117595376D01*
X146215684Y-117595376D02*
X146120446Y-117595376D01*
X146120446Y-117595376D02*
X145977589Y-117547757D01*
X145977589Y-117547757D02*
X145882351Y-117452518D01*
X145882351Y-117452518D02*
X145834732Y-117357280D01*
X145834732Y-117357280D02*
X145787113Y-117166804D01*
X145787113Y-117166804D02*
X145787113Y-117023947D01*
X145787113Y-117023947D02*
X145834732Y-116833471D01*
X145834732Y-116833471D02*
X145882351Y-116738233D01*
X145882351Y-116738233D02*
X145977589Y-116642995D01*
X145977589Y-116642995D02*
X146120446Y-116595376D01*
X146120446Y-116595376D02*
X146215684Y-116595376D01*
X146215684Y-116595376D02*
X146358541Y-116642995D01*
X146358541Y-116642995D02*
X146406160Y-116690614D01*
X146977589Y-117023947D02*
X146882351Y-116976328D01*
X146882351Y-116976328D02*
X146834732Y-116928709D01*
X146834732Y-116928709D02*
X146787113Y-116833471D01*
X146787113Y-116833471D02*
X146787113Y-116785852D01*
X146787113Y-116785852D02*
X146834732Y-116690614D01*
X146834732Y-116690614D02*
X146882351Y-116642995D01*
X146882351Y-116642995D02*
X146977589Y-116595376D01*
X146977589Y-116595376D02*
X147168065Y-116595376D01*
X147168065Y-116595376D02*
X147263303Y-116642995D01*
X147263303Y-116642995D02*
X147310922Y-116690614D01*
X147310922Y-116690614D02*
X147358541Y-116785852D01*
X147358541Y-116785852D02*
X147358541Y-116833471D01*
X147358541Y-116833471D02*
X147310922Y-116928709D01*
X147310922Y-116928709D02*
X147263303Y-116976328D01*
X147263303Y-116976328D02*
X147168065Y-117023947D01*
X147168065Y-117023947D02*
X146977589Y-117023947D01*
X146977589Y-117023947D02*
X146882351Y-117071566D01*
X146882351Y-117071566D02*
X146834732Y-117119185D01*
X146834732Y-117119185D02*
X146787113Y-117214423D01*
X146787113Y-117214423D02*
X146787113Y-117404899D01*
X146787113Y-117404899D02*
X146834732Y-117500137D01*
X146834732Y-117500137D02*
X146882351Y-117547757D01*
X146882351Y-117547757D02*
X146977589Y-117595376D01*
X146977589Y-117595376D02*
X147168065Y-117595376D01*
X147168065Y-117595376D02*
X147263303Y-117547757D01*
X147263303Y-117547757D02*
X147310922Y-117500137D01*
X147310922Y-117500137D02*
X147358541Y-117404899D01*
X147358541Y-117404899D02*
X147358541Y-117214423D01*
X147358541Y-117214423D02*
X147310922Y-117119185D01*
X147310922Y-117119185D02*
X147263303Y-117071566D01*
X147263303Y-117071566D02*
X147168065Y-117023947D01*
X116023498Y-107237198D02*
X116356831Y-108237198D01*
X116356831Y-108237198D02*
X116690164Y-107237198D01*
X117356831Y-107713388D02*
X117499688Y-107761007D01*
X117499688Y-107761007D02*
X117547307Y-107808626D01*
X117547307Y-107808626D02*
X117594926Y-107903864D01*
X117594926Y-107903864D02*
X117594926Y-108046721D01*
X117594926Y-108046721D02*
X117547307Y-108141959D01*
X117547307Y-108141959D02*
X117499688Y-108189579D01*
X117499688Y-108189579D02*
X117404450Y-108237198D01*
X117404450Y-108237198D02*
X117023498Y-108237198D01*
X117023498Y-108237198D02*
X117023498Y-107237198D01*
X117023498Y-107237198D02*
X117356831Y-107237198D01*
X117356831Y-107237198D02*
X117452069Y-107284817D01*
X117452069Y-107284817D02*
X117499688Y-107332436D01*
X117499688Y-107332436D02*
X117547307Y-107427674D01*
X117547307Y-107427674D02*
X117547307Y-107522912D01*
X117547307Y-107522912D02*
X117499688Y-107618150D01*
X117499688Y-107618150D02*
X117452069Y-107665769D01*
X117452069Y-107665769D02*
X117356831Y-107713388D01*
X117356831Y-107713388D02*
X117023498Y-107713388D01*
X117975879Y-107951483D02*
X118452069Y-107951483D01*
X117880641Y-108237198D02*
X118213974Y-107237198D01*
X118213974Y-107237198D02*
X118547307Y-108237198D01*
X118737784Y-107237198D02*
X119309212Y-107237198D01*
X119023498Y-108237198D02*
X119023498Y-107237198D01*
X120166355Y-108237198D02*
X119594927Y-108237198D01*
X119880641Y-108237198D02*
X119880641Y-107237198D01*
X119880641Y-107237198D02*
X119785403Y-107380055D01*
X119785403Y-107380055D02*
X119690165Y-107475293D01*
X119690165Y-107475293D02*
X119594927Y-107522912D01*
X157165891Y-114140452D02*
X156832558Y-113664261D01*
X156594463Y-114140452D02*
X156594463Y-113140452D01*
X156594463Y-113140452D02*
X156975415Y-113140452D01*
X156975415Y-113140452D02*
X157070653Y-113188071D01*
X157070653Y-113188071D02*
X157118272Y-113235690D01*
X157118272Y-113235690D02*
X157165891Y-113330928D01*
X157165891Y-113330928D02*
X157165891Y-113473785D01*
X157165891Y-113473785D02*
X157118272Y-113569023D01*
X157118272Y-113569023D02*
X157070653Y-113616642D01*
X157070653Y-113616642D02*
X156975415Y-113664261D01*
X156975415Y-113664261D02*
X156594463Y-113664261D01*
X157499225Y-113140452D02*
X158165891Y-113140452D01*
X158165891Y-113140452D02*
X157737320Y-114140452D01*
X152380641Y-94425198D02*
X152380641Y-95234721D01*
X152380641Y-95234721D02*
X152428260Y-95329959D01*
X152428260Y-95329959D02*
X152475879Y-95377579D01*
X152475879Y-95377579D02*
X152571117Y-95425198D01*
X152571117Y-95425198D02*
X152761593Y-95425198D01*
X152761593Y-95425198D02*
X152856831Y-95377579D01*
X152856831Y-95377579D02*
X152904450Y-95329959D01*
X152904450Y-95329959D02*
X152952069Y-95234721D01*
X152952069Y-95234721D02*
X152952069Y-94425198D01*
X153380641Y-94520436D02*
X153428260Y-94472817D01*
X153428260Y-94472817D02*
X153523498Y-94425198D01*
X153523498Y-94425198D02*
X153761593Y-94425198D01*
X153761593Y-94425198D02*
X153856831Y-94472817D01*
X153856831Y-94472817D02*
X153904450Y-94520436D01*
X153904450Y-94520436D02*
X153952069Y-94615674D01*
X153952069Y-94615674D02*
X153952069Y-94710912D01*
X153952069Y-94710912D02*
X153904450Y-94853769D01*
X153904450Y-94853769D02*
X153333022Y-95425198D01*
X153333022Y-95425198D02*
X153952069Y-95425198D01*
X156975879Y-109139959D02*
X156928260Y-109187579D01*
X156928260Y-109187579D02*
X156785403Y-109235198D01*
X156785403Y-109235198D02*
X156690165Y-109235198D01*
X156690165Y-109235198D02*
X156547308Y-109187579D01*
X156547308Y-109187579D02*
X156452070Y-109092340D01*
X156452070Y-109092340D02*
X156404451Y-108997102D01*
X156404451Y-108997102D02*
X156356832Y-108806626D01*
X156356832Y-108806626D02*
X156356832Y-108663769D01*
X156356832Y-108663769D02*
X156404451Y-108473293D01*
X156404451Y-108473293D02*
X156452070Y-108378055D01*
X156452070Y-108378055D02*
X156547308Y-108282817D01*
X156547308Y-108282817D02*
X156690165Y-108235198D01*
X156690165Y-108235198D02*
X156785403Y-108235198D01*
X156785403Y-108235198D02*
X156928260Y-108282817D01*
X156928260Y-108282817D02*
X156975879Y-108330436D01*
X157452070Y-109235198D02*
X157642546Y-109235198D01*
X157642546Y-109235198D02*
X157737784Y-109187579D01*
X157737784Y-109187579D02*
X157785403Y-109139959D01*
X157785403Y-109139959D02*
X157880641Y-108997102D01*
X157880641Y-108997102D02*
X157928260Y-108806626D01*
X157928260Y-108806626D02*
X157928260Y-108425674D01*
X157928260Y-108425674D02*
X157880641Y-108330436D01*
X157880641Y-108330436D02*
X157833022Y-108282817D01*
X157833022Y-108282817D02*
X157737784Y-108235198D01*
X157737784Y-108235198D02*
X157547308Y-108235198D01*
X157547308Y-108235198D02*
X157452070Y-108282817D01*
X157452070Y-108282817D02*
X157404451Y-108330436D01*
X157404451Y-108330436D02*
X157356832Y-108425674D01*
X157356832Y-108425674D02*
X157356832Y-108663769D01*
X157356832Y-108663769D02*
X157404451Y-108759007D01*
X157404451Y-108759007D02*
X157452070Y-108806626D01*
X157452070Y-108806626D02*
X157547308Y-108854245D01*
X157547308Y-108854245D02*
X157737784Y-108854245D01*
X157737784Y-108854245D02*
X157833022Y-108806626D01*
X157833022Y-108806626D02*
X157880641Y-108759007D01*
X157880641Y-108759007D02*
X157928260Y-108663769D01*
X158329398Y-91329259D02*
X158234160Y-91281640D01*
X158234160Y-91281640D02*
X158138922Y-91186402D01*
X158138922Y-91186402D02*
X157996065Y-91043544D01*
X157996065Y-91043544D02*
X157900827Y-90995925D01*
X157900827Y-90995925D02*
X157805589Y-90995925D01*
X157853208Y-91234021D02*
X157757970Y-91186402D01*
X157757970Y-91186402D02*
X157662732Y-91091163D01*
X157662732Y-91091163D02*
X157615113Y-90900687D01*
X157615113Y-90900687D02*
X157615113Y-90567354D01*
X157615113Y-90567354D02*
X157662732Y-90376878D01*
X157662732Y-90376878D02*
X157757970Y-90281640D01*
X157757970Y-90281640D02*
X157853208Y-90234021D01*
X157853208Y-90234021D02*
X158043684Y-90234021D01*
X158043684Y-90234021D02*
X158138922Y-90281640D01*
X158138922Y-90281640D02*
X158234160Y-90376878D01*
X158234160Y-90376878D02*
X158281779Y-90567354D01*
X158281779Y-90567354D02*
X158281779Y-90900687D01*
X158281779Y-90900687D02*
X158234160Y-91091163D01*
X158234160Y-91091163D02*
X158138922Y-91186402D01*
X158138922Y-91186402D02*
X158043684Y-91234021D01*
X158043684Y-91234021D02*
X157853208Y-91234021D01*
X159234160Y-91234021D02*
X158662732Y-91234021D01*
X158948446Y-91234021D02*
X158948446Y-90234021D01*
X158948446Y-90234021D02*
X158853208Y-90376878D01*
X158853208Y-90376878D02*
X158757970Y-90472116D01*
X158757970Y-90472116D02*
X158662732Y-90519735D01*
X120123507Y-100875378D02*
X120790173Y-101875378D01*
X120790173Y-100875378D02*
X120123507Y-101875378D01*
X121694935Y-101875378D02*
X121123507Y-101875378D01*
X121409221Y-101875378D02*
X121409221Y-100875378D01*
X121409221Y-100875378D02*
X121313983Y-101018235D01*
X121313983Y-101018235D02*
X121218745Y-101113473D01*
X121218745Y-101113473D02*
X121123507Y-101161092D01*
X156263556Y-103242033D02*
X155930223Y-102765842D01*
X155692128Y-103242033D02*
X155692128Y-102242033D01*
X155692128Y-102242033D02*
X156073080Y-102242033D01*
X156073080Y-102242033D02*
X156168318Y-102289652D01*
X156168318Y-102289652D02*
X156215937Y-102337271D01*
X156215937Y-102337271D02*
X156263556Y-102432509D01*
X156263556Y-102432509D02*
X156263556Y-102575366D01*
X156263556Y-102575366D02*
X156215937Y-102670604D01*
X156215937Y-102670604D02*
X156168318Y-102718223D01*
X156168318Y-102718223D02*
X156073080Y-102765842D01*
X156073080Y-102765842D02*
X155692128Y-102765842D01*
X156644509Y-102337271D02*
X156692128Y-102289652D01*
X156692128Y-102289652D02*
X156787366Y-102242033D01*
X156787366Y-102242033D02*
X157025461Y-102242033D01*
X157025461Y-102242033D02*
X157120699Y-102289652D01*
X157120699Y-102289652D02*
X157168318Y-102337271D01*
X157168318Y-102337271D02*
X157215937Y-102432509D01*
X157215937Y-102432509D02*
X157215937Y-102527747D01*
X157215937Y-102527747D02*
X157168318Y-102670604D01*
X157168318Y-102670604D02*
X156596890Y-103242033D01*
X156596890Y-103242033D02*
X157215937Y-103242033D01*
X146453266Y-123305219D02*
X146453266Y-124019504D01*
X146453266Y-124019504D02*
X146405647Y-124162361D01*
X146405647Y-124162361D02*
X146310409Y-124257600D01*
X146310409Y-124257600D02*
X146167552Y-124305219D01*
X146167552Y-124305219D02*
X146072314Y-124305219D01*
X147405647Y-123305219D02*
X146929457Y-123305219D01*
X146929457Y-123305219D02*
X146881838Y-123781409D01*
X146881838Y-123781409D02*
X146929457Y-123733790D01*
X146929457Y-123733790D02*
X147024695Y-123686171D01*
X147024695Y-123686171D02*
X147262790Y-123686171D01*
X147262790Y-123686171D02*
X147358028Y-123733790D01*
X147358028Y-123733790D02*
X147405647Y-123781409D01*
X147405647Y-123781409D02*
X147453266Y-123876647D01*
X147453266Y-123876647D02*
X147453266Y-124114742D01*
X147453266Y-124114742D02*
X147405647Y-124209980D01*
X147405647Y-124209980D02*
X147358028Y-124257600D01*
X147358028Y-124257600D02*
X147262790Y-124305219D01*
X147262790Y-124305219D02*
X147024695Y-124305219D01*
X147024695Y-124305219D02*
X146929457Y-124257600D01*
X146929457Y-124257600D02*
X146881838Y-124209980D01*
D11*
%TO.C,U6*%
X154991700Y-119053600D02*
X154751700Y-118723600D01*
X155231700Y-118723600D01*
X154991700Y-119053600D01*
G36*
X154991700Y-119053600D02*
G01*
X154751700Y-118723600D01*
X155231700Y-118723600D01*
X154991700Y-119053600D01*
G37*
X156291700Y-122123600D02*
X157091700Y-122123600D01*
X156291700Y-122123600D02*
X155491700Y-122123600D01*
X156291700Y-119003600D02*
X157091700Y-119003600D01*
X156291700Y-119003600D02*
X155491700Y-119003600D01*
%TO.C,J1*%
X136775200Y-125620000D02*
X144575200Y-125620000D01*
X136775200Y-131670000D02*
X136775200Y-125620000D01*
X138125200Y-130560000D02*
X143205200Y-130560000D01*
X138125200Y-131570000D02*
X138125200Y-130560000D01*
X143205200Y-130560000D02*
X143205200Y-131570000D01*
X144575200Y-125620000D02*
X144575200Y-131670000D01*
X144575200Y-131670000D02*
X136775200Y-131670000D01*
%TO.C,C6*%
X152165267Y-122353800D02*
X151872733Y-122353800D01*
X152165267Y-121333800D02*
X151872733Y-121333800D01*
%TO.C,C5*%
X152166367Y-119657400D02*
X151873833Y-119657400D01*
X152166367Y-120677400D02*
X151873833Y-120677400D01*
%TO.C,5V_USB1*%
X113342546Y-109780379D02*
G75*
G02*
X110942546Y-109780379I-1200000J0D01*
G01*
X110942546Y-109780379D02*
G75*
G02*
X113342546Y-109780379I1200000J0D01*
G01*
%TO.C,R1*%
X125155660Y-96345110D02*
X125155660Y-95835662D01*
X126200660Y-96345110D02*
X126200660Y-95835662D01*
%TO.C,R6*%
X155043656Y-92801742D02*
X155553104Y-92801742D01*
X155043656Y-93846742D02*
X155553104Y-93846742D01*
%TO.C,R5*%
X151001824Y-89291900D02*
X150492376Y-89291900D01*
X151001824Y-90336900D02*
X150492376Y-90336900D01*
%TO.C,U5*%
X121532546Y-112440379D02*
X121532546Y-117740379D01*
X121532546Y-117740379D02*
X141972546Y-117740379D01*
X141972546Y-112440379D02*
X121532546Y-112440379D01*
X141972546Y-114090379D02*
X141972546Y-112440379D01*
X141972546Y-117740379D02*
X141972546Y-116090379D01*
X141972546Y-116090379D02*
G75*
G02*
X141972546Y-114090379I0J1000000D01*
G01*
%TO.C,D1*%
X154737387Y-105783100D02*
X154737387Y-107743100D01*
X154737387Y-107743100D02*
X155937387Y-107743100D01*
X155937387Y-105783100D02*
X155937387Y-107743100D01*
%TO.C,SW1*%
X160408444Y-117260692D02*
X160408444Y-111260692D01*
X164958444Y-111160692D02*
X162358444Y-111160692D01*
X164958444Y-117360692D02*
X162358444Y-117360692D01*
X165958444Y-109160692D02*
X166958444Y-109160692D01*
X166908444Y-117160692D02*
X166908444Y-111360692D01*
X166958444Y-109160692D02*
X166958444Y-110160692D01*
%TO.C,R3*%
X152768445Y-106789082D02*
X152258997Y-106789082D01*
X152768445Y-107834082D02*
X152258997Y-107834082D01*
%TO.C,D4*%
X157478010Y-100452906D02*
X157478010Y-101652906D01*
X159438010Y-100452906D02*
X157478010Y-100452906D01*
X159438010Y-101652906D02*
X157478010Y-101652906D01*
%TO.C,J4*%
X162532546Y-102165379D02*
X162532546Y-101715379D01*
X162532546Y-102165379D02*
X162922546Y-102165379D01*
X163232546Y-96595379D02*
X163232546Y-97245379D01*
X163232546Y-104215379D02*
X163232546Y-103555379D01*
X164962546Y-96595379D02*
X163232546Y-96595379D01*
X164962546Y-104215379D02*
X163232546Y-104215379D01*
X167532546Y-96595379D02*
X167322546Y-96595379D01*
X167532546Y-104215379D02*
X167322546Y-104215379D01*
%TO.C,R4*%
X152273978Y-105261757D02*
X152783426Y-105261757D01*
X152273978Y-106306757D02*
X152783426Y-106306757D01*
%TO.C,U3*%
X145844992Y-114154235D02*
X145844992Y-113504235D01*
X145844992Y-114154235D02*
X145844992Y-114804235D01*
X148964992Y-114154235D02*
X148964992Y-113504235D01*
X148964992Y-114154235D02*
X148964992Y-114804235D01*
X145894992Y-115316735D02*
X145564992Y-115556735D01*
X145564992Y-115076735D01*
X145894992Y-115316735D01*
G36*
X145894992Y-115316735D02*
G01*
X145564992Y-115556735D01*
X145564992Y-115076735D01*
X145894992Y-115316735D01*
G37*
%TO.C,3v3*%
X113342546Y-105280379D02*
G75*
G02*
X110942546Y-105280379I-1200000J0D01*
G01*
X110942546Y-105280379D02*
G75*
G02*
X113342546Y-105280379I1200000J0D01*
G01*
%TO.C,SW3*%
X110633764Y-101905103D02*
X110633764Y-100905103D01*
X110683764Y-93905103D02*
X110683764Y-99705103D01*
X111633764Y-101905103D02*
X110633764Y-101905103D01*
X112633764Y-93705103D02*
X115233764Y-93705103D01*
X112633764Y-99905103D02*
X115233764Y-99905103D01*
X117183764Y-93805103D02*
X117183764Y-99805103D01*
%TO.C,C11*%
X118642007Y-93816736D02*
X118642007Y-93524202D01*
X119662007Y-93816736D02*
X119662007Y-93524202D01*
%TO.C,U1*%
X127522546Y-82165379D02*
X127522546Y-88325379D01*
X127522546Y-82165379D02*
X145762546Y-82165379D01*
X127522546Y-107125379D02*
X127522546Y-107905379D01*
X127522546Y-107905379D02*
X128522546Y-107905379D01*
X145762546Y-82165379D02*
X145762546Y-88580379D01*
X145762546Y-107125379D02*
X145762546Y-107905379D01*
X145762546Y-107905379D02*
X144762546Y-107905379D01*
X127517546Y-89050379D02*
X127017546Y-89050379D01*
X127517546Y-88550379D01*
X127517546Y-89050379D01*
G36*
X127517546Y-89050379D02*
G01*
X127017546Y-89050379D01*
X127517546Y-88550379D01*
X127517546Y-89050379D01*
G37*
%TO.C,D2*%
X152833800Y-110280379D02*
X152833800Y-112240379D01*
X152833800Y-112240379D02*
X154033800Y-112240379D01*
X154033800Y-110280379D02*
X154033800Y-112240379D01*
%TO.C,C7*%
X151110331Y-112707261D02*
X151402865Y-112707261D01*
X151110331Y-113727261D02*
X151402865Y-113727261D01*
%TO.C,D6*%
X149836284Y-111074067D02*
X149836284Y-112274067D01*
X151796284Y-111074067D02*
X149836284Y-111074067D01*
X151796284Y-112274067D02*
X149836284Y-112274067D01*
%TO.C,J2*%
X122022546Y-123060379D02*
X122022546Y-137800379D01*
X122022546Y-137800379D02*
X131262546Y-137800379D01*
X123692546Y-123060379D02*
X122022546Y-123060379D01*
X131262546Y-123060379D02*
X129592546Y-123060379D01*
X131262546Y-124280379D02*
X131262546Y-123060379D01*
X131262546Y-137800379D02*
X131262546Y-129680379D01*
%TO.C,5V1*%
X119342546Y-105280379D02*
G75*
G02*
X116942546Y-105280379I-1200000J0D01*
G01*
X116942546Y-105280379D02*
G75*
G02*
X119342546Y-105280379I1200000J0D01*
G01*
%TO.C,C2*%
X122632546Y-91996612D02*
X122632546Y-92289146D01*
X123652546Y-91996612D02*
X123652546Y-92289146D01*
%TO.C,C3*%
X124632546Y-91996612D02*
X124632546Y-92289146D01*
X125652546Y-91996612D02*
X125652546Y-92289146D01*
%TO.C,D3*%
X157478010Y-98974168D02*
X157478010Y-100174168D01*
X159438010Y-98974168D02*
X157478010Y-98974168D01*
X159438010Y-100174168D02*
X157478010Y-100174168D01*
%TO.C,D5*%
X145949885Y-110773957D02*
X147909885Y-110773957D01*
X145949885Y-111973957D02*
X147909885Y-111973957D01*
X147909885Y-111973957D02*
X147909885Y-110773957D01*
%TO.C,C4*%
X152368787Y-103750511D02*
X152661321Y-103750511D01*
X152368787Y-104770511D02*
X152661321Y-104770511D01*
%TO.C,D8*%
X150420593Y-118257388D02*
X153280593Y-118257388D01*
X153280593Y-116337388D02*
X150420593Y-116337388D01*
X153280593Y-118257388D02*
X153280593Y-116337388D01*
%TO.C,C1*%
X120589174Y-93519850D02*
X120589174Y-93812384D01*
X121609174Y-93519850D02*
X121609174Y-93812384D01*
%TO.C,D7*%
X150409096Y-116082880D02*
X153269096Y-116082880D01*
X153269096Y-114162880D02*
X150409096Y-114162880D01*
X153269096Y-116082880D02*
X153269096Y-114162880D01*
%TO.C,Q2*%
X150778768Y-90827641D02*
X150128768Y-90827641D01*
X150778768Y-90827641D02*
X151428768Y-90827641D01*
X150778768Y-93947641D02*
X150128768Y-93947641D01*
X150778768Y-93947641D02*
X151428768Y-93947641D01*
X149616268Y-90877641D02*
X149376268Y-90547641D01*
X149856268Y-90547641D01*
X149616268Y-90877641D01*
G36*
X149616268Y-90877641D02*
G01*
X149376268Y-90547641D01*
X149856268Y-90547641D01*
X149616268Y-90877641D01*
G37*
%TO.C,R8*%
X157215626Y-116761638D02*
X157725074Y-116761638D01*
X157215626Y-117806638D02*
X157725074Y-117806638D01*
%TO.C,C8*%
X147821831Y-118014764D02*
X147821831Y-118307298D01*
X148841831Y-118014764D02*
X148841831Y-118307298D01*
%TO.C,VBAT1*%
X119342546Y-109780379D02*
G75*
G02*
X116942546Y-109780379I-1200000J0D01*
G01*
X116942546Y-109780379D02*
G75*
G02*
X119342546Y-109780379I1200000J0D01*
G01*
%TO.C,R7*%
X157077834Y-114593133D02*
X157587282Y-114593133D01*
X157077834Y-115638133D02*
X157587282Y-115638133D01*
%TO.C,U2*%
X150532546Y-96895379D02*
X150532546Y-96410379D01*
X150532546Y-101390379D02*
X150532546Y-100665379D01*
X151257546Y-96170379D02*
X150832546Y-96170379D01*
X151257546Y-101390379D02*
X150532546Y-101390379D01*
X155027546Y-96170379D02*
X155752546Y-96170379D01*
X155027546Y-101390379D02*
X155752546Y-101390379D01*
X155752546Y-96170379D02*
X155752546Y-96895379D01*
X155752546Y-101390379D02*
X155752546Y-100665379D01*
X150532546Y-96170379D02*
X150292546Y-95840379D01*
X150772546Y-95840379D01*
X150532546Y-96170379D01*
G36*
X150532546Y-96170379D02*
G01*
X150292546Y-95840379D01*
X150772546Y-95840379D01*
X150532546Y-96170379D01*
G37*
%TO.C,C9*%
X156632546Y-111289146D02*
X156632546Y-110996612D01*
X157652546Y-111289146D02*
X157652546Y-110996612D01*
%TO.C,Q1*%
X155272100Y-89204400D02*
X154622100Y-89204400D01*
X155272100Y-89204400D02*
X155922100Y-89204400D01*
X155272100Y-92324400D02*
X154622100Y-92324400D01*
X155272100Y-92324400D02*
X155922100Y-92324400D01*
X156674600Y-92604400D02*
X156194600Y-92604400D01*
X156434600Y-92274400D01*
X156674600Y-92604400D01*
G36*
X156674600Y-92604400D02*
G01*
X156194600Y-92604400D01*
X156434600Y-92274400D01*
X156674600Y-92604400D01*
G37*
%TO.C,X1*%
X120433031Y-98370559D02*
X121433031Y-98370559D01*
X120433031Y-100130559D02*
X121433031Y-100130559D01*
X120433031Y-100350559D02*
X120433031Y-100130559D01*
%TO.C,R2*%
X153984770Y-102257879D02*
X153475322Y-102257879D01*
X153984770Y-103302879D02*
X153475322Y-103302879D01*
%TO.C,J5*%
X147848800Y-123113000D02*
X147848800Y-135713000D01*
X147848800Y-135713000D02*
X158198800Y-135713000D01*
X158198800Y-127913000D02*
X158698800Y-128213000D01*
X158198800Y-133313000D02*
X158198800Y-127913000D01*
X158198800Y-134763000D02*
X158698800Y-135013000D01*
X158198800Y-135713000D02*
X158198800Y-134763000D01*
X158698800Y-123113000D02*
X147848800Y-123113000D01*
X158698800Y-128213000D02*
X158698800Y-123113000D01*
X158698800Y-133063000D02*
X158198800Y-133313000D01*
X158698800Y-133113000D02*
X158698800Y-133063000D01*
X158698800Y-135013000D02*
X158698800Y-133113000D01*
%TD*%
M02*
