M48
; DRILL file {KiCad 8.0.5-8.0.5-0~ubuntu24.04.1} date 2024-09-17T16:47:39-0500
; FORMAT={-:-/ absolute / inch / decimal}
; #@! TF.CreationDate,2024-09-17T16:47:39-05:00
; #@! TF.GenerationSoftware,Kicad,Pcbnew,8.0.5-8.0.5-0~ubuntu24.04.1
; #@! TF.FileFunction,Plated,1,2,PTH
FMAT,2
INCH
; #@! TA.AperFunction,Plated,PTH,ComponentDrill
T1C0.0079
; #@! TA.AperFunction,Plated,PTH,ViaDrill
T2C0.0118
; #@! TA.AperFunction,Plated,PTH,ComponentDrill
T3C0.0177
; #@! TA.AperFunction,Plated,PTH,ComponentDrill
T4C0.0315
; #@! TA.AperFunction,Plated,PTH,ComponentDrill
T5C0.0394
; #@! TA.AperFunction,Plated,PTH,ComponentDrill
T6C0.0402
; #@! TA.AperFunction,Plated,PTH,ComponentDrill
T7C0.0520
%
G90
G05
T1
X5.2655Y-3.8108
X5.2655Y-3.866
X5.293Y-3.7833
X5.293Y-3.8384
X5.293Y-3.8935
X5.3196Y-3.8108
X5.3196Y-3.866
X5.3481Y-3.7833
X5.3481Y-3.8384
X5.3481Y-3.8935
X5.3757Y-3.8108
X5.3757Y-3.866
T2
X4.4741Y-3.6528
X4.4741Y-3.9677
X4.4906Y-4.3228
X4.6907Y-3.7906
X4.7306Y-4.1448
X4.7681Y-3.7902
X4.8678Y-3.9284
X4.8857Y-3.662
X4.985Y-4.273
X5.0957Y-3.6348
X5.104Y-3.5347
X5.1561Y-4.1543
X5.1756Y-4.4568
X5.4373Y-4.1425
X5.469Y-4.585
X5.4846Y-4.4798
X5.5371Y-4.1449
X5.6158Y-3.5347
X5.7023Y-4.5302
X5.7242Y-4.2716
X5.7449Y-4.6855
X5.746Y-4.436
X5.793Y-3.7709
X5.8016Y-4.3508
X5.805Y-3.6376
X5.8521Y-3.8103
X5.8606Y-3.9188
X5.8736Y-3.8718
X5.886Y-4.732
X5.886Y-4.796
X5.9505Y-3.7709
X5.9702Y-3.5937
X5.9766Y-4.3268
X5.985Y-4.696
X6.0122Y-3.5683
X6.082Y-4.573
X6.108Y-4.3221
X6.108Y-4.3811
X6.1256Y-4.4568
X6.1822Y-3.9199
X6.1822Y-3.9785
X6.1942Y-4.2199
X6.196Y-4.749
X6.2361Y-4.5775
X6.2593Y-4.4095
X6.277Y-4.028
X6.2776Y-3.8718
X6.2838Y-4.5317
X6.3441Y-4.0034
X6.3442Y-4.1646
X6.4066Y-4.3408
X6.4066Y-4.6558
X6.5316Y-4.4205
X6.5324Y-4.5675
T4
X4.8371Y-4.3811
X4.8371Y-4.6811
X4.9371Y-4.3811
X4.9371Y-4.6811
X5.0371Y-4.3811
X5.0371Y-4.6811
X5.1371Y-4.3811
X5.1371Y-4.6811
X5.2371Y-4.3811
X5.2371Y-4.6811
X5.3371Y-4.3811
X5.3371Y-4.6811
X5.4371Y-4.3811
X5.4371Y-4.6811
X5.5371Y-4.3811
X5.5371Y-4.6811
T6
X5.438Y-5.05
X5.538Y-5.05
X5.638Y-5.05
T7
X5.9251Y-5.095
X6.122Y-5.095
T3
G00X6.5253Y-3.8122
M15
G01X6.5568Y-3.8122
M16
G05
G00X6.5568Y-4.0937
M15
G01X6.5253Y-4.0937
M16
G05
T5
G00X4.9367Y-4.8732
M15
G01X5.0351Y-4.8732
M16
G05
G00X4.9466Y-5.1173
M15
G01X5.0253Y-5.1173
M16
G05
G00X5.171Y-5.0386
M15
G01X5.171Y-4.9599
M16
G05
M30
