%TF.GenerationSoftware,KiCad,Pcbnew,8.0.5-8.0.5-0~ubuntu24.04.1*%
%TF.CreationDate,2024-09-17T16:47:34-05:00*%
%TF.ProjectId,Airboat,41697262-6f61-4742-9e6b-696361645f70,rev?*%
%TF.SameCoordinates,Original*%
%TF.FileFunction,Soldermask,Top*%
%TF.FilePolarity,Negative*%
%FSLAX46Y46*%
G04 Gerber Fmt 4.6, Leading zero omitted, Abs format (unit mm)*
G04 Created by KiCad (PCBNEW 8.0.5-8.0.5-0~ubuntu24.04.1) date 2024-09-17 16:47:34*
%MOMM*%
%LPD*%
G01*
G04 APERTURE LIST*
G04 Aperture macros list*
%AMRoundRect*
0 Rectangle with rounded corners*
0 $1 Rounding radius*
0 $2 $3 $4 $5 $6 $7 $8 $9 X,Y pos of 4 corners*
0 Add a 4 corners polygon primitive as box body*
4,1,4,$2,$3,$4,$5,$6,$7,$8,$9,$2,$3,0*
0 Add four circle primitives for the rounded corners*
1,1,$1+$1,$2,$3*
1,1,$1+$1,$4,$5*
1,1,$1+$1,$6,$7*
1,1,$1+$1,$8,$9*
0 Add four rect primitives between the rounded corners*
20,1,$1+$1,$2,$3,$4,$5,0*
20,1,$1+$1,$4,$5,$6,$7,0*
20,1,$1+$1,$6,$7,$8,$9,0*
20,1,$1+$1,$8,$9,$2,$3,0*%
G04 Aperture macros list end*
%ADD10RoundRect,0.150000X-0.512500X-0.150000X0.512500X-0.150000X0.512500X0.150000X-0.512500X0.150000X0*%
%ADD11R,1.730000X2.030000*%
%ADD12O,1.730000X2.030000*%
%ADD13RoundRect,0.237500X0.300000X0.237500X-0.300000X0.237500X-0.300000X-0.237500X0.300000X-0.237500X0*%
%ADD14C,2.000000*%
%ADD15RoundRect,0.237500X0.237500X-0.250000X0.237500X0.250000X-0.237500X0.250000X-0.237500X-0.250000X0*%
%ADD16RoundRect,0.237500X-0.250000X-0.237500X0.250000X-0.237500X0.250000X0.237500X-0.250000X0.237500X0*%
%ADD17RoundRect,0.237500X0.250000X0.237500X-0.250000X0.237500X-0.250000X-0.237500X0.250000X-0.237500X0*%
%ADD18R,1.600000X1.600000*%
%ADD19O,1.600000X1.600000*%
%ADD20RoundRect,0.150000X-0.200000X0.150000X-0.200000X-0.150000X0.200000X-0.150000X0.200000X0.150000X0*%
%ADD21R,1.400000X1.600000*%
%ADD22RoundRect,0.150000X0.150000X0.200000X-0.150000X0.200000X-0.150000X-0.200000X0.150000X-0.200000X0*%
%ADD23R,1.400000X0.400000*%
%ADD24O,1.900000X1.050000*%
%ADD25R,1.450000X1.150000*%
%ADD26R,1.900000X1.750000*%
%ADD27RoundRect,0.150000X0.150000X-0.587500X0.150000X0.587500X-0.150000X0.587500X-0.150000X-0.587500X0*%
%ADD28RoundRect,0.237500X0.237500X-0.300000X0.237500X0.300000X-0.237500X0.300000X-0.237500X-0.300000X0*%
%ADD29R,1.500000X0.900000*%
%ADD30R,0.900000X1.500000*%
%ADD31C,0.600000*%
%ADD32R,3.800000X3.800000*%
%ADD33RoundRect,0.237500X-0.300000X-0.237500X0.300000X-0.237500X0.300000X0.237500X-0.300000X0.237500X0*%
%ADD34R,4.500000X2.000000*%
%ADD35O,4.000000X2.000000*%
%ADD36O,2.000000X4.000000*%
%ADD37RoundRect,0.237500X-0.237500X0.300000X-0.237500X-0.300000X0.237500X-0.300000X0.237500X0.300000X0*%
%ADD38RoundRect,0.150000X-0.150000X-0.200000X0.150000X-0.200000X0.150000X0.200000X-0.150000X0.200000X0*%
%ADD39RoundRect,0.250000X0.325000X0.450000X-0.325000X0.450000X-0.325000X-0.450000X0.325000X-0.450000X0*%
%ADD40RoundRect,0.150000X-0.587500X-0.150000X0.587500X-0.150000X0.587500X0.150000X-0.587500X0.150000X0*%
%ADD41RoundRect,0.062500X-0.325000X-0.062500X0.325000X-0.062500X0.325000X0.062500X-0.325000X0.062500X0*%
%ADD42RoundRect,0.062500X-0.062500X-0.325000X0.062500X-0.325000X0.062500X0.325000X-0.062500X0.325000X0*%
%ADD43R,3.750000X3.750000*%
%ADD44RoundRect,0.150000X0.587500X0.150000X-0.587500X0.150000X-0.587500X-0.150000X0.587500X-0.150000X0*%
%ADD45R,1.050000X0.800000*%
%ADD46R,1.980000X3.960000*%
%ADD47O,1.980000X3.960000*%
G04 APERTURE END LIST*
D10*
%TO.C,U6*%
X157429200Y-119613600D03*
X157429200Y-121513600D03*
X155154200Y-121513600D03*
X155154200Y-120563600D03*
X155154200Y-119613600D03*
%TD*%
D11*
%TO.C,J1*%
X138125200Y-128270000D03*
D12*
X140665200Y-128270000D03*
X143205200Y-128270000D03*
%TD*%
D13*
%TO.C,C6*%
X152881500Y-121843800D03*
X151156500Y-121843800D03*
%TD*%
%TO.C,C5*%
X151157600Y-120167400D03*
X152882600Y-120167400D03*
%TD*%
D14*
%TO.C,5V_USB1*%
X112142546Y-109780379D03*
%TD*%
D15*
%TO.C,R1*%
X125678160Y-97002886D03*
X125678160Y-95177886D03*
%TD*%
D16*
%TO.C,R6*%
X154385880Y-93324242D03*
X156210880Y-93324242D03*
%TD*%
D17*
%TO.C,R5*%
X151659600Y-89814400D03*
X149834600Y-89814400D03*
%TD*%
D18*
%TO.C,U5*%
X140642546Y-111280379D03*
D19*
X138102546Y-111280379D03*
X135562546Y-111280379D03*
X133022546Y-111280379D03*
X130482546Y-111280379D03*
X127942546Y-111280379D03*
X125402546Y-111280379D03*
X122862546Y-111280379D03*
X122862546Y-118900379D03*
X125402546Y-118900379D03*
X127942546Y-118900379D03*
X130482546Y-118900379D03*
X133022546Y-118900379D03*
X135562546Y-118900379D03*
X138102546Y-118900379D03*
X140642546Y-118900379D03*
%TD*%
D20*
%TO.C,D1*%
X155337387Y-107183100D03*
X155337387Y-105783100D03*
%TD*%
D21*
%TO.C,SW1*%
X165908444Y-110260692D03*
X165908444Y-118260692D03*
X161408444Y-110260692D03*
X161408444Y-118260692D03*
%TD*%
D17*
%TO.C,R3*%
X153426221Y-107311582D03*
X151601221Y-107311582D03*
%TD*%
D22*
%TO.C,D4*%
X158038010Y-101052906D03*
X159438010Y-101052906D03*
%TD*%
D23*
%TO.C,J4*%
X163492546Y-101705379D03*
X163492546Y-101055379D03*
X163492546Y-100405379D03*
X163492546Y-99755379D03*
X163492546Y-99105379D03*
D24*
X166142546Y-103980379D03*
D25*
X163912546Y-102725379D03*
D26*
X166142546Y-101530379D03*
X166142546Y-99280379D03*
D25*
X163912546Y-98085379D03*
D24*
X166142546Y-96830379D03*
%TD*%
D16*
%TO.C,R4*%
X151616202Y-105784257D03*
X153441202Y-105784257D03*
%TD*%
D27*
%TO.C,U3*%
X146454992Y-115091735D03*
X148354992Y-115091735D03*
X147404992Y-113216735D03*
%TD*%
D14*
%TO.C,3v3*%
X112142546Y-105280379D03*
%TD*%
D21*
%TO.C,SW3*%
X111683764Y-100805103D03*
X111683764Y-92805103D03*
X116183764Y-100805103D03*
X116183764Y-92805103D03*
%TD*%
D28*
%TO.C,C11*%
X119152007Y-94532969D03*
X119152007Y-92807969D03*
%TD*%
D29*
%TO.C,U1*%
X127892546Y-89775379D03*
X127892546Y-91045379D03*
X127892546Y-92315379D03*
X127892546Y-93585379D03*
X127892546Y-94855379D03*
X127892546Y-96125379D03*
X127892546Y-97395379D03*
X127892546Y-98665379D03*
X127892546Y-99935379D03*
X127892546Y-101205379D03*
X127892546Y-102475379D03*
X127892546Y-103745379D03*
X127892546Y-105015379D03*
X127892546Y-106285379D03*
D30*
X130932546Y-107535379D03*
X132202546Y-107535379D03*
X133472546Y-107535379D03*
X134742546Y-107535379D03*
X136012546Y-107535379D03*
X137282546Y-107535379D03*
X138552546Y-107535379D03*
X139822546Y-107535379D03*
X141092546Y-107535379D03*
X142362546Y-107535379D03*
D29*
X145392546Y-106285379D03*
X145392546Y-105015379D03*
X145392546Y-103745379D03*
X145392546Y-102475379D03*
X145392546Y-101205379D03*
X145392546Y-99935379D03*
X145392546Y-98665379D03*
X145392546Y-97395379D03*
X145392546Y-96125379D03*
X145392546Y-94855379D03*
X145392546Y-93585379D03*
X145392546Y-92315379D03*
X145392546Y-91045379D03*
X145392546Y-89775379D03*
D31*
X133742546Y-96795379D03*
X133742546Y-98195379D03*
X134442546Y-96095379D03*
X134442546Y-97495379D03*
X134442546Y-98895379D03*
X135117546Y-96795379D03*
X135117546Y-98195379D03*
D32*
X135142546Y-97495379D03*
D31*
X135842546Y-96095379D03*
X135842546Y-97495379D03*
X135842546Y-98895379D03*
X136542546Y-96795379D03*
X136542546Y-98195379D03*
%TD*%
D20*
%TO.C,D2*%
X153433800Y-111680379D03*
X153433800Y-110280379D03*
%TD*%
D33*
%TO.C,C7*%
X150394098Y-113217261D03*
X152119098Y-113217261D03*
%TD*%
D22*
%TO.C,D6*%
X150396284Y-111674067D03*
X151796284Y-111674067D03*
%TD*%
D34*
%TO.C,J2*%
X126642546Y-123780379D03*
D35*
X126642546Y-129980379D03*
D36*
X131342546Y-126980379D03*
%TD*%
D14*
%TO.C,5V1*%
X118142546Y-105280379D03*
%TD*%
D37*
%TO.C,C2*%
X123142546Y-91280379D03*
X123142546Y-93005379D03*
%TD*%
%TO.C,C3*%
X125142546Y-91280379D03*
X125142546Y-93005379D03*
%TD*%
D22*
%TO.C,D3*%
X158038010Y-99574168D03*
X159438010Y-99574168D03*
%TD*%
D38*
%TO.C,D5*%
X147349885Y-111373957D03*
X145949885Y-111373957D03*
%TD*%
D33*
%TO.C,C4*%
X151652554Y-104260511D03*
X153377554Y-104260511D03*
%TD*%
D39*
%TO.C,D8*%
X152445593Y-117297388D03*
X150395593Y-117297388D03*
%TD*%
D37*
%TO.C,C1*%
X121099174Y-92803617D03*
X121099174Y-94528617D03*
%TD*%
D39*
%TO.C,D7*%
X152434096Y-115122880D03*
X150384096Y-115122880D03*
%TD*%
D40*
%TO.C,Q2*%
X149841268Y-91437641D03*
X149841268Y-93337641D03*
X151716268Y-92387641D03*
%TD*%
D16*
%TO.C,R8*%
X156557850Y-117284138D03*
X158382850Y-117284138D03*
%TD*%
D37*
%TO.C,C8*%
X148331831Y-117298531D03*
X148331831Y-119023531D03*
%TD*%
D14*
%TO.C,VBAT1*%
X118142546Y-109780379D03*
%TD*%
D16*
%TO.C,R7*%
X156420058Y-115115633D03*
X158245058Y-115115633D03*
%TD*%
D41*
%TO.C,U2*%
X150680046Y-97280379D03*
X150680046Y-97780379D03*
X150680046Y-98280379D03*
X150680046Y-98780379D03*
X150680046Y-99280379D03*
X150680046Y-99780379D03*
X150680046Y-100280379D03*
D42*
X151642546Y-101242879D03*
X152142546Y-101242879D03*
X152642546Y-101242879D03*
X153142546Y-101242879D03*
X153642546Y-101242879D03*
X154142546Y-101242879D03*
X154642546Y-101242879D03*
D41*
X155605046Y-100280379D03*
X155605046Y-99780379D03*
X155605046Y-99280379D03*
X155605046Y-98780379D03*
X155605046Y-98280379D03*
X155605046Y-97780379D03*
X155605046Y-97280379D03*
D42*
X154642546Y-96317879D03*
X154142546Y-96317879D03*
X153642546Y-96317879D03*
X153142546Y-96317879D03*
X152642546Y-96317879D03*
X152142546Y-96317879D03*
X151642546Y-96317879D03*
D43*
X153142546Y-98780379D03*
%TD*%
D28*
%TO.C,C9*%
X157142546Y-112005379D03*
X157142546Y-110280379D03*
%TD*%
D44*
%TO.C,Q1*%
X156209600Y-91714400D03*
X156209600Y-89814400D03*
X154334600Y-90764400D03*
%TD*%
D45*
%TO.C,X1*%
X119608031Y-99850559D03*
X122258031Y-99850559D03*
X122258031Y-98650559D03*
X119608031Y-98650559D03*
%TD*%
D17*
%TO.C,R2*%
X154642546Y-102780379D03*
X152817546Y-102780379D03*
%TD*%
D46*
%TO.C,J5*%
X150498800Y-129413000D03*
D47*
X155498800Y-129413000D03*
%TD*%
M02*
