%TF.GenerationSoftware,KiCad,Pcbnew,8.0.5-8.0.5-0~ubuntu24.04.1*%
%TF.CreationDate,2024-09-17T16:47:33-05:00*%
%TF.ProjectId,Airboat,41697262-6f61-4742-9e6b-696361645f70,rev?*%
%TF.SameCoordinates,Original*%
%TF.FileFunction,Copper,L2,Bot*%
%TF.FilePolarity,Positive*%
%FSLAX46Y46*%
G04 Gerber Fmt 4.6, Leading zero omitted, Abs format (unit mm)*
G04 Created by KiCad (PCBNEW 8.0.5-8.0.5-0~ubuntu24.04.1) date 2024-09-17 16:47:33*
%MOMM*%
%LPD*%
G01*
G04 APERTURE LIST*
%TA.AperFunction,ComponentPad*%
%ADD10R,1.730000X2.030000*%
%TD*%
%TA.AperFunction,ComponentPad*%
%ADD11O,1.730000X2.030000*%
%TD*%
%TA.AperFunction,ComponentPad*%
%ADD12R,1.600000X1.600000*%
%TD*%
%TA.AperFunction,ComponentPad*%
%ADD13O,1.600000X1.600000*%
%TD*%
%TA.AperFunction,ComponentPad*%
%ADD14O,1.900000X1.050000*%
%TD*%
%TA.AperFunction,HeatsinkPad*%
%ADD15C,0.600000*%
%TD*%
%TA.AperFunction,ComponentPad*%
%ADD16R,4.500000X2.000000*%
%TD*%
%TA.AperFunction,ComponentPad*%
%ADD17O,4.000000X2.000000*%
%TD*%
%TA.AperFunction,ComponentPad*%
%ADD18O,2.000000X4.000000*%
%TD*%
%TA.AperFunction,ComponentPad*%
%ADD19R,1.980000X3.960000*%
%TD*%
%TA.AperFunction,ComponentPad*%
%ADD20O,1.980000X3.960000*%
%TD*%
%TA.AperFunction,ViaPad*%
%ADD21C,0.600000*%
%TD*%
%TA.AperFunction,Conductor*%
%ADD22C,0.200000*%
%TD*%
%TA.AperFunction,Conductor*%
%ADD23C,0.500000*%
%TD*%
G04 APERTURE END LIST*
D10*
%TO.P,J1,1,Pin_1*%
%TO.N,+5V*%
X138125200Y-128270000D03*
D11*
%TO.P,J1,2,Pin_2*%
%TO.N,GND*%
X140665200Y-128270000D03*
%TO.P,J1,3,Pin_3*%
%TO.N,RUDDER_SIG*%
X143205200Y-128270000D03*
%TD*%
D12*
%TO.P,U5,1,EN1\u002C2*%
%TO.N,FAN_PWM*%
X140642546Y-111280379D03*
D13*
%TO.P,U5,2,1A*%
%TO.N,FAN_F*%
X138102546Y-111280379D03*
%TO.P,U5,3,1Y*%
%TO.N,FAN_POS*%
X135562546Y-111280379D03*
%TO.P,U5,4,GND*%
%TO.N,GND*%
X133022546Y-111280379D03*
%TO.P,U5,5,GND*%
X130482546Y-111280379D03*
%TO.P,U5,6,2Y*%
%TO.N,FAN_NEG*%
X127942546Y-111280379D03*
%TO.P,U5,7,2A*%
%TO.N,FAN_B*%
X125402546Y-111280379D03*
%TO.P,U5,8,VCC2*%
%TO.N,+BATT*%
X122862546Y-111280379D03*
%TO.P,U5,9,EN3\u002C4*%
%TO.N,unconnected-(U5-EN3\u002C4-Pad9)*%
X122862546Y-118900379D03*
%TO.P,U5,10,3A*%
%TO.N,unconnected-(U5-3A-Pad10)*%
X125402546Y-118900379D03*
%TO.P,U5,11,3Y*%
%TO.N,unconnected-(U5-3Y-Pad11)*%
X127942546Y-118900379D03*
%TO.P,U5,12,GND*%
%TO.N,GND*%
X130482546Y-118900379D03*
%TO.P,U5,13,GND*%
X133022546Y-118900379D03*
%TO.P,U5,14,4Y*%
%TO.N,unconnected-(U5-4Y-Pad14)*%
X135562546Y-118900379D03*
%TO.P,U5,15,4A*%
%TO.N,unconnected-(U5-4A-Pad15)*%
X138102546Y-118900379D03*
%TO.P,U5,16,VCC1*%
%TO.N,+BATT*%
X140642546Y-118900379D03*
%TD*%
D14*
%TO.P,J4,6,Shield*%
%TO.N,GND*%
X166142546Y-103980379D03*
X166142546Y-96830379D03*
%TD*%
D15*
%TO.P,U1,39,GND*%
%TO.N,GND*%
X133742546Y-96795379D03*
X133742546Y-98195379D03*
X134442546Y-96095379D03*
X134442546Y-97495379D03*
X134442546Y-98895379D03*
X135117546Y-96795379D03*
X135117546Y-98195379D03*
X135842546Y-96095379D03*
X135842546Y-97495379D03*
X135842546Y-98895379D03*
X136542546Y-96795379D03*
X136542546Y-98195379D03*
%TD*%
D16*
%TO.P,J2,1*%
%TO.N,+BATT*%
X126642546Y-123780379D03*
D17*
%TO.P,J2,2*%
%TO.N,GND*%
X126642546Y-129980379D03*
D18*
%TO.P,J2,3*%
X131342546Y-126980379D03*
%TD*%
D19*
%TO.P,J5,1,Pin_1*%
%TO.N,FAN_NEG*%
X150498800Y-129413000D03*
D20*
%TO.P,J5,2,Pin_2*%
%TO.N,FAN_POS*%
X155498800Y-129413000D03*
%TD*%
D21*
%TO.N,+BATT*%
X138912600Y-116459000D03*
X145948400Y-112674400D03*
%TO.N,RUDDER_SIG*%
X126619000Y-108534200D03*
%TO.N,GND*%
X149504400Y-121818400D03*
X149504400Y-120192800D03*
%TO.N,+V_MCU*%
X152019000Y-119278400D03*
X154482800Y-116154200D03*
%TO.N,GND*%
X157378400Y-120624600D03*
X113642546Y-92780379D03*
X165922632Y-116015410D03*
X157028939Y-99564375D03*
X165901643Y-112280492D03*
X123642546Y-99780379D03*
X155590222Y-113203435D03*
X157028939Y-101052906D03*
X130964204Y-105519772D03*
X145921237Y-119010942D03*
X113642546Y-100780379D03*
X144838212Y-115068057D03*
X157332363Y-107185169D03*
X124097360Y-93013539D03*
X129642546Y-89780379D03*
X159607582Y-115105222D03*
X158395763Y-116269744D03*
X158985406Y-112001468D03*
X142642546Y-89780379D03*
X148642546Y-96780379D03*
X121110601Y-96271221D03*
X119142546Y-96280379D03*
%TO.N,+V_MCU*%
X120158346Y-105277779D03*
X147361746Y-110510179D03*
%TO.N,IO0*%
X155142546Y-109780379D03*
X145393473Y-108498781D03*
X162728746Y-110256179D03*
X147142546Y-95780379D03*
X152709632Y-90636074D03*
X162728746Y-118257179D03*
%TO.N,EN*%
X147446773Y-92393778D03*
X129430469Y-92322903D03*
%TO.N,+VBUS*%
X161142546Y-105780379D03*
X155142546Y-111280379D03*
X161141161Y-101687483D03*
%TO.N,+5_USB*%
X151806746Y-109900579D03*
X114062346Y-109798979D03*
%TO.N,USB_DP*%
X159452146Y-98343579D03*
X149190546Y-98343579D03*
%TO.N,USB_DM*%
X159434939Y-102311646D03*
X148860346Y-99537379D03*
%TO.N,DTR*%
X151142546Y-95780379D03*
X151642546Y-91280379D03*
%TO.N,FAN_F*%
X138106346Y-105219003D03*
%TO.N,FAN_PWM*%
X140642546Y-105280379D03*
%TO.N,FAN_POS*%
X139309946Y-113786779D03*
%TO.N,FAN_NEG*%
X131461346Y-113202579D03*
%TD*%
D22*
%TO.N,+BATT*%
X138709946Y-116256346D02*
X138912600Y-116459000D01*
X145948400Y-112674400D02*
X139573796Y-112674400D01*
X138709946Y-113538250D02*
X138709946Y-116256346D01*
X139573796Y-112674400D02*
X138709946Y-113538250D01*
%TO.N,RUDDER_SIG*%
X126619000Y-108534200D02*
X126619000Y-116021198D01*
X126619000Y-116021198D02*
X129336800Y-118738998D01*
X129336800Y-118738998D02*
X129336800Y-119310268D01*
X129336800Y-119310268D02*
X135324732Y-125298200D01*
X135324732Y-125298200D02*
X140233400Y-125298200D01*
X140233400Y-125298200D02*
X143205200Y-128270000D01*
%TO.N,+V_MCU*%
X152019000Y-118618000D02*
X152019000Y-119278400D01*
X154482800Y-116154200D02*
X152019000Y-118618000D01*
D23*
%TO.N,FAN_POS*%
X139309946Y-113786779D02*
X149876346Y-124353179D01*
X149876346Y-124353179D02*
X152568746Y-124353179D01*
X152568746Y-124353179D02*
X155498800Y-127283233D01*
X155498800Y-127283233D02*
X155498800Y-129413000D01*
%TO.N,FAN_NEG*%
X150498800Y-129413000D02*
X150498800Y-128401633D01*
X134312546Y-117650379D02*
X131461346Y-114799179D01*
X150498800Y-128401633D02*
X146094746Y-123997579D01*
X136852546Y-119558979D02*
X136852546Y-118422612D01*
X146094746Y-123997579D02*
X141291146Y-123997579D01*
X141291146Y-123997579D02*
X136852546Y-119558979D01*
X136852546Y-118422612D02*
X136080313Y-117650379D01*
X136080313Y-117650379D02*
X134312546Y-117650379D01*
X131461346Y-114799179D02*
X131461346Y-113202579D01*
D22*
%TO.N,+V_MCU*%
X121086467Y-104349658D02*
X141150425Y-104349658D01*
X141150425Y-104349658D02*
X143551746Y-106750979D01*
X143548646Y-109433790D02*
X144625035Y-110510179D01*
X143551746Y-106903379D02*
X143548646Y-106906479D01*
X144625035Y-110510179D02*
X147361746Y-110510179D01*
X143551746Y-106750979D02*
X143551746Y-106903379D01*
X143548646Y-106906479D02*
X143548646Y-109433790D01*
X120158346Y-105277779D02*
X121086467Y-104349658D01*
%TO.N,IO0*%
X147142546Y-94931850D02*
X151438322Y-90636074D01*
X145675071Y-108780379D02*
X145393473Y-108498781D01*
X154142546Y-108780379D02*
X145675071Y-108780379D01*
X151438322Y-90636074D02*
X152709632Y-90636074D01*
X147142546Y-95780379D02*
X147142546Y-94931850D01*
X162728746Y-110256179D02*
X162728746Y-118257179D01*
X155142546Y-109780379D02*
X154142546Y-108780379D01*
%TO.N,EN*%
X147446773Y-92393778D02*
X129501344Y-92393778D01*
X129501344Y-92393778D02*
X129430469Y-92322903D01*
%TO.N,+VBUS*%
X161142546Y-105780379D02*
X155642546Y-111280379D01*
X161141161Y-101687483D02*
X161141161Y-105778994D01*
X155642546Y-111280379D02*
X155142546Y-111280379D01*
X161141161Y-105778994D02*
X161142546Y-105780379D01*
%TO.N,+5_USB*%
X114062346Y-109798979D02*
X119911667Y-103949658D01*
X145913946Y-109900579D02*
X151806746Y-109900579D01*
X144793473Y-107383106D02*
X144793473Y-108780106D01*
X141360025Y-103949658D02*
X144793473Y-107383106D01*
X144793473Y-108780106D02*
X145913946Y-109900579D01*
X119911667Y-103949658D02*
X141360025Y-103949658D01*
%TO.N,USB_DP*%
X149190546Y-98343579D02*
X159452146Y-98343579D01*
%TO.N,USB_DM*%
X148860346Y-99537379D02*
X151634613Y-102311646D01*
X151634613Y-102311646D02*
X159434939Y-102311646D01*
%TO.N,DTR*%
X151642546Y-95280379D02*
X151642546Y-91280379D01*
X151142546Y-95780379D02*
X151642546Y-95280379D01*
%TO.N,FAN_F*%
X138102546Y-105222803D02*
X138102546Y-111280379D01*
X138106346Y-105219003D02*
X138102546Y-105222803D01*
%TO.N,FAN_PWM*%
X140642546Y-105280379D02*
X140642546Y-111280379D01*
%TD*%
%TA.AperFunction,Conductor*%
%TO.N,GND*%
G36*
X112585585Y-67300564D02*
G01*
X112631340Y-67353368D01*
X112642546Y-67404879D01*
X112642546Y-88475379D01*
X160642546Y-88475379D01*
X160642546Y-67404879D01*
X160662231Y-67337840D01*
X160715035Y-67292085D01*
X160766546Y-67280879D01*
X167518046Y-67280879D01*
X167585085Y-67300564D01*
X167630840Y-67353368D01*
X167642046Y-67404879D01*
X167642046Y-96184755D01*
X167622361Y-96251794D01*
X167569557Y-96297549D01*
X167500399Y-96307493D01*
X167436843Y-96278468D01*
X167414944Y-96253646D01*
X167363716Y-96176979D01*
X167363713Y-96176975D01*
X167220949Y-96034211D01*
X167220945Y-96034208D01*
X167053072Y-95922038D01*
X167053059Y-95922031D01*
X166866529Y-95844769D01*
X166866520Y-95844766D01*
X166668504Y-95805379D01*
X166392546Y-95805379D01*
X166392546Y-96605379D01*
X165697791Y-96605379D01*
X165615094Y-96639633D01*
X165551800Y-96702927D01*
X165517546Y-96785624D01*
X165517546Y-96875134D01*
X165551800Y-96957831D01*
X165615094Y-97021125D01*
X165697791Y-97055379D01*
X166392546Y-97055379D01*
X166392546Y-97855379D01*
X166668501Y-97855379D01*
X166668504Y-97855378D01*
X166866520Y-97815991D01*
X166866529Y-97815988D01*
X167053059Y-97738726D01*
X167053072Y-97738719D01*
X167220945Y-97626549D01*
X167220949Y-97626546D01*
X167363713Y-97483782D01*
X167363719Y-97483774D01*
X167414944Y-97407112D01*
X167468556Y-97362306D01*
X167537881Y-97353599D01*
X167600908Y-97383753D01*
X167637628Y-97443196D01*
X167642046Y-97476002D01*
X167642046Y-103334755D01*
X167622361Y-103401794D01*
X167569557Y-103447549D01*
X167500399Y-103457493D01*
X167436843Y-103428468D01*
X167414944Y-103403646D01*
X167363716Y-103326979D01*
X167363713Y-103326975D01*
X167220949Y-103184211D01*
X167220945Y-103184208D01*
X167053072Y-103072038D01*
X167053059Y-103072031D01*
X166866529Y-102994769D01*
X166866520Y-102994766D01*
X166668504Y-102955379D01*
X166392546Y-102955379D01*
X166392546Y-103755379D01*
X165697791Y-103755379D01*
X165615094Y-103789633D01*
X165551800Y-103852927D01*
X165517546Y-103935624D01*
X165517546Y-104025134D01*
X165551800Y-104107831D01*
X165615094Y-104171125D01*
X165697791Y-104205379D01*
X166392546Y-104205379D01*
X166392546Y-105005379D01*
X166668501Y-105005379D01*
X166668504Y-105005378D01*
X166866520Y-104965991D01*
X166866529Y-104965988D01*
X167053059Y-104888726D01*
X167053072Y-104888719D01*
X167220945Y-104776549D01*
X167220949Y-104776546D01*
X167363713Y-104633782D01*
X167363719Y-104633774D01*
X167414944Y-104557112D01*
X167468556Y-104512306D01*
X167537881Y-104503599D01*
X167600908Y-104533753D01*
X167637628Y-104593196D01*
X167642046Y-104626002D01*
X167642046Y-119155879D01*
X167622361Y-119222918D01*
X167569557Y-119268673D01*
X167518046Y-119279879D01*
X162959559Y-119279879D01*
X162892520Y-119260194D01*
X162846765Y-119207390D01*
X162836821Y-119138232D01*
X162865846Y-119074676D01*
X162918604Y-119038838D01*
X163078265Y-118982969D01*
X163078264Y-118982969D01*
X163078268Y-118982968D01*
X163231008Y-118886995D01*
X163358562Y-118759441D01*
X163454535Y-118606701D01*
X163514114Y-118436434D01*
X163518120Y-118400879D01*
X163534311Y-118257182D01*
X163534311Y-118257175D01*
X163514115Y-118077929D01*
X163514114Y-118077924D01*
X163454534Y-117907655D01*
X163411810Y-117839661D01*
X163358562Y-117754917D01*
X163358560Y-117754915D01*
X163358559Y-117754913D01*
X163356296Y-117752075D01*
X163355405Y-117749894D01*
X163354857Y-117749021D01*
X163355010Y-117748924D01*
X163329890Y-117687388D01*
X163329246Y-117674766D01*
X163329246Y-110838591D01*
X163348931Y-110771552D01*
X163356301Y-110761276D01*
X163358556Y-110758446D01*
X163358562Y-110758441D01*
X163454535Y-110605701D01*
X163514114Y-110435434D01*
X163514444Y-110432506D01*
X163534311Y-110256182D01*
X163534311Y-110256175D01*
X163514115Y-110076929D01*
X163514114Y-110076924D01*
X163505967Y-110053640D01*
X163454535Y-109906657D01*
X163450713Y-109900575D01*
X163389093Y-109802507D01*
X163358562Y-109753917D01*
X163231008Y-109626363D01*
X163220442Y-109619724D01*
X163078269Y-109530390D01*
X162908000Y-109470810D01*
X162907995Y-109470809D01*
X162728750Y-109450614D01*
X162728742Y-109450614D01*
X162549496Y-109470809D01*
X162549491Y-109470810D01*
X162379222Y-109530390D01*
X162226483Y-109626363D01*
X162098930Y-109753916D01*
X162002957Y-109906655D01*
X161943377Y-110076924D01*
X161943376Y-110076929D01*
X161923181Y-110256175D01*
X161923181Y-110256182D01*
X161943376Y-110435428D01*
X161943377Y-110435433D01*
X162002957Y-110605702D01*
X162055567Y-110689429D01*
X162098921Y-110758427D01*
X162098931Y-110758442D01*
X162101191Y-110761276D01*
X162102080Y-110763454D01*
X162102635Y-110764337D01*
X162102480Y-110764434D01*
X162127601Y-110825962D01*
X162128246Y-110838591D01*
X162128246Y-117674766D01*
X162108561Y-117741805D01*
X162101196Y-117752075D01*
X162098932Y-117754913D01*
X162002957Y-117907655D01*
X161943377Y-118077924D01*
X161943376Y-118077929D01*
X161923181Y-118257175D01*
X161923181Y-118257182D01*
X161943376Y-118436428D01*
X161943377Y-118436433D01*
X162002957Y-118606702D01*
X162089132Y-118743847D01*
X162098930Y-118759441D01*
X162226484Y-118886995D01*
X162293142Y-118928879D01*
X162379226Y-118982969D01*
X162538888Y-119038838D01*
X162595664Y-119079559D01*
X162621411Y-119144512D01*
X162607955Y-119213074D01*
X162559567Y-119263476D01*
X162497933Y-119279879D01*
X159076654Y-119279879D01*
X158949358Y-119313987D01*
X158835232Y-119379879D01*
X158835229Y-119379881D01*
X158742048Y-119473062D01*
X158742046Y-119473065D01*
X158676154Y-119587191D01*
X158642046Y-119714487D01*
X158642046Y-131655879D01*
X158622361Y-131722918D01*
X158569557Y-131768673D01*
X158518046Y-131779879D01*
X156521113Y-131779879D01*
X156454074Y-131760194D01*
X156408319Y-131707390D01*
X156398375Y-131638232D01*
X156427400Y-131574676D01*
X156448228Y-131555561D01*
X156469789Y-131539895D01*
X156469787Y-131539895D01*
X156469796Y-131539890D01*
X156635690Y-131373996D01*
X156773590Y-131184192D01*
X156880101Y-130975153D01*
X156952599Y-130752026D01*
X156989300Y-130520305D01*
X156989300Y-128305695D01*
X156952599Y-128073974D01*
X156880101Y-127850847D01*
X156773590Y-127641808D01*
X156740185Y-127595830D01*
X156635695Y-127452010D01*
X156635691Y-127452005D01*
X156469794Y-127286108D01*
X156469789Y-127286104D01*
X156279995Y-127148212D01*
X156277445Y-127146649D01*
X156276678Y-127145802D01*
X156276051Y-127145346D01*
X156276146Y-127145214D01*
X156230568Y-127094838D01*
X156222296Y-127070131D01*
X156222227Y-127070153D01*
X156221486Y-127067711D01*
X156220614Y-127065108D01*
X156220458Y-127064320D01*
X156199065Y-127012673D01*
X156163887Y-126927744D01*
X156163880Y-126927731D01*
X156081752Y-126804818D01*
X156031283Y-126754349D01*
X155977216Y-126700282D01*
X155821129Y-126544195D01*
X153047167Y-123770231D01*
X153047160Y-123770225D01*
X152973475Y-123720991D01*
X152973475Y-123720992D01*
X152924237Y-123688092D01*
X152787663Y-123631522D01*
X152787653Y-123631519D01*
X152642666Y-123602679D01*
X152642664Y-123602679D01*
X150238575Y-123602679D01*
X150171536Y-123582994D01*
X150150894Y-123566360D01*
X145862930Y-119278396D01*
X151213435Y-119278396D01*
X151213435Y-119278403D01*
X151233630Y-119457649D01*
X151233631Y-119457654D01*
X151293211Y-119627923D01*
X151347603Y-119714487D01*
X151389184Y-119780662D01*
X151516738Y-119908216D01*
X151669478Y-120004189D01*
X151839745Y-120063768D01*
X151839750Y-120063769D01*
X152018996Y-120083965D01*
X152019000Y-120083965D01*
X152019004Y-120083965D01*
X152198249Y-120063769D01*
X152198252Y-120063768D01*
X152198255Y-120063768D01*
X152368522Y-120004189D01*
X152521262Y-119908216D01*
X152648816Y-119780662D01*
X152744789Y-119627922D01*
X152804368Y-119457655D01*
X152804369Y-119457649D01*
X152824565Y-119278403D01*
X152824565Y-119278396D01*
X152804369Y-119099150D01*
X152804366Y-119099137D01*
X152744790Y-118928879D01*
X152725073Y-118897499D01*
X152706073Y-118830262D01*
X152726441Y-118763427D01*
X152742381Y-118743852D01*
X154501335Y-116984898D01*
X154562656Y-116951415D01*
X154575111Y-116949363D01*
X154662055Y-116939568D01*
X154832322Y-116879989D01*
X154985062Y-116784016D01*
X155112616Y-116656462D01*
X155208589Y-116503722D01*
X155268168Y-116333455D01*
X155285764Y-116177285D01*
X155288365Y-116154203D01*
X155288365Y-116154196D01*
X155268169Y-115974950D01*
X155268168Y-115974945D01*
X155217163Y-115829182D01*
X155208589Y-115804678D01*
X155112616Y-115651938D01*
X154985062Y-115524384D01*
X154832323Y-115428411D01*
X154662054Y-115368831D01*
X154662049Y-115368830D01*
X154482804Y-115348635D01*
X154482796Y-115348635D01*
X154303550Y-115368830D01*
X154303545Y-115368831D01*
X154133276Y-115428411D01*
X153980537Y-115524384D01*
X153852984Y-115651937D01*
X153757010Y-115804678D01*
X153697430Y-115974950D01*
X153687637Y-116061868D01*
X153660570Y-116126282D01*
X153652098Y-116135665D01*
X151650286Y-118137478D01*
X151538481Y-118249282D01*
X151538479Y-118249284D01*
X151519265Y-118282565D01*
X151500272Y-118315463D01*
X151459423Y-118386215D01*
X151418499Y-118538943D01*
X151418499Y-118538945D01*
X151418499Y-118695989D01*
X151398814Y-118763028D01*
X151391445Y-118773303D01*
X151389184Y-118776137D01*
X151293211Y-118928876D01*
X151233631Y-119099145D01*
X151233630Y-119099150D01*
X151213435Y-119278396D01*
X145862930Y-119278396D01*
X140071115Y-113486581D01*
X140037630Y-113425258D01*
X140042614Y-113355566D01*
X140084486Y-113299633D01*
X140149950Y-113275216D01*
X140158796Y-113274900D01*
X145365988Y-113274900D01*
X145433027Y-113294585D01*
X145443303Y-113301955D01*
X145446136Y-113304214D01*
X145446138Y-113304216D01*
X145598878Y-113400189D01*
X145766107Y-113458705D01*
X145769145Y-113459768D01*
X145769150Y-113459769D01*
X145948396Y-113479965D01*
X145948400Y-113479965D01*
X145948404Y-113479965D01*
X146127649Y-113459769D01*
X146127652Y-113459768D01*
X146127655Y-113459768D01*
X146297922Y-113400189D01*
X146450662Y-113304216D01*
X146578216Y-113176662D01*
X146674189Y-113023922D01*
X146733768Y-112853655D01*
X146733769Y-112853649D01*
X146753965Y-112674403D01*
X146753965Y-112674396D01*
X146733769Y-112495150D01*
X146733768Y-112495145D01*
X146687078Y-112361714D01*
X146674189Y-112324878D01*
X146578216Y-112172138D01*
X146450662Y-112044584D01*
X146297923Y-111948611D01*
X146127654Y-111889031D01*
X146127649Y-111889030D01*
X145948404Y-111868835D01*
X145948396Y-111868835D01*
X145769150Y-111889030D01*
X145769145Y-111889031D01*
X145598876Y-111948611D01*
X145446136Y-112044585D01*
X145443303Y-112046845D01*
X145441124Y-112047734D01*
X145440242Y-112048289D01*
X145440144Y-112048134D01*
X145378617Y-112073255D01*
X145365988Y-112073900D01*
X142067046Y-112073900D01*
X142000007Y-112054215D01*
X141954252Y-112001411D01*
X141943046Y-111949900D01*
X141943045Y-110432508D01*
X141943044Y-110432502D01*
X141942645Y-110428794D01*
X141936637Y-110372896D01*
X141909911Y-110301241D01*
X141886343Y-110238050D01*
X141886339Y-110238043D01*
X141800093Y-110122834D01*
X141800090Y-110122831D01*
X141684881Y-110036585D01*
X141684874Y-110036581D01*
X141550028Y-109986287D01*
X141550029Y-109986287D01*
X141490429Y-109979880D01*
X141490427Y-109979879D01*
X141490419Y-109979879D01*
X141490411Y-109979879D01*
X141367046Y-109979879D01*
X141300007Y-109960194D01*
X141254252Y-109907390D01*
X141243046Y-109855879D01*
X141243046Y-105862791D01*
X141262731Y-105795752D01*
X141270101Y-105785476D01*
X141272356Y-105782646D01*
X141272362Y-105782641D01*
X141367840Y-105630687D01*
X141420172Y-105584399D01*
X141489226Y-105573750D01*
X141553074Y-105602125D01*
X141560513Y-105608981D01*
X142911827Y-106960295D01*
X142945312Y-107021618D01*
X142948146Y-107047976D01*
X142948146Y-109347120D01*
X142948145Y-109347138D01*
X142948145Y-109512844D01*
X142948144Y-109512844D01*
X142989069Y-109665575D01*
X143018004Y-109715690D01*
X143018005Y-109715694D01*
X143018006Y-109715694D01*
X143066091Y-109798982D01*
X143068125Y-109802504D01*
X143068127Y-109802507D01*
X143186995Y-109921375D01*
X143187001Y-109921380D01*
X144140174Y-110874553D01*
X144140184Y-110874564D01*
X144144514Y-110878894D01*
X144144515Y-110878895D01*
X144256319Y-110990699D01*
X144343130Y-111040818D01*
X144343132Y-111040820D01*
X144365427Y-111053692D01*
X144393250Y-111069756D01*
X144545978Y-111110680D01*
X144545981Y-111110680D01*
X144711688Y-111110680D01*
X144711704Y-111110679D01*
X146779334Y-111110679D01*
X146846373Y-111130364D01*
X146856649Y-111137734D01*
X146859482Y-111139993D01*
X146859484Y-111139995D01*
X147012224Y-111235968D01*
X147139146Y-111280380D01*
X147182491Y-111295547D01*
X147182496Y-111295548D01*
X147361742Y-111315744D01*
X147361746Y-111315744D01*
X147361750Y-111315744D01*
X147540995Y-111295548D01*
X147540998Y-111295547D01*
X147541001Y-111295547D01*
X147711268Y-111235968D01*
X147864008Y-111139995D01*
X147991562Y-111012441D01*
X148087535Y-110859701D01*
X148147114Y-110689434D01*
X148147407Y-110686836D01*
X148155930Y-110611195D01*
X148182997Y-110546781D01*
X148240591Y-110507226D01*
X148279150Y-110501079D01*
X151224334Y-110501079D01*
X151291373Y-110520764D01*
X151301649Y-110528134D01*
X151304482Y-110530393D01*
X151304484Y-110530395D01*
X151457224Y-110626368D01*
X151626654Y-110685654D01*
X151627491Y-110685947D01*
X151627496Y-110685948D01*
X151806742Y-110706144D01*
X151806746Y-110706144D01*
X151806750Y-110706144D01*
X151985995Y-110685948D01*
X151985998Y-110685947D01*
X151986001Y-110685947D01*
X152156268Y-110626368D01*
X152309008Y-110530395D01*
X152436562Y-110402841D01*
X152532535Y-110250101D01*
X152592114Y-110079834D01*
X152592115Y-110079828D01*
X152612311Y-109900582D01*
X152612311Y-109900575D01*
X152592115Y-109721329D01*
X152592112Y-109721316D01*
X152530708Y-109545834D01*
X152527146Y-109476055D01*
X152561874Y-109415428D01*
X152623868Y-109383200D01*
X152647749Y-109380879D01*
X153842449Y-109380879D01*
X153909488Y-109400564D01*
X153930130Y-109417198D01*
X154311844Y-109798912D01*
X154345329Y-109860235D01*
X154347383Y-109872709D01*
X154357176Y-109959628D01*
X154416756Y-110129900D01*
X154492284Y-110250101D01*
X154512730Y-110282641D01*
X154640284Y-110410195D01*
X154664459Y-110425385D01*
X154710750Y-110477720D01*
X154721398Y-110546774D01*
X154693023Y-110610622D01*
X154664459Y-110635373D01*
X154640283Y-110650563D01*
X154512730Y-110778116D01*
X154416757Y-110930855D01*
X154357177Y-111101124D01*
X154357176Y-111101129D01*
X154336981Y-111280375D01*
X154336981Y-111280382D01*
X154357176Y-111459628D01*
X154357177Y-111459633D01*
X154416757Y-111629902D01*
X154510995Y-111779879D01*
X154512730Y-111782641D01*
X154640284Y-111910195D01*
X154793024Y-112006168D01*
X154963291Y-112065747D01*
X154963296Y-112065748D01*
X155142542Y-112085944D01*
X155142546Y-112085944D01*
X155142550Y-112085944D01*
X155321795Y-112065748D01*
X155321798Y-112065747D01*
X155321801Y-112065747D01*
X155492068Y-112006168D01*
X155644808Y-111910195D01*
X155644812Y-111910190D01*
X155647643Y-111907934D01*
X155649821Y-111907044D01*
X155650704Y-111906490D01*
X155650801Y-111906644D01*
X155712330Y-111881525D01*
X155719473Y-111881160D01*
X155721600Y-111880880D01*
X155721603Y-111880880D01*
X155874331Y-111839956D01*
X155924450Y-111811018D01*
X156011262Y-111760899D01*
X156123066Y-111649095D01*
X156123066Y-111649093D01*
X156133274Y-111638886D01*
X156133275Y-111638883D01*
X161161082Y-106611077D01*
X161222403Y-106577594D01*
X161234856Y-106575542D01*
X161321801Y-106565747D01*
X161492068Y-106506168D01*
X161644808Y-106410195D01*
X161772362Y-106282641D01*
X161868335Y-106129901D01*
X161927914Y-105959634D01*
X161927915Y-105959628D01*
X161948111Y-105780382D01*
X161948111Y-105780375D01*
X161927915Y-105601129D01*
X161927914Y-105601124D01*
X161883642Y-105474603D01*
X161868335Y-105430857D01*
X161772362Y-105278117D01*
X161772357Y-105278112D01*
X161768714Y-105273543D01*
X161742306Y-105208857D01*
X161741661Y-105196230D01*
X161741661Y-104230379D01*
X164722193Y-104230379D01*
X164731933Y-104279353D01*
X164731936Y-104279362D01*
X164809198Y-104465892D01*
X164809205Y-104465905D01*
X164921375Y-104633778D01*
X164921378Y-104633782D01*
X165064142Y-104776546D01*
X165064146Y-104776549D01*
X165232019Y-104888719D01*
X165232032Y-104888726D01*
X165418562Y-104965988D01*
X165418571Y-104965991D01*
X165616587Y-105005378D01*
X165616591Y-105005379D01*
X165892546Y-105005379D01*
X165892546Y-104230379D01*
X164722193Y-104230379D01*
X161741661Y-104230379D01*
X161741661Y-103730379D01*
X164722193Y-103730379D01*
X165892546Y-103730379D01*
X165892546Y-102955379D01*
X165616587Y-102955379D01*
X165418571Y-102994766D01*
X165418562Y-102994769D01*
X165232032Y-103072031D01*
X165232019Y-103072038D01*
X165064146Y-103184208D01*
X165064142Y-103184211D01*
X164921378Y-103326975D01*
X164921375Y-103326979D01*
X164809205Y-103494852D01*
X164809198Y-103494865D01*
X164731936Y-103681395D01*
X164731933Y-103681404D01*
X164722193Y-103730379D01*
X161741661Y-103730379D01*
X161741661Y-102269895D01*
X161761346Y-102202856D01*
X161768716Y-102192580D01*
X161770971Y-102189750D01*
X161770977Y-102189745D01*
X161866950Y-102037005D01*
X161926529Y-101866738D01*
X161931640Y-101821377D01*
X161946726Y-101687486D01*
X161946726Y-101687479D01*
X161926530Y-101508233D01*
X161926529Y-101508228D01*
X161866949Y-101337959D01*
X161770976Y-101185220D01*
X161643423Y-101057667D01*
X161490684Y-100961694D01*
X161320415Y-100902114D01*
X161320410Y-100902113D01*
X161141165Y-100881918D01*
X161141157Y-100881918D01*
X160961911Y-100902113D01*
X160961906Y-100902114D01*
X160791637Y-100961694D01*
X160638898Y-101057667D01*
X160511345Y-101185220D01*
X160415372Y-101337959D01*
X160355792Y-101508228D01*
X160355791Y-101508233D01*
X160335596Y-101687479D01*
X160335596Y-101687487D01*
X160350681Y-101821377D01*
X160338626Y-101890199D01*
X160291277Y-101941578D01*
X160223666Y-101959202D01*
X160157261Y-101937475D01*
X160122467Y-101901232D01*
X160100789Y-101866732D01*
X160064755Y-101809384D01*
X159937201Y-101681830D01*
X159926056Y-101674827D01*
X159784462Y-101585857D01*
X159614193Y-101526277D01*
X159614188Y-101526276D01*
X159434943Y-101506081D01*
X159434935Y-101506081D01*
X159255689Y-101526276D01*
X159255684Y-101526277D01*
X159085415Y-101585857D01*
X158932675Y-101681831D01*
X158929842Y-101684091D01*
X158927663Y-101684980D01*
X158926781Y-101685535D01*
X158926683Y-101685380D01*
X158865156Y-101710501D01*
X158852527Y-101711146D01*
X151934710Y-101711146D01*
X151867671Y-101691461D01*
X151847029Y-101674827D01*
X149691046Y-99518844D01*
X149657561Y-99457521D01*
X149655509Y-99445065D01*
X149645714Y-99358124D01*
X149586135Y-99187857D01*
X149586134Y-99187855D01*
X149585689Y-99187146D01*
X149585540Y-99186620D01*
X149583115Y-99181584D01*
X149583997Y-99181159D01*
X149566690Y-99119909D01*
X149587059Y-99053074D01*
X149624710Y-99016183D01*
X149692808Y-98973395D01*
X149692813Y-98973389D01*
X149695643Y-98971134D01*
X149697821Y-98970244D01*
X149698704Y-98969690D01*
X149698801Y-98969844D01*
X149760329Y-98944724D01*
X149772958Y-98944079D01*
X158869734Y-98944079D01*
X158936773Y-98963764D01*
X158947049Y-98971134D01*
X158949882Y-98973393D01*
X158949884Y-98973395D01*
X159048112Y-99035116D01*
X159100884Y-99068275D01*
X159102624Y-99069368D01*
X159247062Y-99119909D01*
X159272891Y-99128947D01*
X159272896Y-99128948D01*
X159452142Y-99149144D01*
X159452146Y-99149144D01*
X159452150Y-99149144D01*
X159631395Y-99128948D01*
X159631398Y-99128947D01*
X159631401Y-99128947D01*
X159801668Y-99069368D01*
X159954408Y-98973395D01*
X160081962Y-98845841D01*
X160177935Y-98693101D01*
X160237514Y-98522834D01*
X160257711Y-98343579D01*
X160252280Y-98295379D01*
X160237515Y-98164329D01*
X160237514Y-98164324D01*
X160177934Y-97994055D01*
X160094601Y-97861432D01*
X160081962Y-97841317D01*
X159954408Y-97713763D01*
X159801669Y-97617790D01*
X159631400Y-97558210D01*
X159631395Y-97558209D01*
X159452150Y-97538014D01*
X159452142Y-97538014D01*
X159272896Y-97558209D01*
X159272891Y-97558210D01*
X159102622Y-97617790D01*
X158949882Y-97713764D01*
X158947049Y-97716024D01*
X158944870Y-97716913D01*
X158943988Y-97717468D01*
X158943890Y-97717313D01*
X158882363Y-97742434D01*
X158869734Y-97743079D01*
X149772958Y-97743079D01*
X149705919Y-97723394D01*
X149695643Y-97716024D01*
X149692809Y-97713764D01*
X149692808Y-97713763D01*
X149636042Y-97678094D01*
X149540069Y-97617790D01*
X149369800Y-97558210D01*
X149369795Y-97558209D01*
X149190550Y-97538014D01*
X149190542Y-97538014D01*
X149011296Y-97558209D01*
X149011291Y-97558210D01*
X148841022Y-97617790D01*
X148688283Y-97713763D01*
X148560730Y-97841316D01*
X148464757Y-97994055D01*
X148405177Y-98164324D01*
X148405176Y-98164329D01*
X148384981Y-98343575D01*
X148384981Y-98343582D01*
X148405176Y-98522828D01*
X148405177Y-98522833D01*
X148464757Y-98693103D01*
X148465205Y-98693815D01*
X148465354Y-98694343D01*
X148467777Y-98699374D01*
X148466895Y-98699798D01*
X148484200Y-98761053D01*
X148463829Y-98827887D01*
X148426180Y-98864774D01*
X148358086Y-98907561D01*
X148358083Y-98907563D01*
X148230530Y-99035116D01*
X148134557Y-99187855D01*
X148074977Y-99358124D01*
X148074976Y-99358129D01*
X148054781Y-99537375D01*
X148054781Y-99537382D01*
X148074976Y-99716628D01*
X148074977Y-99716633D01*
X148134557Y-99886902D01*
X148230530Y-100039641D01*
X148358084Y-100167195D01*
X148510824Y-100263168D01*
X148681091Y-100322747D01*
X148768015Y-100332540D01*
X148832426Y-100359605D01*
X148841811Y-100368079D01*
X151149752Y-102676020D01*
X151149762Y-102676031D01*
X151154092Y-102680361D01*
X151154093Y-102680362D01*
X151265897Y-102792166D01*
X151352708Y-102842285D01*
X151352710Y-102842287D01*
X151390764Y-102864257D01*
X151402828Y-102871223D01*
X151555556Y-102912147D01*
X151555559Y-102912147D01*
X151721266Y-102912147D01*
X151721282Y-102912146D01*
X158852527Y-102912146D01*
X158919566Y-102931831D01*
X158929842Y-102939201D01*
X158932675Y-102941460D01*
X158932677Y-102941462D01*
X159085417Y-103037435D01*
X159184287Y-103072031D01*
X159255684Y-103097014D01*
X159255689Y-103097015D01*
X159434935Y-103117211D01*
X159434939Y-103117211D01*
X159434943Y-103117211D01*
X159614188Y-103097015D01*
X159614191Y-103097014D01*
X159614194Y-103097014D01*
X159784461Y-103037435D01*
X159937201Y-102941462D01*
X160064755Y-102813908D01*
X160160728Y-102661168D01*
X160220307Y-102490901D01*
X160240504Y-102311646D01*
X160228246Y-102202856D01*
X160225418Y-102177752D01*
X160237472Y-102108930D01*
X160284821Y-102057550D01*
X160352432Y-102039926D01*
X160418838Y-102061652D01*
X160453631Y-102097895D01*
X160475307Y-102132391D01*
X160511345Y-102189745D01*
X160511346Y-102189746D01*
X160513606Y-102192580D01*
X160514496Y-102194759D01*
X160515049Y-102195640D01*
X160514894Y-102195736D01*
X160540016Y-102257266D01*
X160540661Y-102269895D01*
X160540661Y-105199703D01*
X160520976Y-105266742D01*
X160513610Y-105277013D01*
X160512732Y-105278113D01*
X160416756Y-105430857D01*
X160357176Y-105601129D01*
X160347383Y-105688046D01*
X160320316Y-105752460D01*
X160311844Y-105761843D01*
X156154856Y-109918832D01*
X156093533Y-109952317D01*
X156023841Y-109947333D01*
X155967908Y-109905461D01*
X155943491Y-109839997D01*
X155943955Y-109817267D01*
X155948111Y-109780381D01*
X155948111Y-109780375D01*
X155927915Y-109601129D01*
X155927914Y-109601124D01*
X155903163Y-109530390D01*
X155868335Y-109430857D01*
X155859752Y-109417198D01*
X155815731Y-109347138D01*
X155772362Y-109278117D01*
X155644808Y-109150563D01*
X155642037Y-109148822D01*
X155492067Y-109054589D01*
X155321795Y-108995009D01*
X155234876Y-108985216D01*
X155170462Y-108958149D01*
X155161079Y-108949677D01*
X154630136Y-108418734D01*
X154630134Y-108418731D01*
X154511263Y-108299860D01*
X154511262Y-108299859D01*
X154424450Y-108249739D01*
X154424450Y-108249738D01*
X154424446Y-108249737D01*
X154374331Y-108220802D01*
X154221603Y-108179878D01*
X154063489Y-108179878D01*
X154055893Y-108179878D01*
X154055877Y-108179879D01*
X146207034Y-108179879D01*
X146139995Y-108160194D01*
X146102040Y-108121851D01*
X146045543Y-108031937D01*
X146023289Y-107996519D01*
X145895735Y-107868965D01*
X145799364Y-107808411D01*
X145742994Y-107772991D01*
X145572722Y-107713411D01*
X145504089Y-107705678D01*
X145439675Y-107678611D01*
X145400120Y-107621016D01*
X145393973Y-107582458D01*
X145393973Y-107472166D01*
X145393974Y-107472153D01*
X145393974Y-107304050D01*
X145353049Y-107151320D01*
X145353046Y-107151315D01*
X145273997Y-107014396D01*
X145273991Y-107014388D01*
X141847615Y-103588013D01*
X141847613Y-103588010D01*
X141728742Y-103469139D01*
X141728741Y-103469138D01*
X141641929Y-103419018D01*
X141641929Y-103419017D01*
X141641925Y-103419016D01*
X141591810Y-103390081D01*
X141439082Y-103349157D01*
X141280968Y-103349157D01*
X141273372Y-103349157D01*
X141273356Y-103349158D01*
X119990724Y-103349158D01*
X119832610Y-103349158D01*
X119679882Y-103390081D01*
X119679881Y-103390081D01*
X119679879Y-103390082D01*
X119679876Y-103390083D01*
X119629763Y-103419017D01*
X119629762Y-103419018D01*
X119613394Y-103428468D01*
X119542952Y-103469137D01*
X119542949Y-103469139D01*
X119431145Y-103580944D01*
X114043811Y-108968277D01*
X113982488Y-109001762D01*
X113970014Y-109003816D01*
X113883096Y-109013609D01*
X113712824Y-109073189D01*
X113560083Y-109169163D01*
X113432530Y-109296716D01*
X113336557Y-109449455D01*
X113276977Y-109619724D01*
X113276976Y-109619729D01*
X113256781Y-109798975D01*
X113256781Y-109798982D01*
X113276976Y-109978228D01*
X113276977Y-109978233D01*
X113336557Y-110148502D01*
X113419392Y-110280332D01*
X113432530Y-110301241D01*
X113560084Y-110428795D01*
X113629680Y-110472525D01*
X113706451Y-110520764D01*
X113712824Y-110524768D01*
X113883091Y-110584347D01*
X113883096Y-110584348D01*
X114062342Y-110604544D01*
X114062346Y-110604544D01*
X114062350Y-110604544D01*
X114241595Y-110584348D01*
X114241598Y-110584347D01*
X114241601Y-110584347D01*
X114411868Y-110524768D01*
X114564608Y-110428795D01*
X114692162Y-110301241D01*
X114788135Y-110148501D01*
X114847714Y-109978234D01*
X114857507Y-109891308D01*
X114884572Y-109826897D01*
X114893036Y-109817522D01*
X119202472Y-105508086D01*
X119263793Y-105474603D01*
X119333485Y-105479587D01*
X119389418Y-105521459D01*
X119407193Y-105554815D01*
X119432556Y-105627300D01*
X119495303Y-105727161D01*
X119528530Y-105780041D01*
X119656084Y-105907595D01*
X119808824Y-106003568D01*
X119979091Y-106063147D01*
X119979096Y-106063148D01*
X120158342Y-106083344D01*
X120158346Y-106083344D01*
X120158350Y-106083344D01*
X120337595Y-106063148D01*
X120337598Y-106063147D01*
X120337601Y-106063147D01*
X120507868Y-106003568D01*
X120660608Y-105907595D01*
X120788162Y-105780041D01*
X120884135Y-105627301D01*
X120943714Y-105457034D01*
X120953507Y-105370108D01*
X120980572Y-105305697D01*
X120989026Y-105296332D01*
X121298884Y-104986474D01*
X121360206Y-104952992D01*
X121386564Y-104950158D01*
X137192316Y-104950158D01*
X137259355Y-104969843D01*
X137305110Y-105022647D01*
X137315536Y-105088041D01*
X137300781Y-105218999D01*
X137300781Y-105219006D01*
X137320976Y-105398252D01*
X137320977Y-105398257D01*
X137380557Y-105568526D01*
X137480235Y-105727161D01*
X137478604Y-105728185D01*
X137501401Y-105784018D01*
X137502046Y-105796650D01*
X137502046Y-110048685D01*
X137482361Y-110115724D01*
X137449169Y-110150260D01*
X137263405Y-110280332D01*
X137102500Y-110441237D01*
X136971978Y-110627644D01*
X136971977Y-110627646D01*
X136944928Y-110685654D01*
X136898755Y-110738093D01*
X136831562Y-110757245D01*
X136764681Y-110737029D01*
X136720164Y-110685654D01*
X136703801Y-110650563D01*
X136693114Y-110627645D01*
X136562593Y-110441240D01*
X136562591Y-110441237D01*
X136401687Y-110280333D01*
X136215280Y-110149811D01*
X136215278Y-110149810D01*
X136009043Y-110053640D01*
X136009034Y-110053637D01*
X135789243Y-109994745D01*
X135789239Y-109994744D01*
X135789238Y-109994744D01*
X135789237Y-109994743D01*
X135789232Y-109994743D01*
X135562548Y-109974911D01*
X135562544Y-109974911D01*
X135335859Y-109994743D01*
X135335848Y-109994745D01*
X135116057Y-110053637D01*
X135116048Y-110053640D01*
X134909813Y-110149810D01*
X134909811Y-110149811D01*
X134723404Y-110280333D01*
X134562500Y-110441237D01*
X134432872Y-110626368D01*
X134431978Y-110627645D01*
X134431861Y-110627897D01*
X134404652Y-110686246D01*
X134358479Y-110738685D01*
X134291285Y-110757836D01*
X134224404Y-110737620D01*
X134179888Y-110686244D01*
X134152681Y-110627899D01*
X134152680Y-110627897D01*
X134022203Y-110441558D01*
X133861366Y-110280721D01*
X133675028Y-110150244D01*
X133468874Y-110054113D01*
X133272546Y-110001506D01*
X133272546Y-110964693D01*
X133268152Y-110960299D01*
X133176940Y-110907638D01*
X133075207Y-110880379D01*
X132969885Y-110880379D01*
X132868152Y-110907638D01*
X132776940Y-110960299D01*
X132772546Y-110964693D01*
X132772546Y-110001506D01*
X132576217Y-110054113D01*
X132370063Y-110150244D01*
X132183725Y-110280721D01*
X132022888Y-110441558D01*
X131892411Y-110627896D01*
X131864928Y-110686836D01*
X131818756Y-110739275D01*
X131751562Y-110758427D01*
X131684681Y-110738211D01*
X131640164Y-110686836D01*
X131612680Y-110627896D01*
X131482203Y-110441558D01*
X131321366Y-110280721D01*
X131135028Y-110150244D01*
X130928874Y-110054113D01*
X130732546Y-110001506D01*
X130732546Y-110964693D01*
X130728152Y-110960299D01*
X130636940Y-110907638D01*
X130535207Y-110880379D01*
X130429885Y-110880379D01*
X130328152Y-110907638D01*
X130236940Y-110960299D01*
X130232546Y-110964693D01*
X130232546Y-110001506D01*
X130036217Y-110054113D01*
X129830063Y-110150244D01*
X129643725Y-110280721D01*
X129482888Y-110441558D01*
X129352413Y-110627894D01*
X129325203Y-110686246D01*
X129279030Y-110738685D01*
X129211836Y-110757836D01*
X129144955Y-110737620D01*
X129100439Y-110686244D01*
X129076717Y-110635373D01*
X129073114Y-110627645D01*
X128942593Y-110441240D01*
X128942591Y-110441237D01*
X128781687Y-110280333D01*
X128595280Y-110149811D01*
X128595278Y-110149810D01*
X128389043Y-110053640D01*
X128389034Y-110053637D01*
X128169243Y-109994745D01*
X128169239Y-109994744D01*
X128169238Y-109994744D01*
X128169237Y-109994743D01*
X128169232Y-109994743D01*
X127942548Y-109974911D01*
X127942544Y-109974911D01*
X127715859Y-109994743D01*
X127715848Y-109994745D01*
X127496057Y-110053637D01*
X127496043Y-110053642D01*
X127395904Y-110100338D01*
X127326827Y-110110830D01*
X127263043Y-110082310D01*
X127224804Y-110023833D01*
X127219500Y-109987956D01*
X127219500Y-109116612D01*
X127239185Y-109049573D01*
X127246555Y-109039297D01*
X127248810Y-109036467D01*
X127248816Y-109036462D01*
X127344789Y-108883722D01*
X127404368Y-108713455D01*
X127405766Y-108701049D01*
X127424565Y-108534203D01*
X127424565Y-108534196D01*
X127404369Y-108354950D01*
X127404368Y-108354945D01*
X127385093Y-108299860D01*
X127344789Y-108184678D01*
X127248816Y-108031938D01*
X127121262Y-107904384D01*
X127064893Y-107868965D01*
X126968523Y-107808411D01*
X126798254Y-107748831D01*
X126798249Y-107748830D01*
X126619004Y-107728635D01*
X126618996Y-107728635D01*
X126439750Y-107748830D01*
X126439745Y-107748831D01*
X126269476Y-107808411D01*
X126116737Y-107904384D01*
X125989184Y-108031937D01*
X125893211Y-108184676D01*
X125833631Y-108354945D01*
X125833630Y-108354950D01*
X125813435Y-108534196D01*
X125813435Y-108534203D01*
X125833630Y-108713449D01*
X125833631Y-108713454D01*
X125893211Y-108883723D01*
X125946340Y-108968277D01*
X125974824Y-109013609D01*
X125989185Y-109036463D01*
X125991445Y-109039297D01*
X125992334Y-109041475D01*
X125992889Y-109042358D01*
X125992734Y-109042455D01*
X126017855Y-109103983D01*
X126018500Y-109116612D01*
X126018500Y-109938227D01*
X125998815Y-110005266D01*
X125946011Y-110051021D01*
X125876853Y-110060965D01*
X125852088Y-110054748D01*
X125849045Y-110053640D01*
X125629243Y-109994745D01*
X125629239Y-109994744D01*
X125629238Y-109994744D01*
X125629237Y-109994743D01*
X125629232Y-109994743D01*
X125402548Y-109974911D01*
X125402544Y-109974911D01*
X125175859Y-109994743D01*
X125175848Y-109994745D01*
X124956057Y-110053637D01*
X124956048Y-110053640D01*
X124749813Y-110149810D01*
X124749811Y-110149811D01*
X124563404Y-110280333D01*
X124402500Y-110441237D01*
X124271978Y-110627644D01*
X124271977Y-110627646D01*
X124244928Y-110685654D01*
X124198755Y-110738093D01*
X124131562Y-110757245D01*
X124064681Y-110737029D01*
X124020164Y-110685654D01*
X124003801Y-110650563D01*
X123993114Y-110627645D01*
X123862593Y-110441240D01*
X123862591Y-110441237D01*
X123701687Y-110280333D01*
X123515280Y-110149811D01*
X123515278Y-110149810D01*
X123309043Y-110053640D01*
X123309034Y-110053637D01*
X123089243Y-109994745D01*
X123089239Y-109994744D01*
X123089238Y-109994744D01*
X123089237Y-109994743D01*
X123089232Y-109994743D01*
X122862548Y-109974911D01*
X122862544Y-109974911D01*
X122635859Y-109994743D01*
X122635848Y-109994745D01*
X122416057Y-110053637D01*
X122416048Y-110053640D01*
X122209813Y-110149810D01*
X122209811Y-110149811D01*
X122023404Y-110280333D01*
X121862500Y-110441237D01*
X121731978Y-110627644D01*
X121731977Y-110627646D01*
X121635807Y-110833881D01*
X121635804Y-110833890D01*
X121576912Y-111053681D01*
X121576910Y-111053692D01*
X121557078Y-111280377D01*
X121557078Y-111280380D01*
X121576910Y-111507065D01*
X121576912Y-111507076D01*
X121635804Y-111726867D01*
X121635807Y-111726876D01*
X121731977Y-111933111D01*
X121731978Y-111933113D01*
X121862500Y-112119520D01*
X122023404Y-112280424D01*
X122023407Y-112280426D01*
X122209812Y-112410947D01*
X122416050Y-112507118D01*
X122635854Y-112566014D01*
X122797776Y-112580180D01*
X122862544Y-112585847D01*
X122862546Y-112585847D01*
X122862548Y-112585847D01*
X122919219Y-112580888D01*
X123089238Y-112566014D01*
X123309042Y-112507118D01*
X123515280Y-112410947D01*
X123701685Y-112280426D01*
X123862593Y-112119518D01*
X123993114Y-111933113D01*
X124020164Y-111875103D01*
X124066336Y-111822664D01*
X124133529Y-111803512D01*
X124200411Y-111823727D01*
X124244927Y-111875103D01*
X124247621Y-111880880D01*
X124271975Y-111933107D01*
X124271978Y-111933113D01*
X124402500Y-112119520D01*
X124563404Y-112280424D01*
X124563407Y-112280426D01*
X124749812Y-112410947D01*
X124956050Y-112507118D01*
X125175854Y-112566014D01*
X125337776Y-112580180D01*
X125402544Y-112585847D01*
X125402546Y-112585847D01*
X125402548Y-112585847D01*
X125459219Y-112580888D01*
X125629238Y-112566014D01*
X125849042Y-112507118D01*
X125849047Y-112507115D01*
X125852076Y-112506013D01*
X125853507Y-112505921D01*
X125854272Y-112505717D01*
X125854313Y-112505870D01*
X125921804Y-112501573D01*
X125982864Y-112535537D01*
X126015868Y-112597119D01*
X126018500Y-112622530D01*
X126018500Y-115934528D01*
X126018499Y-115934546D01*
X126018499Y-116100252D01*
X126018498Y-116100252D01*
X126059423Y-116252984D01*
X126059424Y-116252985D01*
X126074874Y-116279745D01*
X126137936Y-116388972D01*
X126138481Y-116389915D01*
X126257349Y-116508783D01*
X126257355Y-116508788D01*
X127320468Y-117571902D01*
X127353953Y-117633225D01*
X127348969Y-117702917D01*
X127307097Y-117758850D01*
X127294203Y-117766574D01*
X127294507Y-117767100D01*
X127289814Y-117769809D01*
X127103404Y-117900333D01*
X126942500Y-118061237D01*
X126811978Y-118247644D01*
X126811977Y-118247646D01*
X126784928Y-118305654D01*
X126738755Y-118358093D01*
X126671562Y-118377245D01*
X126604681Y-118357029D01*
X126560164Y-118305654D01*
X126533114Y-118247645D01*
X126402593Y-118061240D01*
X126402591Y-118061237D01*
X126241687Y-117900333D01*
X126055280Y-117769811D01*
X126055278Y-117769810D01*
X125849043Y-117673640D01*
X125849034Y-117673637D01*
X125629243Y-117614745D01*
X125629239Y-117614744D01*
X125629238Y-117614744D01*
X125629237Y-117614743D01*
X125629232Y-117614743D01*
X125402548Y-117594911D01*
X125402544Y-117594911D01*
X125175859Y-117614743D01*
X125175848Y-117614745D01*
X124956057Y-117673637D01*
X124956048Y-117673640D01*
X124749813Y-117769810D01*
X124749811Y-117769811D01*
X124563404Y-117900333D01*
X124402500Y-118061237D01*
X124271978Y-118247644D01*
X124271977Y-118247646D01*
X124244928Y-118305654D01*
X124198755Y-118358093D01*
X124131562Y-118377245D01*
X124064681Y-118357029D01*
X124020164Y-118305654D01*
X123993114Y-118247645D01*
X123862593Y-118061240D01*
X123862591Y-118061237D01*
X123701687Y-117900333D01*
X123515280Y-117769811D01*
X123515278Y-117769810D01*
X123309043Y-117673640D01*
X123309034Y-117673637D01*
X123089243Y-117614745D01*
X123089239Y-117614744D01*
X123089238Y-117614744D01*
X123089237Y-117614743D01*
X123089232Y-117614743D01*
X122862548Y-117594911D01*
X122862544Y-117594911D01*
X122635859Y-117614743D01*
X122635848Y-117614745D01*
X122416057Y-117673637D01*
X122416048Y-117673640D01*
X122209813Y-117769810D01*
X122209811Y-117769811D01*
X122023404Y-117900333D01*
X121862500Y-118061237D01*
X121731978Y-118247644D01*
X121731977Y-118247646D01*
X121635807Y-118453881D01*
X121635804Y-118453890D01*
X121576912Y-118673681D01*
X121576910Y-118673692D01*
X121557078Y-118900377D01*
X121557078Y-118900380D01*
X121576910Y-119127065D01*
X121576912Y-119127076D01*
X121635804Y-119346867D01*
X121635807Y-119346876D01*
X121731977Y-119553111D01*
X121731978Y-119553113D01*
X121862500Y-119739520D01*
X122023404Y-119900424D01*
X122023407Y-119900426D01*
X122209812Y-120030947D01*
X122416050Y-120127118D01*
X122635854Y-120186014D01*
X122797776Y-120200180D01*
X122862544Y-120205847D01*
X122862546Y-120205847D01*
X122862548Y-120205847D01*
X122919219Y-120200888D01*
X123089238Y-120186014D01*
X123309042Y-120127118D01*
X123515280Y-120030947D01*
X123701685Y-119900426D01*
X123862593Y-119739518D01*
X123993114Y-119553113D01*
X124020164Y-119495103D01*
X124066336Y-119442664D01*
X124133529Y-119423512D01*
X124200411Y-119443727D01*
X124244928Y-119495104D01*
X124271975Y-119553107D01*
X124271978Y-119553113D01*
X124402500Y-119739520D01*
X124563404Y-119900424D01*
X124563407Y-119900426D01*
X124749812Y-120030947D01*
X124956050Y-120127118D01*
X125175854Y-120186014D01*
X125337776Y-120200180D01*
X125402544Y-120205847D01*
X125402546Y-120205847D01*
X125402548Y-120205847D01*
X125459219Y-120200888D01*
X125629238Y-120186014D01*
X125849042Y-120127118D01*
X126055280Y-120030947D01*
X126241685Y-119900426D01*
X126402593Y-119739518D01*
X126533114Y-119553113D01*
X126560164Y-119495103D01*
X126606336Y-119442664D01*
X126673529Y-119423512D01*
X126740411Y-119443727D01*
X126784928Y-119495104D01*
X126811975Y-119553107D01*
X126811978Y-119553113D01*
X126942500Y-119739520D01*
X127103404Y-119900424D01*
X127103407Y-119900426D01*
X127289812Y-120030947D01*
X127496050Y-120127118D01*
X127715854Y-120186014D01*
X127877776Y-120200180D01*
X127942544Y-120205847D01*
X127942546Y-120205847D01*
X127942548Y-120205847D01*
X127999219Y-120200888D01*
X128169238Y-120186014D01*
X128389042Y-120127118D01*
X128595280Y-120030947D01*
X128781685Y-119900426D01*
X128842024Y-119840086D01*
X128903344Y-119806603D01*
X128973036Y-119811587D01*
X129017384Y-119840088D01*
X132388056Y-123210760D01*
X134956016Y-125778720D01*
X134956018Y-125778721D01*
X134956022Y-125778724D01*
X135092941Y-125857773D01*
X135092948Y-125857777D01*
X135245675Y-125898701D01*
X135245677Y-125898701D01*
X135411386Y-125898701D01*
X135411402Y-125898700D01*
X139933303Y-125898700D01*
X140000342Y-125918385D01*
X140020984Y-125935019D01*
X140630160Y-126544195D01*
X140663645Y-126605518D01*
X140658661Y-126675210D01*
X140616789Y-126731143D01*
X140561877Y-126754349D01*
X140345560Y-126788611D01*
X140345557Y-126788611D01*
X140141224Y-126855003D01*
X139949783Y-126952547D01*
X139775963Y-127078835D01*
X139681302Y-127173496D01*
X139619978Y-127206980D01*
X139550287Y-127201996D01*
X139494354Y-127160124D01*
X139477439Y-127129146D01*
X139433998Y-127012673D01*
X139433993Y-127012664D01*
X139347747Y-126897455D01*
X139347744Y-126897452D01*
X139232535Y-126811206D01*
X139232528Y-126811202D01*
X139097682Y-126760908D01*
X139097683Y-126760908D01*
X139038083Y-126754501D01*
X139038081Y-126754500D01*
X139038073Y-126754500D01*
X139038064Y-126754500D01*
X137212329Y-126754500D01*
X137212323Y-126754501D01*
X137152716Y-126760908D01*
X137017871Y-126811202D01*
X137017864Y-126811206D01*
X136902655Y-126897452D01*
X136902652Y-126897455D01*
X136816406Y-127012664D01*
X136816402Y-127012671D01*
X136766108Y-127147517D01*
X136759701Y-127207116D01*
X136759700Y-127207135D01*
X136759700Y-129332870D01*
X136759701Y-129332876D01*
X136766108Y-129392483D01*
X136816402Y-129527328D01*
X136816406Y-129527335D01*
X136902652Y-129642544D01*
X136902655Y-129642547D01*
X137017864Y-129728793D01*
X137017871Y-129728797D01*
X137152717Y-129779091D01*
X137152716Y-129779091D01*
X137159644Y-129779835D01*
X137212327Y-129785500D01*
X139038072Y-129785499D01*
X139097683Y-129779091D01*
X139232531Y-129728796D01*
X139347746Y-129642546D01*
X139433996Y-129527331D01*
X139477439Y-129410851D01*
X139519309Y-129354919D01*
X139584773Y-129330501D01*
X139653046Y-129345352D01*
X139681302Y-129366504D01*
X139775959Y-129461161D01*
X139949783Y-129587452D01*
X140141224Y-129684996D01*
X140345559Y-129751388D01*
X140415199Y-129762418D01*
X140415200Y-129762418D01*
X140415200Y-128714560D01*
X140468347Y-128745245D01*
X140598057Y-128780000D01*
X140732343Y-128780000D01*
X140862053Y-128745245D01*
X140915200Y-128714560D01*
X140915200Y-129762418D01*
X140984838Y-129751388D01*
X140984841Y-129751388D01*
X141189175Y-129684996D01*
X141380616Y-129587452D01*
X141554440Y-129461161D01*
X141706361Y-129309240D01*
X141706366Y-129309234D01*
X141834573Y-129132773D01*
X141889903Y-129090107D01*
X141959516Y-129084128D01*
X142021311Y-129116734D01*
X142035209Y-129132772D01*
X142037319Y-129135676D01*
X142037320Y-129135678D01*
X142163655Y-129309563D01*
X142315637Y-129461545D01*
X142489522Y-129587880D01*
X142570482Y-129629131D01*
X142681029Y-129685458D01*
X142681032Y-129685459D01*
X142871694Y-129747408D01*
X142885445Y-129751876D01*
X143097733Y-129785500D01*
X143097734Y-129785500D01*
X143312666Y-129785500D01*
X143312667Y-129785500D01*
X143524955Y-129751876D01*
X143524958Y-129751875D01*
X143524959Y-129751875D01*
X143729367Y-129685459D01*
X143729370Y-129685458D01*
X143753090Y-129673372D01*
X143920878Y-129587880D01*
X144094763Y-129461545D01*
X144246745Y-129309563D01*
X144373080Y-129135678D01*
X144470658Y-128944170D01*
X144537076Y-128739755D01*
X144570700Y-128527467D01*
X144570700Y-128012533D01*
X144537076Y-127800245D01*
X144537075Y-127800241D01*
X144537075Y-127800240D01*
X144470659Y-127595832D01*
X144470658Y-127595829D01*
X144397378Y-127452010D01*
X144373080Y-127404322D01*
X144246745Y-127230437D01*
X144094763Y-127078455D01*
X143920878Y-126952120D01*
X143894948Y-126938908D01*
X143729370Y-126854541D01*
X143729367Y-126854540D01*
X143524957Y-126788124D01*
X143383429Y-126765708D01*
X143312667Y-126754500D01*
X143097733Y-126754500D01*
X143026970Y-126765708D01*
X142885443Y-126788124D01*
X142885440Y-126788124D01*
X142721557Y-126841373D01*
X142651715Y-126843368D01*
X142595558Y-126811123D01*
X140720990Y-124936555D01*
X140720988Y-124936552D01*
X140602117Y-124817681D01*
X140602116Y-124817680D01*
X140515304Y-124767560D01*
X140515304Y-124767559D01*
X140515300Y-124767558D01*
X140465185Y-124738623D01*
X140312457Y-124697699D01*
X140154343Y-124697699D01*
X140146747Y-124697699D01*
X140146731Y-124697700D01*
X135624830Y-124697700D01*
X135557791Y-124678015D01*
X135537149Y-124661381D01*
X131104247Y-120228479D01*
X131070762Y-120167156D01*
X131075746Y-120097464D01*
X131117618Y-120041531D01*
X131130649Y-120033748D01*
X131130343Y-120033218D01*
X131135027Y-120030513D01*
X131321366Y-119900036D01*
X131482203Y-119739199D01*
X131612680Y-119552860D01*
X131612681Y-119552858D01*
X131640164Y-119493922D01*
X131686336Y-119441482D01*
X131753529Y-119422330D01*
X131820410Y-119442545D01*
X131864928Y-119493922D01*
X131892410Y-119552858D01*
X131892411Y-119552860D01*
X132022888Y-119739199D01*
X132183725Y-119900036D01*
X132370063Y-120030513D01*
X132576219Y-120126644D01*
X132576228Y-120126648D01*
X132772545Y-120179251D01*
X132772546Y-120179250D01*
X132772546Y-119216065D01*
X132776940Y-119220459D01*
X132868152Y-119273120D01*
X132969885Y-119300379D01*
X133075207Y-119300379D01*
X133176940Y-119273120D01*
X133268152Y-119220459D01*
X133272546Y-119216065D01*
X133272546Y-120179251D01*
X133468863Y-120126648D01*
X133468872Y-120126644D01*
X133675028Y-120030513D01*
X133861366Y-119900036D01*
X134022203Y-119739199D01*
X134152678Y-119552863D01*
X134179887Y-119494513D01*
X134226059Y-119442074D01*
X134293253Y-119422921D01*
X134360134Y-119443136D01*
X134404652Y-119494512D01*
X134431977Y-119553111D01*
X134431978Y-119553113D01*
X134562500Y-119739520D01*
X134723404Y-119900424D01*
X134723407Y-119900426D01*
X134909812Y-120030947D01*
X135116050Y-120127118D01*
X135335854Y-120186014D01*
X135497776Y-120200180D01*
X135562544Y-120205847D01*
X135562546Y-120205847D01*
X135562548Y-120205847D01*
X135619219Y-120200888D01*
X135789238Y-120186014D01*
X136009042Y-120127118D01*
X136169234Y-120052418D01*
X136238309Y-120041927D01*
X136302093Y-120070446D01*
X136309318Y-120077120D01*
X140812726Y-124580527D01*
X140812730Y-124580530D01*
X140935644Y-124662659D01*
X140935657Y-124662666D01*
X141072228Y-124719235D01*
X141072233Y-124719237D01*
X141072237Y-124719237D01*
X141072238Y-124719238D01*
X141217225Y-124748079D01*
X141217228Y-124748079D01*
X141365063Y-124748079D01*
X145732516Y-124748079D01*
X145799555Y-124767764D01*
X145820197Y-124784398D01*
X148971981Y-127936182D01*
X149005466Y-127997505D01*
X149008300Y-128023863D01*
X149008300Y-131440870D01*
X149008301Y-131440876D01*
X149014708Y-131500483D01*
X149056505Y-131612546D01*
X149061489Y-131682238D01*
X149028003Y-131743561D01*
X148966680Y-131777045D01*
X148940323Y-131779879D01*
X119767046Y-131779879D01*
X119700007Y-131760194D01*
X119654252Y-131707390D01*
X119643046Y-131655879D01*
X119643046Y-129730379D01*
X124163444Y-129730379D01*
X125209534Y-129730379D01*
X125176621Y-129787386D01*
X125142546Y-129914553D01*
X125142546Y-130046205D01*
X125176621Y-130173372D01*
X125209534Y-130230379D01*
X124163444Y-130230379D01*
X124179480Y-130331626D01*
X124252443Y-130556181D01*
X124359631Y-130766550D01*
X124498412Y-130957565D01*
X124665359Y-131124512D01*
X124856374Y-131263293D01*
X125066743Y-131370481D01*
X125291298Y-131443444D01*
X125291297Y-131443444D01*
X125524494Y-131480379D01*
X126392546Y-131480379D01*
X126392546Y-130480379D01*
X126892546Y-130480379D01*
X126892546Y-131480379D01*
X127760598Y-131480379D01*
X127993793Y-131443444D01*
X128218348Y-131370481D01*
X128428717Y-131263293D01*
X128619732Y-131124512D01*
X128786679Y-130957565D01*
X128925460Y-130766550D01*
X129032648Y-130556181D01*
X129105611Y-130331626D01*
X129121648Y-130230379D01*
X128075558Y-130230379D01*
X128108471Y-130173372D01*
X128142546Y-130046205D01*
X128142546Y-129914553D01*
X128108471Y-129787386D01*
X128075558Y-129730379D01*
X129121648Y-129730379D01*
X129105611Y-129629131D01*
X129032648Y-129404576D01*
X128925460Y-129194207D01*
X128786679Y-129003192D01*
X128619732Y-128836245D01*
X128428717Y-128697464D01*
X128218348Y-128590276D01*
X127993793Y-128517313D01*
X127993794Y-128517313D01*
X127760598Y-128480379D01*
X126892546Y-128480379D01*
X126892546Y-129480379D01*
X126392546Y-129480379D01*
X126392546Y-128480379D01*
X125524494Y-128480379D01*
X125291298Y-128517313D01*
X125066743Y-128590276D01*
X124856374Y-128697464D01*
X124665359Y-128836245D01*
X124498412Y-129003192D01*
X124359631Y-129194207D01*
X124252443Y-129404576D01*
X124179480Y-129629131D01*
X124163444Y-129730379D01*
X119643046Y-129730379D01*
X119643046Y-125862326D01*
X129842546Y-125862326D01*
X129842546Y-126730379D01*
X130842546Y-126730379D01*
X130842546Y-127230379D01*
X129842546Y-127230379D01*
X129842546Y-128098431D01*
X129879480Y-128331626D01*
X129952443Y-128556181D01*
X130059631Y-128766550D01*
X130198412Y-128957565D01*
X130365359Y-129124512D01*
X130556374Y-129263293D01*
X130766741Y-129370481D01*
X130991290Y-129443442D01*
X130991296Y-129443444D01*
X131092546Y-129459480D01*
X131092546Y-128413391D01*
X131149553Y-128446304D01*
X131276720Y-128480379D01*
X131408372Y-128480379D01*
X131535539Y-128446304D01*
X131592546Y-128413391D01*
X131592546Y-129459480D01*
X131693795Y-129443444D01*
X131693801Y-129443442D01*
X131918350Y-129370481D01*
X132128717Y-129263293D01*
X132319732Y-129124512D01*
X132486679Y-128957565D01*
X132625460Y-128766550D01*
X132732648Y-128556181D01*
X132805611Y-128331626D01*
X132842546Y-128098431D01*
X132842546Y-127230379D01*
X131842546Y-127230379D01*
X131842546Y-126730379D01*
X132842546Y-126730379D01*
X132842546Y-125862326D01*
X132805611Y-125629131D01*
X132732648Y-125404576D01*
X132625460Y-125194207D01*
X132486679Y-125003192D01*
X132319732Y-124836245D01*
X132128717Y-124697464D01*
X131918348Y-124590276D01*
X131693793Y-124517313D01*
X131592546Y-124501276D01*
X131592546Y-125547367D01*
X131535539Y-125514454D01*
X131408372Y-125480379D01*
X131276720Y-125480379D01*
X131149553Y-125514454D01*
X131092546Y-125547367D01*
X131092546Y-124501276D01*
X130991298Y-124517313D01*
X130766743Y-124590276D01*
X130556374Y-124697464D01*
X130365359Y-124836245D01*
X130198412Y-125003192D01*
X130059631Y-125194207D01*
X129952443Y-125404576D01*
X129879480Y-125629131D01*
X129842546Y-125862326D01*
X119643046Y-125862326D01*
X119643046Y-122732514D01*
X123892046Y-122732514D01*
X123892046Y-124828249D01*
X123892047Y-124828255D01*
X123898454Y-124887862D01*
X123948748Y-125022707D01*
X123948752Y-125022714D01*
X124034998Y-125137923D01*
X124035001Y-125137926D01*
X124150210Y-125224172D01*
X124150217Y-125224176D01*
X124285063Y-125274470D01*
X124285062Y-125274470D01*
X124291990Y-125275214D01*
X124344673Y-125280879D01*
X128940418Y-125280878D01*
X129000029Y-125274470D01*
X129134877Y-125224175D01*
X129250092Y-125137925D01*
X129336342Y-125022710D01*
X129386637Y-124887862D01*
X129393046Y-124828252D01*
X129393045Y-122732507D01*
X129386637Y-122672896D01*
X129336342Y-122538048D01*
X129336341Y-122538047D01*
X129336339Y-122538043D01*
X129250093Y-122422834D01*
X129250090Y-122422831D01*
X129134881Y-122336585D01*
X129134874Y-122336581D01*
X129000028Y-122286287D01*
X129000029Y-122286287D01*
X128940429Y-122279880D01*
X128940427Y-122279879D01*
X128940419Y-122279879D01*
X128940410Y-122279879D01*
X124344675Y-122279879D01*
X124344669Y-122279880D01*
X124285062Y-122286287D01*
X124150217Y-122336581D01*
X124150210Y-122336585D01*
X124035001Y-122422831D01*
X124034998Y-122422834D01*
X123948752Y-122538043D01*
X123948748Y-122538050D01*
X123898454Y-122672896D01*
X123892047Y-122732495D01*
X123892047Y-122732502D01*
X123892046Y-122732514D01*
X119643046Y-122732514D01*
X119643046Y-112214489D01*
X119643046Y-112214487D01*
X119608938Y-112087193D01*
X119543046Y-111973065D01*
X119449860Y-111879879D01*
X119380710Y-111839955D01*
X119335733Y-111813987D01*
X119272085Y-111796933D01*
X119208438Y-111779879D01*
X119208437Y-111779879D01*
X109267046Y-111779879D01*
X109200007Y-111760194D01*
X109154252Y-111707390D01*
X109143046Y-111655879D01*
X109143046Y-99612039D01*
X134079438Y-99612039D01*
X134079438Y-99612040D01*
X134093238Y-99620712D01*
X134093237Y-99620712D01*
X134263407Y-99680257D01*
X134442543Y-99700441D01*
X134442549Y-99700441D01*
X134621684Y-99680257D01*
X134621687Y-99680256D01*
X134791851Y-99620713D01*
X134791852Y-99620713D01*
X134805652Y-99612040D01*
X134805652Y-99612039D01*
X135479438Y-99612039D01*
X135479438Y-99612040D01*
X135493238Y-99620712D01*
X135493237Y-99620712D01*
X135663407Y-99680257D01*
X135842543Y-99700441D01*
X135842549Y-99700441D01*
X136021684Y-99680257D01*
X136021687Y-99680256D01*
X136191851Y-99620713D01*
X136191852Y-99620713D01*
X136205652Y-99612040D01*
X136205652Y-99612039D01*
X135842547Y-99248932D01*
X135842546Y-99248932D01*
X135479438Y-99612039D01*
X134805652Y-99612039D01*
X134442547Y-99248932D01*
X134442546Y-99248932D01*
X134079438Y-99612039D01*
X109143046Y-99612039D01*
X109143046Y-98912039D01*
X133379438Y-98912039D01*
X133379438Y-98912040D01*
X133393238Y-98920712D01*
X133393237Y-98920712D01*
X133563408Y-98980257D01*
X133564190Y-98980436D01*
X133564643Y-98980689D01*
X133569977Y-98982556D01*
X133569650Y-98983490D01*
X133625169Y-99014545D01*
X133654498Y-99068253D01*
X133655368Y-99067949D01*
X133657216Y-99073231D01*
X133657486Y-99073725D01*
X133657667Y-99074521D01*
X133717209Y-99244679D01*
X133717209Y-99244680D01*
X133725884Y-99258486D01*
X134088992Y-98895379D01*
X134069101Y-98875488D01*
X134342546Y-98875488D01*
X134342546Y-98915270D01*
X134357770Y-98952024D01*
X134385901Y-98980155D01*
X134422655Y-98995379D01*
X134462437Y-98995379D01*
X134499191Y-98980155D01*
X134527322Y-98952024D01*
X134542546Y-98915270D01*
X134542546Y-98895379D01*
X134796099Y-98895379D01*
X135142546Y-99241825D01*
X135142547Y-99241825D01*
X135476492Y-98907880D01*
X135476492Y-98907878D01*
X135444102Y-98875488D01*
X135742546Y-98875488D01*
X135742546Y-98915270D01*
X135757770Y-98952024D01*
X135785901Y-98980155D01*
X135822655Y-98995379D01*
X135862437Y-98995379D01*
X135899191Y-98980155D01*
X135927322Y-98952024D01*
X135942546Y-98915270D01*
X135942546Y-98895378D01*
X136196099Y-98895378D01*
X136196099Y-98895379D01*
X136559206Y-99258485D01*
X136559207Y-99258485D01*
X136567880Y-99244685D01*
X136567880Y-99244684D01*
X136627422Y-99074523D01*
X136627602Y-99073737D01*
X136627857Y-99073280D01*
X136629723Y-99067949D01*
X136630656Y-99068275D01*
X136661710Y-99012758D01*
X136715421Y-98983428D01*
X136715116Y-98982556D01*
X136720416Y-98980701D01*
X136720904Y-98980435D01*
X136721690Y-98980255D01*
X136891851Y-98920713D01*
X136891852Y-98920713D01*
X136905652Y-98912040D01*
X136905652Y-98912039D01*
X136542546Y-98548932D01*
X136476786Y-98614693D01*
X136476785Y-98614693D01*
X136196099Y-98895378D01*
X135942546Y-98895378D01*
X135942546Y-98875488D01*
X135927322Y-98838734D01*
X135899191Y-98810603D01*
X135862437Y-98795379D01*
X135822655Y-98795379D01*
X135785901Y-98810603D01*
X135757770Y-98838734D01*
X135742546Y-98875488D01*
X135444102Y-98875488D01*
X135130047Y-98561432D01*
X135130046Y-98561432D01*
X134796099Y-98895379D01*
X134542546Y-98895379D01*
X134542546Y-98875488D01*
X134527322Y-98838734D01*
X134499191Y-98810603D01*
X134462437Y-98795379D01*
X134422655Y-98795379D01*
X134385901Y-98810603D01*
X134357770Y-98838734D01*
X134342546Y-98875488D01*
X134069101Y-98875488D01*
X133742545Y-98548932D01*
X133742544Y-98548932D01*
X133379438Y-98912039D01*
X109143046Y-98912039D01*
X109143046Y-98195376D01*
X132937484Y-98195376D01*
X132937484Y-98195381D01*
X132957667Y-98374517D01*
X133017211Y-98544683D01*
X133025884Y-98558486D01*
X133388992Y-98195379D01*
X133388992Y-98195378D01*
X133369102Y-98175488D01*
X133642546Y-98175488D01*
X133642546Y-98215270D01*
X133657770Y-98252024D01*
X133685901Y-98280155D01*
X133722655Y-98295379D01*
X133762437Y-98295379D01*
X133799191Y-98280155D01*
X133827322Y-98252024D01*
X133842546Y-98215270D01*
X133842546Y-98195378D01*
X134096099Y-98195378D01*
X134430046Y-98529325D01*
X134763992Y-98195379D01*
X134763992Y-98195378D01*
X134744102Y-98175488D01*
X135017546Y-98175488D01*
X135017546Y-98215270D01*
X135032770Y-98252024D01*
X135060901Y-98280155D01*
X135097655Y-98295379D01*
X135137437Y-98295379D01*
X135174191Y-98280155D01*
X135202322Y-98252024D01*
X135217546Y-98215270D01*
X135217546Y-98195378D01*
X135496099Y-98195378D01*
X135496099Y-98195380D01*
X135842544Y-98541825D01*
X135842545Y-98541825D01*
X136116124Y-98268247D01*
X136188992Y-98195379D01*
X136169101Y-98175488D01*
X136442546Y-98175488D01*
X136442546Y-98215270D01*
X136457770Y-98252024D01*
X136485901Y-98280155D01*
X136522655Y-98295379D01*
X136562437Y-98295379D01*
X136599191Y-98280155D01*
X136627322Y-98252024D01*
X136642546Y-98215270D01*
X136642546Y-98195379D01*
X136896098Y-98195379D01*
X137259206Y-98558485D01*
X137259207Y-98558485D01*
X137267880Y-98544685D01*
X137267880Y-98544684D01*
X137327423Y-98374520D01*
X137327424Y-98374517D01*
X137347608Y-98195381D01*
X137347608Y-98195376D01*
X137327424Y-98016240D01*
X137267879Y-97846071D01*
X137259207Y-97832271D01*
X137259206Y-97832271D01*
X136896098Y-98195379D01*
X136642546Y-98195379D01*
X136642546Y-98175488D01*
X136627322Y-98138734D01*
X136599191Y-98110603D01*
X136562437Y-98095379D01*
X136522655Y-98095379D01*
X136485901Y-98110603D01*
X136457770Y-98138734D01*
X136442546Y-98175488D01*
X136169101Y-98175488D01*
X135842545Y-97848932D01*
X135842544Y-97848932D01*
X135496099Y-98195378D01*
X135217546Y-98195378D01*
X135217546Y-98175488D01*
X135202322Y-98138734D01*
X135174191Y-98110603D01*
X135137437Y-98095379D01*
X135097655Y-98095379D01*
X135060901Y-98110603D01*
X135032770Y-98138734D01*
X135017546Y-98175488D01*
X134744102Y-98175488D01*
X134430046Y-97861432D01*
X134430045Y-97861432D01*
X134393102Y-97898377D01*
X134393100Y-97898379D01*
X134096099Y-98195378D01*
X133842546Y-98195378D01*
X133842546Y-98175488D01*
X133827322Y-98138734D01*
X133799191Y-98110603D01*
X133762437Y-98095379D01*
X133722655Y-98095379D01*
X133685901Y-98110603D01*
X133657770Y-98138734D01*
X133642546Y-98175488D01*
X133369102Y-98175488D01*
X133025884Y-97832270D01*
X133025883Y-97832270D01*
X133017213Y-97846070D01*
X133017208Y-97846080D01*
X132957668Y-98016237D01*
X132957667Y-98016240D01*
X132937484Y-98195376D01*
X109143046Y-98195376D01*
X109143046Y-97495378D01*
X133396099Y-97495378D01*
X133396099Y-97495380D01*
X133742544Y-97841825D01*
X133742545Y-97841825D01*
X134046357Y-97538014D01*
X134088992Y-97495379D01*
X134069101Y-97475488D01*
X134342546Y-97475488D01*
X134342546Y-97515270D01*
X134357770Y-97552024D01*
X134385901Y-97580155D01*
X134422655Y-97595379D01*
X134462437Y-97595379D01*
X134499191Y-97580155D01*
X134527322Y-97552024D01*
X134542546Y-97515270D01*
X134542546Y-97495379D01*
X134796099Y-97495379D01*
X135130046Y-97829325D01*
X135130047Y-97829325D01*
X135463992Y-97495380D01*
X135463992Y-97495378D01*
X135444102Y-97475488D01*
X135742546Y-97475488D01*
X135742546Y-97515270D01*
X135757770Y-97552024D01*
X135785901Y-97580155D01*
X135822655Y-97595379D01*
X135862437Y-97595379D01*
X135899191Y-97580155D01*
X135927322Y-97552024D01*
X135942546Y-97515270D01*
X135942546Y-97495378D01*
X136196099Y-97495378D01*
X136238735Y-97538013D01*
X136238736Y-97538015D01*
X136542546Y-97841825D01*
X136888992Y-97495379D01*
X136888992Y-97495378D01*
X136542546Y-97148932D01*
X136476786Y-97214693D01*
X136476785Y-97214693D01*
X136196099Y-97495378D01*
X135942546Y-97495378D01*
X135942546Y-97475488D01*
X135927322Y-97438734D01*
X135899191Y-97410603D01*
X135862437Y-97395379D01*
X135822655Y-97395379D01*
X135785901Y-97410603D01*
X135757770Y-97438734D01*
X135742546Y-97475488D01*
X135444102Y-97475488D01*
X135130047Y-97161432D01*
X135130046Y-97161432D01*
X134796099Y-97495379D01*
X134542546Y-97495379D01*
X134542546Y-97475488D01*
X134527322Y-97438734D01*
X134499191Y-97410603D01*
X134462437Y-97395379D01*
X134422655Y-97395379D01*
X134385901Y-97410603D01*
X134357770Y-97438734D01*
X134342546Y-97475488D01*
X134069101Y-97475488D01*
X133742545Y-97148932D01*
X133742544Y-97148932D01*
X133396099Y-97495378D01*
X109143046Y-97495378D01*
X109143046Y-96795376D01*
X132937484Y-96795376D01*
X132937484Y-96795381D01*
X132957667Y-96974517D01*
X133017211Y-97144683D01*
X133025884Y-97158486D01*
X133388992Y-96795379D01*
X133388992Y-96795378D01*
X133369102Y-96775488D01*
X133642546Y-96775488D01*
X133642546Y-96815270D01*
X133657770Y-96852024D01*
X133685901Y-96880155D01*
X133722655Y-96895379D01*
X133762437Y-96895379D01*
X133799191Y-96880155D01*
X133827322Y-96852024D01*
X133842546Y-96815270D01*
X133842546Y-96795379D01*
X134096098Y-96795379D01*
X134131099Y-96830378D01*
X134430046Y-97129325D01*
X134763992Y-96795379D01*
X134763992Y-96795378D01*
X134744102Y-96775488D01*
X135017546Y-96775488D01*
X135017546Y-96815270D01*
X135032770Y-96852024D01*
X135060901Y-96880155D01*
X135097655Y-96895379D01*
X135137437Y-96895379D01*
X135174191Y-96880155D01*
X135202322Y-96852024D01*
X135217546Y-96815270D01*
X135217546Y-96795378D01*
X135496099Y-96795378D01*
X135496099Y-96795380D01*
X135842544Y-97141825D01*
X135842545Y-97141825D01*
X136153992Y-96830379D01*
X136188992Y-96795379D01*
X136169101Y-96775488D01*
X136442546Y-96775488D01*
X136442546Y-96815270D01*
X136457770Y-96852024D01*
X136485901Y-96880155D01*
X136522655Y-96895379D01*
X136562437Y-96895379D01*
X136599191Y-96880155D01*
X136627322Y-96852024D01*
X136642546Y-96815270D01*
X136642546Y-96795379D01*
X136896098Y-96795379D01*
X137259206Y-97158485D01*
X137259207Y-97158485D01*
X137267880Y-97144685D01*
X137267880Y-97144684D01*
X137290381Y-97080379D01*
X164722193Y-97080379D01*
X164731933Y-97129353D01*
X164731936Y-97129362D01*
X164809198Y-97315892D01*
X164809205Y-97315905D01*
X164921375Y-97483778D01*
X164921378Y-97483782D01*
X165064142Y-97626546D01*
X165064146Y-97626549D01*
X165232019Y-97738719D01*
X165232032Y-97738726D01*
X165418562Y-97815988D01*
X165418571Y-97815991D01*
X165616587Y-97855378D01*
X165616591Y-97855379D01*
X165892546Y-97855379D01*
X165892546Y-97080379D01*
X164722193Y-97080379D01*
X137290381Y-97080379D01*
X137327423Y-96974520D01*
X137327424Y-96974517D01*
X137347608Y-96795381D01*
X137347608Y-96795376D01*
X137327424Y-96616240D01*
X137267879Y-96446071D01*
X137259207Y-96432271D01*
X137259206Y-96432271D01*
X136896098Y-96795379D01*
X136642546Y-96795379D01*
X136642546Y-96775488D01*
X136627322Y-96738734D01*
X136599191Y-96710603D01*
X136562437Y-96695379D01*
X136522655Y-96695379D01*
X136485901Y-96710603D01*
X136457770Y-96738734D01*
X136442546Y-96775488D01*
X136169101Y-96775488D01*
X135842545Y-96448932D01*
X135842544Y-96448932D01*
X135496099Y-96795378D01*
X135217546Y-96795378D01*
X135217546Y-96775488D01*
X135202322Y-96738734D01*
X135174191Y-96710603D01*
X135137437Y-96695379D01*
X135097655Y-96695379D01*
X135060901Y-96710603D01*
X135032770Y-96738734D01*
X135017546Y-96775488D01*
X134744102Y-96775488D01*
X134430046Y-96461432D01*
X134385313Y-96506167D01*
X134385311Y-96506168D01*
X134096098Y-96795379D01*
X133842546Y-96795379D01*
X133842546Y-96775488D01*
X133827322Y-96738734D01*
X133799191Y-96710603D01*
X133762437Y-96695379D01*
X133722655Y-96695379D01*
X133685901Y-96710603D01*
X133657770Y-96738734D01*
X133642546Y-96775488D01*
X133369102Y-96775488D01*
X133025884Y-96432270D01*
X133025883Y-96432270D01*
X133017213Y-96446070D01*
X133017208Y-96446080D01*
X132957668Y-96616237D01*
X132957667Y-96616240D01*
X132937484Y-96795376D01*
X109143046Y-96795376D01*
X109143046Y-96078716D01*
X133379437Y-96078716D01*
X133379437Y-96078717D01*
X133742544Y-96441825D01*
X133742545Y-96441825D01*
X134054471Y-96129901D01*
X134088992Y-96095378D01*
X134088992Y-96095377D01*
X134069103Y-96075488D01*
X134342546Y-96075488D01*
X134342546Y-96115270D01*
X134357770Y-96152024D01*
X134385901Y-96180155D01*
X134422655Y-96195379D01*
X134462437Y-96195379D01*
X134499191Y-96180155D01*
X134527322Y-96152024D01*
X134542546Y-96115270D01*
X134542546Y-96095379D01*
X134796099Y-96095379D01*
X135130046Y-96429325D01*
X135130047Y-96429325D01*
X135476492Y-96082878D01*
X135469102Y-96075488D01*
X135742546Y-96075488D01*
X135742546Y-96115270D01*
X135757770Y-96152024D01*
X135785901Y-96180155D01*
X135822655Y-96195379D01*
X135862437Y-96195379D01*
X135899191Y-96180155D01*
X135927322Y-96152024D01*
X135942546Y-96115270D01*
X135942546Y-96095377D01*
X136196099Y-96095377D01*
X136196099Y-96095378D01*
X136542546Y-96441825D01*
X136542547Y-96441825D01*
X136905653Y-96078717D01*
X136891847Y-96070042D01*
X136721688Y-96010500D01*
X136720892Y-96010319D01*
X136720429Y-96010060D01*
X136715116Y-96008201D01*
X136715441Y-96007269D01*
X136659916Y-95976206D01*
X136630595Y-95922504D01*
X136629723Y-95922810D01*
X136627867Y-95917507D01*
X136627603Y-95917023D01*
X136627424Y-95916241D01*
X136567879Y-95746071D01*
X136559207Y-95732271D01*
X136559206Y-95732271D01*
X136196099Y-96095377D01*
X135942546Y-96095377D01*
X135942546Y-96075488D01*
X135927322Y-96038734D01*
X135899191Y-96010603D01*
X135862437Y-95995379D01*
X135822655Y-95995379D01*
X135785901Y-96010603D01*
X135757770Y-96038734D01*
X135742546Y-96075488D01*
X135469102Y-96075488D01*
X135142546Y-95748932D01*
X134796099Y-96095379D01*
X134542546Y-96095379D01*
X134542546Y-96075488D01*
X134527322Y-96038734D01*
X134499191Y-96010603D01*
X134462437Y-95995379D01*
X134422655Y-95995379D01*
X134385901Y-96010603D01*
X134357770Y-96038734D01*
X134342546Y-96075488D01*
X134069103Y-96075488D01*
X133725884Y-95732270D01*
X133725883Y-95732270D01*
X133717213Y-95746070D01*
X133717208Y-95746080D01*
X133657665Y-95916245D01*
X133657485Y-95917035D01*
X133657228Y-95917492D01*
X133655369Y-95922808D01*
X133654437Y-95922482D01*
X133623370Y-95978010D01*
X133569670Y-96007331D01*
X133569975Y-96008202D01*
X133564691Y-96010050D01*
X133564202Y-96010318D01*
X133563412Y-96010498D01*
X133393247Y-96070041D01*
X133393237Y-96070046D01*
X133379437Y-96078716D01*
X109143046Y-96078716D01*
X109143046Y-95378716D01*
X134079437Y-95378716D01*
X134079437Y-95378717D01*
X134442546Y-95741825D01*
X134442547Y-95741825D01*
X134805653Y-95378717D01*
X134805651Y-95378716D01*
X135479437Y-95378716D01*
X135479437Y-95378717D01*
X135842546Y-95741825D01*
X135842547Y-95741825D01*
X136205653Y-95378717D01*
X136191850Y-95370044D01*
X136021684Y-95310500D01*
X135842549Y-95290317D01*
X135842543Y-95290317D01*
X135663407Y-95310500D01*
X135663404Y-95310501D01*
X135493247Y-95370041D01*
X135493237Y-95370046D01*
X135479437Y-95378716D01*
X134805651Y-95378716D01*
X134791850Y-95370044D01*
X134621684Y-95310500D01*
X134442549Y-95290317D01*
X134442543Y-95290317D01*
X134263407Y-95310500D01*
X134263404Y-95310501D01*
X134093247Y-95370041D01*
X134093237Y-95370046D01*
X134079437Y-95378716D01*
X109143046Y-95378716D01*
X109143046Y-92322899D01*
X128624904Y-92322899D01*
X128624904Y-92322906D01*
X128645099Y-92502152D01*
X128645100Y-92502157D01*
X128704680Y-92672426D01*
X128757249Y-92756088D01*
X128800653Y-92825165D01*
X128928207Y-92952719D01*
X128994348Y-92994278D01*
X129041000Y-93023592D01*
X129080947Y-93048692D01*
X129251214Y-93108271D01*
X129251219Y-93108272D01*
X129430465Y-93128468D01*
X129430469Y-93128468D01*
X129430473Y-93128468D01*
X129609718Y-93108272D01*
X129609721Y-93108271D01*
X129609724Y-93108271D01*
X129779991Y-93048692D01*
X129819938Y-93023592D01*
X129836341Y-93013285D01*
X129902314Y-92994278D01*
X146864361Y-92994278D01*
X146931400Y-93013963D01*
X146941676Y-93021333D01*
X146944509Y-93023592D01*
X146944511Y-93023594D01*
X147058043Y-93094930D01*
X147079273Y-93108271D01*
X147097251Y-93119567D01*
X147134266Y-93132519D01*
X147267518Y-93179146D01*
X147267523Y-93179147D01*
X147446769Y-93199343D01*
X147446773Y-93199343D01*
X147446777Y-93199343D01*
X147626022Y-93179147D01*
X147626024Y-93179146D01*
X147626028Y-93179146D01*
X147626031Y-93179144D01*
X147626035Y-93179144D01*
X147759282Y-93132519D01*
X147829061Y-93128957D01*
X147889688Y-93163685D01*
X147921916Y-93225679D01*
X147915511Y-93295254D01*
X147887918Y-93337241D01*
X146773832Y-94451328D01*
X146662027Y-94563132D01*
X146662025Y-94563135D01*
X146611907Y-94649944D01*
X146611905Y-94649946D01*
X146582971Y-94700059D01*
X146582970Y-94700060D01*
X146582969Y-94700065D01*
X146542045Y-94852793D01*
X146542045Y-94852795D01*
X146542045Y-95020896D01*
X146542046Y-95020909D01*
X146542046Y-95197966D01*
X146522361Y-95265005D01*
X146514996Y-95275275D01*
X146512732Y-95278113D01*
X146416757Y-95430855D01*
X146357177Y-95601124D01*
X146357176Y-95601129D01*
X146336981Y-95780375D01*
X146336981Y-95780382D01*
X146357176Y-95959628D01*
X146357177Y-95959633D01*
X146404677Y-96095378D01*
X146416757Y-96129901D01*
X146512730Y-96282641D01*
X146640284Y-96410195D01*
X146793024Y-96506168D01*
X146963291Y-96565747D01*
X146963296Y-96565748D01*
X147142542Y-96585944D01*
X147142546Y-96585944D01*
X147142550Y-96585944D01*
X147321795Y-96565748D01*
X147321798Y-96565747D01*
X147321801Y-96565747D01*
X147492068Y-96506168D01*
X147644808Y-96410195D01*
X147772362Y-96282641D01*
X147868335Y-96129901D01*
X147927914Y-95959634D01*
X147932063Y-95922810D01*
X147948111Y-95780382D01*
X147948111Y-95780375D01*
X147927915Y-95601129D01*
X147927914Y-95601124D01*
X147896787Y-95512169D01*
X147868335Y-95430857D01*
X147868334Y-95430855D01*
X147868333Y-95430852D01*
X147776025Y-95283946D01*
X147757024Y-95216710D01*
X147777391Y-95149875D01*
X147793332Y-95130298D01*
X150830365Y-92093266D01*
X150891688Y-92059781D01*
X150961380Y-92064765D01*
X151017313Y-92106637D01*
X151041730Y-92172101D01*
X151042046Y-92180947D01*
X151042046Y-94879471D01*
X151022361Y-94946510D01*
X150969557Y-94992265D01*
X150959009Y-94996509D01*
X150902639Y-95016233D01*
X150793024Y-95054589D01*
X150640283Y-95150563D01*
X150512730Y-95278116D01*
X150416757Y-95430855D01*
X150357177Y-95601124D01*
X150357176Y-95601129D01*
X150336981Y-95780375D01*
X150336981Y-95780382D01*
X150357176Y-95959628D01*
X150357177Y-95959633D01*
X150404677Y-96095378D01*
X150416757Y-96129901D01*
X150512730Y-96282641D01*
X150640284Y-96410195D01*
X150793024Y-96506168D01*
X150963291Y-96565747D01*
X150963296Y-96565748D01*
X151142542Y-96585944D01*
X151142546Y-96585944D01*
X151142550Y-96585944D01*
X151191941Y-96580379D01*
X164722193Y-96580379D01*
X165892546Y-96580379D01*
X165892546Y-95805379D01*
X165616587Y-95805379D01*
X165418571Y-95844766D01*
X165418562Y-95844769D01*
X165232032Y-95922031D01*
X165232019Y-95922038D01*
X165064146Y-96034208D01*
X165064142Y-96034211D01*
X164921378Y-96176975D01*
X164921375Y-96176979D01*
X164809205Y-96344852D01*
X164809198Y-96344865D01*
X164731936Y-96531395D01*
X164731933Y-96531404D01*
X164722193Y-96580379D01*
X151191941Y-96580379D01*
X151321795Y-96565748D01*
X151321798Y-96565747D01*
X151321801Y-96565747D01*
X151492068Y-96506168D01*
X151644808Y-96410195D01*
X151772362Y-96282641D01*
X151868335Y-96129901D01*
X151927914Y-95959634D01*
X151937707Y-95872709D01*
X151964772Y-95808299D01*
X151973246Y-95798913D01*
X152123066Y-95649095D01*
X152202123Y-95512163D01*
X152243047Y-95359436D01*
X152243047Y-95201321D01*
X152243047Y-95193726D01*
X152243046Y-95193708D01*
X152243046Y-91862791D01*
X152262731Y-91795752D01*
X152270101Y-91785476D01*
X152272356Y-91782646D01*
X152272362Y-91782641D01*
X152368335Y-91629901D01*
X152411997Y-91505121D01*
X152452719Y-91448346D01*
X152517671Y-91422598D01*
X152542922Y-91422856D01*
X152709628Y-91441639D01*
X152709632Y-91441639D01*
X152709636Y-91441639D01*
X152888881Y-91421443D01*
X152888884Y-91421442D01*
X152888887Y-91421442D01*
X153059154Y-91361863D01*
X153211894Y-91265890D01*
X153339448Y-91138336D01*
X153435421Y-90985596D01*
X153495000Y-90815329D01*
X153515197Y-90636074D01*
X153495000Y-90456819D01*
X153435421Y-90286552D01*
X153339448Y-90133812D01*
X153211894Y-90006258D01*
X153059155Y-89910285D01*
X152888886Y-89850705D01*
X152888881Y-89850704D01*
X152709636Y-89830509D01*
X152709628Y-89830509D01*
X152530382Y-89850704D01*
X152530377Y-89850705D01*
X152360108Y-89910285D01*
X152207368Y-90006259D01*
X152204535Y-90008519D01*
X152202356Y-90009408D01*
X152201474Y-90009963D01*
X152201376Y-90009808D01*
X152139849Y-90034929D01*
X152127220Y-90035574D01*
X151524992Y-90035574D01*
X151524976Y-90035573D01*
X151517380Y-90035573D01*
X151359265Y-90035573D01*
X151282901Y-90056035D01*
X151206536Y-90076497D01*
X151206531Y-90076500D01*
X151069612Y-90155549D01*
X151069604Y-90155555D01*
X148390236Y-92834923D01*
X148328913Y-92868408D01*
X148259221Y-92863424D01*
X148203288Y-92821552D01*
X148178871Y-92756088D01*
X148185514Y-92706287D01*
X148232139Y-92573040D01*
X148232142Y-92573027D01*
X148252338Y-92393781D01*
X148252338Y-92393774D01*
X148232142Y-92214528D01*
X148232141Y-92214523D01*
X148217297Y-92172101D01*
X148172562Y-92044256D01*
X148076589Y-91891516D01*
X147949035Y-91763962D01*
X147937890Y-91756959D01*
X147796296Y-91667989D01*
X147626027Y-91608409D01*
X147626022Y-91608408D01*
X147446777Y-91588213D01*
X147446769Y-91588213D01*
X147267523Y-91608408D01*
X147267518Y-91608409D01*
X147097249Y-91667989D01*
X146944509Y-91763963D01*
X146941676Y-91766223D01*
X146939497Y-91767112D01*
X146938615Y-91767667D01*
X146938517Y-91767512D01*
X146876990Y-91792633D01*
X146864361Y-91793278D01*
X130084284Y-91793278D01*
X130017245Y-91773593D01*
X129996603Y-91756959D01*
X129932731Y-91693087D01*
X129779992Y-91597114D01*
X129609723Y-91537534D01*
X129609718Y-91537533D01*
X129430473Y-91517338D01*
X129430465Y-91517338D01*
X129251219Y-91537533D01*
X129251214Y-91537534D01*
X129080945Y-91597114D01*
X128928206Y-91693087D01*
X128800653Y-91820640D01*
X128704680Y-91973379D01*
X128645100Y-92143648D01*
X128645099Y-92143653D01*
X128624904Y-92322899D01*
X109143046Y-92322899D01*
X109143046Y-67404879D01*
X109162731Y-67337840D01*
X109215535Y-67292085D01*
X109267046Y-67280879D01*
X112518546Y-67280879D01*
X112585585Y-67300564D01*
G37*
%TD.AperFunction*%
%TA.AperFunction,Conductor*%
G36*
X133272546Y-112559251D02*
G01*
X133468863Y-112506648D01*
X133468872Y-112506644D01*
X133675028Y-112410513D01*
X133861366Y-112280036D01*
X134022203Y-112119199D01*
X134152678Y-111932863D01*
X134179887Y-111874513D01*
X134226059Y-111822074D01*
X134293253Y-111802921D01*
X134360134Y-111823136D01*
X134404651Y-111874511D01*
X134407621Y-111880880D01*
X134431977Y-111933111D01*
X134431978Y-111933113D01*
X134562500Y-112119520D01*
X134723404Y-112280424D01*
X134723407Y-112280426D01*
X134909812Y-112410947D01*
X135116050Y-112507118D01*
X135335854Y-112566014D01*
X135497776Y-112580180D01*
X135562544Y-112585847D01*
X135562546Y-112585847D01*
X135562548Y-112585847D01*
X135619219Y-112580888D01*
X135789238Y-112566014D01*
X136009042Y-112507118D01*
X136215280Y-112410947D01*
X136401685Y-112280426D01*
X136562593Y-112119518D01*
X136693114Y-111933113D01*
X136720164Y-111875103D01*
X136766336Y-111822664D01*
X136833529Y-111803512D01*
X136900411Y-111823727D01*
X136944927Y-111875103D01*
X136947621Y-111880880D01*
X136971975Y-111933107D01*
X136971978Y-111933113D01*
X137102500Y-112119520D01*
X137263404Y-112280424D01*
X137263407Y-112280426D01*
X137449812Y-112410947D01*
X137656050Y-112507118D01*
X137875854Y-112566014D01*
X138037776Y-112580180D01*
X138102544Y-112585847D01*
X138102546Y-112585847D01*
X138102548Y-112585847D01*
X138159219Y-112580888D01*
X138329238Y-112566014D01*
X138549042Y-112507118D01*
X138554005Y-112504803D01*
X138623080Y-112494308D01*
X138686865Y-112522824D01*
X138725108Y-112581299D01*
X138725666Y-112651166D01*
X138694095Y-112704864D01*
X138341232Y-113057728D01*
X138229427Y-113169532D01*
X138229425Y-113169534D01*
X138211509Y-113200566D01*
X138203937Y-113213683D01*
X138168593Y-113274900D01*
X138151669Y-113304214D01*
X138150369Y-113306465D01*
X138109445Y-113459193D01*
X138109445Y-113459195D01*
X138109445Y-113627296D01*
X138109446Y-113627309D01*
X138109446Y-116169676D01*
X138109445Y-116169694D01*
X138109445Y-116335401D01*
X138109446Y-116335410D01*
X138111480Y-116343002D01*
X138114924Y-116388972D01*
X138107035Y-116458995D01*
X138107035Y-116459003D01*
X138127230Y-116638249D01*
X138127231Y-116638254D01*
X138186811Y-116808523D01*
X138244214Y-116899879D01*
X138282784Y-116961262D01*
X138410338Y-117088816D01*
X138563078Y-117184789D01*
X138733345Y-117244368D01*
X138733350Y-117244369D01*
X138912596Y-117264565D01*
X138912600Y-117264565D01*
X138912604Y-117264565D01*
X139091849Y-117244369D01*
X139091852Y-117244368D01*
X139091855Y-117244368D01*
X139262122Y-117184789D01*
X139414862Y-117088816D01*
X139542416Y-116961262D01*
X139638389Y-116808522D01*
X139697968Y-116638255D01*
X139697969Y-116638249D01*
X139718165Y-116459003D01*
X139718165Y-116458996D01*
X139697969Y-116279750D01*
X139697968Y-116279745D01*
X139654038Y-116154200D01*
X139638389Y-116109478D01*
X139542416Y-115956738D01*
X139414862Y-115829184D01*
X139414859Y-115829182D01*
X139368473Y-115800035D01*
X139322182Y-115747700D01*
X139310446Y-115695042D01*
X139310446Y-115148008D01*
X139330131Y-115080969D01*
X139382935Y-115035214D01*
X139452093Y-115025270D01*
X139515649Y-115054295D01*
X139522127Y-115060327D01*
X149293395Y-124831595D01*
X149349661Y-124887861D01*
X149397931Y-124936131D01*
X149520844Y-125018259D01*
X149520857Y-125018266D01*
X149657428Y-125074835D01*
X149657433Y-125074837D01*
X149657437Y-125074837D01*
X149657438Y-125074838D01*
X149802425Y-125103679D01*
X149802428Y-125103679D01*
X152206516Y-125103679D01*
X152273555Y-125123364D01*
X152294197Y-125139998D01*
X154396374Y-127242175D01*
X154429859Y-127303498D01*
X154424875Y-127373190D01*
X154396377Y-127417535D01*
X154361907Y-127452006D01*
X154361906Y-127452007D01*
X154224012Y-127641804D01*
X154117497Y-127850849D01*
X154045001Y-128073972D01*
X154008300Y-128305695D01*
X154008300Y-130520304D01*
X154045001Y-130752027D01*
X154117497Y-130975150D01*
X154117499Y-130975153D01*
X154193601Y-131124512D01*
X154224012Y-131184195D01*
X154361904Y-131373989D01*
X154361908Y-131373994D01*
X154527805Y-131539891D01*
X154527810Y-131539895D01*
X154549372Y-131555561D01*
X154592038Y-131610891D01*
X154598017Y-131680504D01*
X154565412Y-131742299D01*
X154504573Y-131776656D01*
X154476487Y-131779879D01*
X152057277Y-131779879D01*
X151990238Y-131760194D01*
X151944483Y-131707390D01*
X151934539Y-131638232D01*
X151941095Y-131612546D01*
X151982891Y-131500482D01*
X151985052Y-131480379D01*
X151989300Y-131440873D01*
X151989299Y-127385128D01*
X151982891Y-127325517D01*
X151974678Y-127303498D01*
X151932597Y-127190671D01*
X151932593Y-127190664D01*
X151846347Y-127075455D01*
X151846344Y-127075452D01*
X151731135Y-126989206D01*
X151731128Y-126989202D01*
X151596282Y-126938908D01*
X151596283Y-126938908D01*
X151536683Y-126932501D01*
X151536681Y-126932500D01*
X151536673Y-126932500D01*
X151536665Y-126932500D01*
X150142397Y-126932500D01*
X150075358Y-126912815D01*
X150054716Y-126896181D01*
X146573167Y-123414631D01*
X146573160Y-123414625D01*
X146499475Y-123365391D01*
X146499475Y-123365392D01*
X146450237Y-123332492D01*
X146313663Y-123275922D01*
X146313653Y-123275919D01*
X146168666Y-123247079D01*
X146168664Y-123247079D01*
X141653375Y-123247079D01*
X141586336Y-123227394D01*
X141565694Y-123210760D01*
X138628577Y-120273642D01*
X138595092Y-120212319D01*
X138600076Y-120142627D01*
X138641948Y-120086694D01*
X138663839Y-120073586D01*
X138755280Y-120030947D01*
X138941685Y-119900426D01*
X139102593Y-119739518D01*
X139233114Y-119553113D01*
X139260164Y-119495103D01*
X139306336Y-119442664D01*
X139373529Y-119423512D01*
X139440411Y-119443727D01*
X139484928Y-119495104D01*
X139511975Y-119553107D01*
X139511978Y-119553113D01*
X139642500Y-119739520D01*
X139803404Y-119900424D01*
X139803407Y-119900426D01*
X139989812Y-120030947D01*
X140196050Y-120127118D01*
X140415854Y-120186014D01*
X140577776Y-120200180D01*
X140642544Y-120205847D01*
X140642546Y-120205847D01*
X140642548Y-120205847D01*
X140699219Y-120200888D01*
X140869238Y-120186014D01*
X141089042Y-120127118D01*
X141295280Y-120030947D01*
X141481685Y-119900426D01*
X141642593Y-119739518D01*
X141773114Y-119553113D01*
X141869285Y-119346875D01*
X141928181Y-119127071D01*
X141948014Y-118900379D01*
X141928181Y-118673687D01*
X141869285Y-118453883D01*
X141773114Y-118247645D01*
X141642593Y-118061240D01*
X141642591Y-118061237D01*
X141481687Y-117900333D01*
X141295280Y-117769811D01*
X141295278Y-117769810D01*
X141089043Y-117673640D01*
X141089034Y-117673637D01*
X140869243Y-117614745D01*
X140869239Y-117614744D01*
X140869238Y-117614744D01*
X140869237Y-117614743D01*
X140869232Y-117614743D01*
X140642548Y-117594911D01*
X140642544Y-117594911D01*
X140415859Y-117614743D01*
X140415848Y-117614745D01*
X140196057Y-117673637D01*
X140196048Y-117673640D01*
X139989813Y-117769810D01*
X139989811Y-117769811D01*
X139803404Y-117900333D01*
X139642500Y-118061237D01*
X139511978Y-118247644D01*
X139511977Y-118247646D01*
X139484928Y-118305654D01*
X139438755Y-118358093D01*
X139371562Y-118377245D01*
X139304681Y-118357029D01*
X139260164Y-118305654D01*
X139233114Y-118247645D01*
X139102593Y-118061240D01*
X139102591Y-118061237D01*
X138941687Y-117900333D01*
X138755280Y-117769811D01*
X138755278Y-117769810D01*
X138549043Y-117673640D01*
X138549034Y-117673637D01*
X138329243Y-117614745D01*
X138329239Y-117614744D01*
X138329238Y-117614744D01*
X138329237Y-117614743D01*
X138329232Y-117614743D01*
X138102548Y-117594911D01*
X138102544Y-117594911D01*
X137875859Y-117614743D01*
X137875848Y-117614745D01*
X137656057Y-117673637D01*
X137656048Y-117673640D01*
X137449813Y-117769810D01*
X137449807Y-117769814D01*
X137424054Y-117787846D01*
X137357848Y-117810173D01*
X137290081Y-117793161D01*
X137265252Y-117773951D01*
X136558734Y-117067431D01*
X136558727Y-117067425D01*
X136485042Y-117018191D01*
X136485042Y-117018192D01*
X136435804Y-116985292D01*
X136299230Y-116928722D01*
X136299220Y-116928719D01*
X136154233Y-116899879D01*
X136154231Y-116899879D01*
X134674776Y-116899879D01*
X134607737Y-116880194D01*
X134587095Y-116863560D01*
X132248165Y-114524630D01*
X132214680Y-114463307D01*
X132211846Y-114436949D01*
X132211846Y-113502551D01*
X132218804Y-113461596D01*
X132219816Y-113458705D01*
X132246714Y-113381834D01*
X132255206Y-113306465D01*
X132266911Y-113202582D01*
X132266911Y-113202575D01*
X132246715Y-113023329D01*
X132246714Y-113023324D01*
X132187134Y-112853055D01*
X132147928Y-112790659D01*
X132091162Y-112700317D01*
X131963608Y-112572763D01*
X131942102Y-112559250D01*
X131810869Y-112476790D01*
X131640600Y-112417210D01*
X131640596Y-112417209D01*
X131486278Y-112399822D01*
X131421864Y-112372755D01*
X131382309Y-112315160D01*
X131380172Y-112245323D01*
X131412481Y-112188920D01*
X131482206Y-112119195D01*
X131612680Y-111932860D01*
X131612681Y-111932858D01*
X131640164Y-111873922D01*
X131686336Y-111821482D01*
X131753529Y-111802330D01*
X131820410Y-111822545D01*
X131864928Y-111873922D01*
X131892410Y-111932858D01*
X131892411Y-111932860D01*
X132022888Y-112119199D01*
X132183725Y-112280036D01*
X132370063Y-112410513D01*
X132576219Y-112506644D01*
X132576228Y-112506648D01*
X132772545Y-112559251D01*
X132772546Y-112559250D01*
X132772546Y-111596065D01*
X132776940Y-111600459D01*
X132868152Y-111653120D01*
X132969885Y-111680379D01*
X133075207Y-111680379D01*
X133176940Y-111653120D01*
X133268152Y-111600459D01*
X133272546Y-111596065D01*
X133272546Y-112559251D01*
G37*
%TD.AperFunction*%
%TA.AperFunction,Conductor*%
G36*
X132702466Y-118654773D02*
G01*
X132649805Y-118745985D01*
X132622546Y-118847718D01*
X132622546Y-118953040D01*
X132649805Y-119054773D01*
X132702466Y-119145985D01*
X132706860Y-119150379D01*
X130798232Y-119150379D01*
X130802626Y-119145985D01*
X130855287Y-119054773D01*
X130882546Y-118953040D01*
X130882546Y-118847718D01*
X130855287Y-118745985D01*
X130802626Y-118654773D01*
X130798232Y-118650379D01*
X132706860Y-118650379D01*
X132702466Y-118654773D01*
G37*
%TD.AperFunction*%
%TA.AperFunction,Conductor*%
G36*
X130732546Y-112559251D02*
G01*
X130769551Y-112587647D01*
X130810753Y-112644075D01*
X130814908Y-112713821D01*
X130799058Y-112751993D01*
X130735558Y-112853053D01*
X130675977Y-113023324D01*
X130675976Y-113023329D01*
X130655781Y-113202575D01*
X130655781Y-113202582D01*
X130675976Y-113381828D01*
X130675977Y-113381833D01*
X130703888Y-113461596D01*
X130710846Y-113502551D01*
X130710846Y-114873097D01*
X130710846Y-114873099D01*
X130710845Y-114873099D01*
X130739686Y-115018086D01*
X130739689Y-115018096D01*
X130796260Y-115154671D01*
X130829158Y-115203906D01*
X130829159Y-115203909D01*
X130878392Y-115277593D01*
X130878398Y-115277600D01*
X132994207Y-117393408D01*
X133027692Y-117454731D01*
X133022708Y-117524423D01*
X132980836Y-117580356D01*
X132917334Y-117604617D01*
X132795945Y-117615237D01*
X132795935Y-117615239D01*
X132576228Y-117674109D01*
X132576219Y-117674113D01*
X132370063Y-117770244D01*
X132183725Y-117900721D01*
X132022888Y-118061558D01*
X131892411Y-118247896D01*
X131864928Y-118306836D01*
X131818756Y-118359275D01*
X131751562Y-118378427D01*
X131684681Y-118358211D01*
X131640164Y-118306836D01*
X131612680Y-118247896D01*
X131482203Y-118061558D01*
X131321366Y-117900721D01*
X131135028Y-117770244D01*
X130928874Y-117674113D01*
X130732546Y-117621506D01*
X130732546Y-118584693D01*
X130728152Y-118580299D01*
X130636940Y-118527638D01*
X130535207Y-118500379D01*
X130429885Y-118500379D01*
X130328152Y-118527638D01*
X130236940Y-118580299D01*
X130232546Y-118584693D01*
X130232546Y-117621506D01*
X130036217Y-117674113D01*
X129830063Y-117770245D01*
X129643728Y-117900718D01*
X129583421Y-117961024D01*
X129522097Y-117994508D01*
X129452406Y-117989522D01*
X129408060Y-117961022D01*
X127255819Y-115808781D01*
X127222334Y-115747458D01*
X127219500Y-115721100D01*
X127219500Y-112572801D01*
X127239185Y-112505762D01*
X127291989Y-112460007D01*
X127361147Y-112450063D01*
X127395903Y-112460418D01*
X127496050Y-112507118D01*
X127715854Y-112566014D01*
X127877776Y-112580180D01*
X127942544Y-112585847D01*
X127942546Y-112585847D01*
X127942548Y-112585847D01*
X127999219Y-112580888D01*
X128169238Y-112566014D01*
X128389042Y-112507118D01*
X128595280Y-112410947D01*
X128781685Y-112280426D01*
X128942593Y-112119518D01*
X129073114Y-111933113D01*
X129100441Y-111874508D01*
X129146610Y-111822074D01*
X129213803Y-111802921D01*
X129280685Y-111823136D01*
X129325203Y-111874512D01*
X129352411Y-111932861D01*
X129482888Y-112119199D01*
X129643725Y-112280036D01*
X129830063Y-112410513D01*
X130036219Y-112506644D01*
X130036228Y-112506648D01*
X130232545Y-112559251D01*
X130232546Y-112559250D01*
X130232546Y-111596065D01*
X130236940Y-111600459D01*
X130328152Y-111653120D01*
X130429885Y-111680379D01*
X130535207Y-111680379D01*
X130636940Y-111653120D01*
X130728152Y-111600459D01*
X130732546Y-111596065D01*
X130732546Y-112559251D01*
G37*
%TD.AperFunction*%
%TA.AperFunction,Conductor*%
G36*
X132702466Y-111034773D02*
G01*
X132649805Y-111125985D01*
X132622546Y-111227718D01*
X132622546Y-111333040D01*
X132649805Y-111434773D01*
X132702466Y-111525985D01*
X132706860Y-111530379D01*
X130798232Y-111530379D01*
X130802626Y-111525985D01*
X130855287Y-111434773D01*
X130882546Y-111333040D01*
X130882546Y-111227718D01*
X130855287Y-111125985D01*
X130802626Y-111034773D01*
X130798232Y-111030379D01*
X132706860Y-111030379D01*
X132702466Y-111034773D01*
G37*
%TD.AperFunction*%
%TD*%
M02*
